G04 (created by PCBNEW (2013-mar-13)-testing) date Wed 05 Jun 2013 12:42:06 PM WEST*
%MOIN*%
G04 Gerber Fmt 3.4, Leading zero omitted, Abs format*
%FSLAX34Y34*%
G01*
G70*
G90*
G04 APERTURE LIST*
%ADD10C,0.005906*%
%ADD11C,0.137800*%
%ADD12R,0.118100X0.118100*%
%ADD13C,0.118100*%
%ADD14R,0.102362X0.086614*%
%ADD15R,0.118110X0.086614*%
%ADD16C,0.059055*%
%ADD17C,0.118110*%
%ADD18C,0.010000*%
G04 APERTURE END LIST*
G54D10*
X56692Y-29133D02*
X66929Y-29133D01*
X56692Y-39370D02*
X56692Y-29133D01*
X66929Y-39370D02*
X56692Y-39370D01*
X66929Y-39370D02*
X66929Y-29133D01*
G54D11*
X57874Y-38188D03*
X65748Y-38188D03*
X57874Y-30314D03*
X65748Y-30314D03*
G54D12*
X58661Y-33251D03*
G54D13*
X58661Y-35251D03*
G54D14*
X66417Y-35039D03*
X66417Y-33464D03*
G54D15*
X62007Y-35039D03*
X62007Y-33464D03*
G54D16*
X66141Y-36417D03*
X64763Y-36614D03*
X63385Y-36614D03*
X64763Y-35039D03*
X63385Y-35039D03*
X62007Y-36614D03*
X64763Y-32086D03*
X63385Y-32086D03*
X62007Y-32086D03*
X63385Y-33464D03*
X64763Y-33464D03*
G54D17*
X62007Y-35039D02*
X62007Y-35236D01*
X62007Y-35236D02*
X63385Y-36614D01*
X62007Y-35039D02*
X62007Y-36614D01*
X64763Y-35039D02*
X66141Y-36417D01*
X63385Y-35039D02*
X63385Y-35236D01*
X63385Y-35236D02*
X64763Y-36614D01*
X64763Y-36614D02*
X64763Y-35039D01*
X63385Y-36614D02*
X63385Y-35039D01*
X66141Y-36417D02*
X64960Y-36417D01*
X64960Y-36417D02*
X64763Y-36614D01*
X66417Y-35039D02*
X66417Y-36141D01*
X66417Y-36141D02*
X66141Y-36417D01*
X63385Y-36614D02*
X64763Y-36614D01*
X62007Y-36614D02*
X63385Y-36614D01*
X62007Y-35039D02*
X63385Y-35039D01*
X63385Y-35039D02*
X64763Y-35039D01*
X64763Y-35039D02*
X66417Y-35039D01*
X62007Y-35039D02*
X62007Y-35039D01*
X64763Y-33464D02*
X64763Y-32086D01*
X66417Y-33464D02*
X64763Y-33464D01*
X63385Y-33464D02*
X63385Y-32086D01*
X62007Y-33464D02*
X62007Y-32086D01*
X62007Y-33464D02*
X63385Y-33464D01*
X63385Y-33464D02*
X64763Y-33464D01*
X62007Y-33464D02*
X60433Y-33464D01*
X59826Y-35251D02*
X60334Y-34744D01*
X59826Y-35251D02*
X58661Y-35251D01*
X60334Y-33562D02*
X60334Y-34744D01*
X60433Y-33464D02*
X60334Y-33562D01*
G54D10*
G36*
X66649Y-34051D02*
X66417Y-34005D01*
X64763Y-34005D01*
X64763Y-34005D01*
X64763Y-34005D01*
X63385Y-34005D01*
X62007Y-34005D01*
X61612Y-34083D01*
X61494Y-34162D01*
X61329Y-34162D01*
X61165Y-34230D01*
X61041Y-34354D01*
X60973Y-34518D01*
X60973Y-34694D01*
X60973Y-35039D01*
X60973Y-35236D01*
X60973Y-35236D01*
X60973Y-35236D01*
X60973Y-35560D01*
X60973Y-36614D01*
X61052Y-37009D01*
X61276Y-37345D01*
X61612Y-37569D01*
X62007Y-37648D01*
X63385Y-37648D01*
X64746Y-37648D01*
X64615Y-37962D01*
X64615Y-38413D01*
X64787Y-38829D01*
X65047Y-39090D01*
X59695Y-39090D01*
X59695Y-33930D01*
X59695Y-33754D01*
X59695Y-32573D01*
X59628Y-32410D01*
X59503Y-32285D01*
X59340Y-32217D01*
X59163Y-32217D01*
X57982Y-32217D01*
X57819Y-32285D01*
X57694Y-32410D01*
X57627Y-32573D01*
X57627Y-32749D01*
X57627Y-33930D01*
X57694Y-34093D01*
X57819Y-34218D01*
X57982Y-34286D01*
X58159Y-34286D01*
X59340Y-34286D01*
X59503Y-34218D01*
X59628Y-34093D01*
X59695Y-33930D01*
X59695Y-39090D01*
X58574Y-39090D01*
X58833Y-38831D01*
X59006Y-38415D01*
X59006Y-37964D01*
X58834Y-37548D01*
X58516Y-37229D01*
X58100Y-37056D01*
X57649Y-37056D01*
X57233Y-37228D01*
X56972Y-37488D01*
X56972Y-31015D01*
X57231Y-31274D01*
X57647Y-31447D01*
X58098Y-31447D01*
X58514Y-31275D01*
X58833Y-30957D01*
X59006Y-30541D01*
X59006Y-30090D01*
X58834Y-29674D01*
X58574Y-29413D01*
X65047Y-29413D01*
X64788Y-29672D01*
X64615Y-30088D01*
X64615Y-30539D01*
X64787Y-30955D01*
X65105Y-31274D01*
X65521Y-31447D01*
X65972Y-31447D01*
X66388Y-31275D01*
X66649Y-31015D01*
X66649Y-34051D01*
X66649Y-34051D01*
G37*
G54D18*
X66649Y-34051D02*
X66417Y-34005D01*
X64763Y-34005D01*
X64763Y-34005D01*
X64763Y-34005D01*
X63385Y-34005D01*
X62007Y-34005D01*
X61612Y-34083D01*
X61494Y-34162D01*
X61329Y-34162D01*
X61165Y-34230D01*
X61041Y-34354D01*
X60973Y-34518D01*
X60973Y-34694D01*
X60973Y-35039D01*
X60973Y-35236D01*
X60973Y-35236D01*
X60973Y-35236D01*
X60973Y-35560D01*
X60973Y-36614D01*
X61052Y-37009D01*
X61276Y-37345D01*
X61612Y-37569D01*
X62007Y-37648D01*
X63385Y-37648D01*
X64746Y-37648D01*
X64615Y-37962D01*
X64615Y-38413D01*
X64787Y-38829D01*
X65047Y-39090D01*
X59695Y-39090D01*
X59695Y-33930D01*
X59695Y-33754D01*
X59695Y-32573D01*
X59628Y-32410D01*
X59503Y-32285D01*
X59340Y-32217D01*
X59163Y-32217D01*
X57982Y-32217D01*
X57819Y-32285D01*
X57694Y-32410D01*
X57627Y-32573D01*
X57627Y-32749D01*
X57627Y-33930D01*
X57694Y-34093D01*
X57819Y-34218D01*
X57982Y-34286D01*
X58159Y-34286D01*
X59340Y-34286D01*
X59503Y-34218D01*
X59628Y-34093D01*
X59695Y-33930D01*
X59695Y-39090D01*
X58574Y-39090D01*
X58833Y-38831D01*
X59006Y-38415D01*
X59006Y-37964D01*
X58834Y-37548D01*
X58516Y-37229D01*
X58100Y-37056D01*
X57649Y-37056D01*
X57233Y-37228D01*
X56972Y-37488D01*
X56972Y-31015D01*
X57231Y-31274D01*
X57647Y-31447D01*
X58098Y-31447D01*
X58514Y-31275D01*
X58833Y-30957D01*
X59006Y-30541D01*
X59006Y-30090D01*
X58834Y-29674D01*
X58574Y-29413D01*
X65047Y-29413D01*
X64788Y-29672D01*
X64615Y-30088D01*
X64615Y-30539D01*
X64787Y-30955D01*
X65105Y-31274D01*
X65521Y-31447D01*
X65972Y-31447D01*
X66388Y-31275D01*
X66649Y-31015D01*
X66649Y-34051D01*
M02*
