G04 (created by PCBNEW (2013-mar-13)-testing) date Wed 05 Jun 2013 12:42:06 PM WEST*
%MOIN*%
G04 Gerber Fmt 3.4, Leading zero omitted, Abs format*
%FSLAX34Y34*%
G01*
G70*
G90*
G04 APERTURE LIST*
%ADD10C,0.005906*%
%ADD11C,0.137800*%
%ADD12R,0.118100X0.118100*%
%ADD13C,0.118100*%
%ADD14C,0.059055*%
%ADD15C,0.118110*%
%ADD16C,0.010000*%
G04 APERTURE END LIST*
G54D10*
X56692Y-29133D02*
X66929Y-29133D01*
X56692Y-39370D02*
X56692Y-29133D01*
X66929Y-39370D02*
X56692Y-39370D01*
X66929Y-39370D02*
X66929Y-29133D01*
G54D11*
X57874Y-38188D03*
X65748Y-38188D03*
X57874Y-30314D03*
X65748Y-30314D03*
G54D12*
X58661Y-33251D03*
G54D13*
X58661Y-35251D03*
G54D14*
X66141Y-36417D03*
X64763Y-36614D03*
X63385Y-36614D03*
X64763Y-35039D03*
X63385Y-35039D03*
X62007Y-36614D03*
X64763Y-32086D03*
X63385Y-32086D03*
X62007Y-32086D03*
X63385Y-33464D03*
X64763Y-33464D03*
G54D15*
X58661Y-33251D02*
X60023Y-33251D01*
X60023Y-33251D02*
X63385Y-36614D01*
G54D10*
G36*
X66649Y-37488D02*
X66390Y-37229D01*
X65974Y-37056D01*
X65523Y-37056D01*
X65502Y-37064D01*
X65502Y-33318D01*
X65390Y-33046D01*
X65182Y-32838D01*
X65031Y-32775D01*
X65181Y-32713D01*
X65389Y-32505D01*
X65502Y-32234D01*
X65502Y-31940D01*
X65390Y-31668D01*
X65182Y-31460D01*
X64911Y-31347D01*
X64617Y-31347D01*
X64345Y-31459D01*
X64137Y-31667D01*
X64074Y-31818D01*
X64012Y-31668D01*
X63804Y-31460D01*
X63533Y-31347D01*
X63239Y-31347D01*
X62967Y-31459D01*
X62759Y-31667D01*
X62696Y-31818D01*
X62634Y-31668D01*
X62427Y-31460D01*
X62155Y-31347D01*
X61861Y-31347D01*
X61589Y-31459D01*
X61381Y-31667D01*
X61269Y-31938D01*
X61268Y-32232D01*
X61381Y-32504D01*
X61588Y-32712D01*
X61860Y-32825D01*
X62154Y-32825D01*
X62425Y-32713D01*
X62633Y-32505D01*
X62696Y-32354D01*
X62758Y-32504D01*
X62966Y-32712D01*
X63118Y-32775D01*
X62967Y-32837D01*
X62759Y-33045D01*
X62646Y-33316D01*
X62646Y-33610D01*
X62758Y-33882D01*
X62966Y-34090D01*
X63238Y-34203D01*
X63532Y-34203D01*
X63803Y-34091D01*
X64011Y-33883D01*
X64074Y-33732D01*
X64136Y-33882D01*
X64344Y-34090D01*
X64616Y-34203D01*
X64910Y-34203D01*
X65181Y-34091D01*
X65389Y-33883D01*
X65502Y-33612D01*
X65502Y-33318D01*
X65502Y-37064D01*
X65107Y-37228D01*
X64788Y-37546D01*
X64615Y-37962D01*
X64615Y-38413D01*
X64787Y-38829D01*
X65047Y-39090D01*
X59695Y-39090D01*
X59695Y-35047D01*
X59538Y-34666D01*
X59248Y-34375D01*
X58868Y-34217D01*
X58456Y-34217D01*
X58076Y-34374D01*
X57785Y-34665D01*
X57627Y-35045D01*
X57627Y-35456D01*
X57784Y-35837D01*
X58074Y-36128D01*
X58454Y-36285D01*
X58866Y-36286D01*
X59246Y-36129D01*
X59537Y-35838D01*
X59695Y-35458D01*
X59695Y-35047D01*
X59695Y-39090D01*
X58574Y-39090D01*
X58833Y-38831D01*
X59006Y-38415D01*
X59006Y-37964D01*
X58834Y-37548D01*
X58516Y-37229D01*
X58100Y-37056D01*
X57649Y-37056D01*
X57233Y-37228D01*
X56972Y-37488D01*
X56972Y-31015D01*
X57231Y-31274D01*
X57647Y-31447D01*
X58098Y-31447D01*
X58514Y-31275D01*
X58833Y-30957D01*
X59006Y-30541D01*
X59006Y-30090D01*
X58834Y-29674D01*
X58574Y-29413D01*
X65047Y-29413D01*
X64788Y-29672D01*
X64615Y-30088D01*
X64615Y-30539D01*
X64787Y-30955D01*
X65105Y-31274D01*
X65521Y-31447D01*
X65972Y-31447D01*
X66388Y-31275D01*
X66649Y-31015D01*
X66649Y-37488D01*
X66649Y-37488D01*
G37*
G54D16*
X66649Y-37488D02*
X66390Y-37229D01*
X65974Y-37056D01*
X65523Y-37056D01*
X65502Y-37064D01*
X65502Y-33318D01*
X65390Y-33046D01*
X65182Y-32838D01*
X65031Y-32775D01*
X65181Y-32713D01*
X65389Y-32505D01*
X65502Y-32234D01*
X65502Y-31940D01*
X65390Y-31668D01*
X65182Y-31460D01*
X64911Y-31347D01*
X64617Y-31347D01*
X64345Y-31459D01*
X64137Y-31667D01*
X64074Y-31818D01*
X64012Y-31668D01*
X63804Y-31460D01*
X63533Y-31347D01*
X63239Y-31347D01*
X62967Y-31459D01*
X62759Y-31667D01*
X62696Y-31818D01*
X62634Y-31668D01*
X62427Y-31460D01*
X62155Y-31347D01*
X61861Y-31347D01*
X61589Y-31459D01*
X61381Y-31667D01*
X61269Y-31938D01*
X61268Y-32232D01*
X61381Y-32504D01*
X61588Y-32712D01*
X61860Y-32825D01*
X62154Y-32825D01*
X62425Y-32713D01*
X62633Y-32505D01*
X62696Y-32354D01*
X62758Y-32504D01*
X62966Y-32712D01*
X63118Y-32775D01*
X62967Y-32837D01*
X62759Y-33045D01*
X62646Y-33316D01*
X62646Y-33610D01*
X62758Y-33882D01*
X62966Y-34090D01*
X63238Y-34203D01*
X63532Y-34203D01*
X63803Y-34091D01*
X64011Y-33883D01*
X64074Y-33732D01*
X64136Y-33882D01*
X64344Y-34090D01*
X64616Y-34203D01*
X64910Y-34203D01*
X65181Y-34091D01*
X65389Y-33883D01*
X65502Y-33612D01*
X65502Y-33318D01*
X65502Y-37064D01*
X65107Y-37228D01*
X64788Y-37546D01*
X64615Y-37962D01*
X64615Y-38413D01*
X64787Y-38829D01*
X65047Y-39090D01*
X59695Y-39090D01*
X59695Y-35047D01*
X59538Y-34666D01*
X59248Y-34375D01*
X58868Y-34217D01*
X58456Y-34217D01*
X58076Y-34374D01*
X57785Y-34665D01*
X57627Y-35045D01*
X57627Y-35456D01*
X57784Y-35837D01*
X58074Y-36128D01*
X58454Y-36285D01*
X58866Y-36286D01*
X59246Y-36129D01*
X59537Y-35838D01*
X59695Y-35458D01*
X59695Y-35047D01*
X59695Y-39090D01*
X58574Y-39090D01*
X58833Y-38831D01*
X59006Y-38415D01*
X59006Y-37964D01*
X58834Y-37548D01*
X58516Y-37229D01*
X58100Y-37056D01*
X57649Y-37056D01*
X57233Y-37228D01*
X56972Y-37488D01*
X56972Y-31015D01*
X57231Y-31274D01*
X57647Y-31447D01*
X58098Y-31447D01*
X58514Y-31275D01*
X58833Y-30957D01*
X59006Y-30541D01*
X59006Y-30090D01*
X58834Y-29674D01*
X58574Y-29413D01*
X65047Y-29413D01*
X64788Y-29672D01*
X64615Y-30088D01*
X64615Y-30539D01*
X64787Y-30955D01*
X65105Y-31274D01*
X65521Y-31447D01*
X65972Y-31447D01*
X66388Y-31275D01*
X66649Y-31015D01*
X66649Y-37488D01*
M02*
