G04 (created by PCBNEW (2013-mar-13)-testing) date Wed 05 Jun 2013 12:42:06 PM WEST*
%MOIN*%
G04 Gerber Fmt 3.4, Leading zero omitted, Abs format*
%FSLAX34Y34*%
G01*
G70*
G90*
G04 APERTURE LIST*
%ADD10C,0.005906*%
%ADD11C,0.007874*%
%ADD12C,0.009843*%
G04 APERTURE END LIST*
G54D10*
G54D11*
X58661Y-38188D02*
G75*
G03X58661Y-38188I-787J0D01*
G74*
G01*
X66535Y-38188D02*
G75*
G03X66535Y-38188I-787J0D01*
G74*
G01*
X66535Y-30314D02*
G75*
G03X66535Y-30314I-787J0D01*
G74*
G01*
X58661Y-30314D02*
G75*
G03X58661Y-30314I-787J0D01*
G74*
G01*
X66929Y-29133D02*
X56692Y-29133D01*
X66929Y-39370D02*
X66929Y-29133D01*
X56692Y-39370D02*
X66929Y-39370D01*
X56692Y-29133D02*
X56692Y-39370D01*
G54D12*
X60179Y-27774D02*
X60198Y-27755D01*
X60236Y-27737D01*
X60329Y-27737D01*
X60367Y-27755D01*
X60386Y-27774D01*
X60404Y-27812D01*
X60404Y-27849D01*
X60386Y-27905D01*
X60161Y-28130D01*
X60404Y-28130D01*
X60648Y-27737D02*
X60686Y-27737D01*
X60723Y-27755D01*
X60742Y-27774D01*
X60761Y-27812D01*
X60779Y-27887D01*
X60779Y-27980D01*
X60761Y-28055D01*
X60742Y-28093D01*
X60723Y-28112D01*
X60686Y-28130D01*
X60648Y-28130D01*
X60611Y-28112D01*
X60592Y-28093D01*
X60573Y-28055D01*
X60554Y-27980D01*
X60554Y-27887D01*
X60573Y-27812D01*
X60592Y-27774D01*
X60611Y-27755D01*
X60648Y-27737D01*
X60948Y-28093D02*
X60967Y-28112D01*
X60948Y-28130D01*
X60929Y-28112D01*
X60948Y-28093D01*
X60948Y-28130D01*
X61211Y-27737D02*
X61248Y-27737D01*
X61286Y-27755D01*
X61304Y-27774D01*
X61323Y-27812D01*
X61342Y-27887D01*
X61342Y-27980D01*
X61323Y-28055D01*
X61304Y-28093D01*
X61286Y-28112D01*
X61248Y-28130D01*
X61211Y-28130D01*
X61173Y-28112D01*
X61154Y-28093D01*
X61136Y-28055D01*
X61117Y-27980D01*
X61117Y-27887D01*
X61136Y-27812D01*
X61154Y-27774D01*
X61173Y-27755D01*
X61211Y-27737D01*
X61586Y-27737D02*
X61623Y-27737D01*
X61661Y-27755D01*
X61679Y-27774D01*
X61698Y-27812D01*
X61717Y-27887D01*
X61717Y-27980D01*
X61698Y-28055D01*
X61679Y-28093D01*
X61661Y-28112D01*
X61623Y-28130D01*
X61586Y-28130D01*
X61548Y-28112D01*
X61529Y-28093D01*
X61511Y-28055D01*
X61492Y-27980D01*
X61492Y-27887D01*
X61511Y-27812D01*
X61529Y-27774D01*
X61548Y-27755D01*
X61586Y-27737D01*
X61961Y-27737D02*
X61998Y-27737D01*
X62035Y-27755D01*
X62054Y-27774D01*
X62073Y-27812D01*
X62092Y-27887D01*
X62092Y-27980D01*
X62073Y-28055D01*
X62054Y-28093D01*
X62035Y-28112D01*
X61998Y-28130D01*
X61961Y-28130D01*
X61923Y-28112D01*
X61904Y-28093D01*
X61886Y-28055D01*
X61867Y-27980D01*
X61867Y-27887D01*
X61886Y-27812D01*
X61904Y-27774D01*
X61923Y-27755D01*
X61961Y-27737D01*
X62560Y-28130D02*
X62560Y-27868D01*
X62560Y-27905D02*
X62579Y-27887D01*
X62617Y-27868D01*
X62673Y-27868D01*
X62710Y-27887D01*
X62729Y-27924D01*
X62729Y-28130D01*
X62729Y-27924D02*
X62748Y-27887D01*
X62785Y-27868D01*
X62842Y-27868D01*
X62879Y-27887D01*
X62898Y-27924D01*
X62898Y-28130D01*
X63085Y-28130D02*
X63085Y-27868D01*
X63085Y-27905D02*
X63104Y-27887D01*
X63142Y-27868D01*
X63198Y-27868D01*
X63235Y-27887D01*
X63254Y-27924D01*
X63254Y-28130D01*
X63254Y-27924D02*
X63273Y-27887D01*
X63310Y-27868D01*
X63367Y-27868D01*
X63404Y-27887D01*
X63423Y-27924D01*
X63423Y-28130D01*
X57874Y-28346D02*
X65748Y-28346D01*
X57874Y-30314D02*
X57874Y-27559D01*
X65748Y-30314D02*
X65748Y-27559D01*
X65748Y-28346D02*
X65304Y-28577D01*
X65748Y-28346D02*
X65304Y-28115D01*
X57874Y-28346D02*
X58317Y-28577D01*
X57874Y-28346D02*
X58317Y-28115D01*
X68288Y-32620D02*
X68307Y-32639D01*
X68325Y-32677D01*
X68325Y-32770D01*
X68307Y-32808D01*
X68288Y-32827D01*
X68250Y-32845D01*
X68213Y-32845D01*
X68157Y-32827D01*
X67932Y-32602D01*
X67932Y-32845D01*
X68325Y-33089D02*
X68325Y-33127D01*
X68307Y-33164D01*
X68288Y-33183D01*
X68250Y-33202D01*
X68175Y-33220D01*
X68082Y-33220D01*
X68007Y-33202D01*
X67969Y-33183D01*
X67950Y-33164D01*
X67932Y-33127D01*
X67932Y-33089D01*
X67950Y-33052D01*
X67969Y-33033D01*
X68007Y-33014D01*
X68082Y-32995D01*
X68175Y-32995D01*
X68250Y-33014D01*
X68288Y-33033D01*
X68307Y-33052D01*
X68325Y-33089D01*
X67969Y-33389D02*
X67950Y-33408D01*
X67932Y-33389D01*
X67950Y-33370D01*
X67969Y-33389D01*
X67932Y-33389D01*
X68325Y-33652D02*
X68325Y-33689D01*
X68307Y-33727D01*
X68288Y-33745D01*
X68250Y-33764D01*
X68175Y-33783D01*
X68082Y-33783D01*
X68007Y-33764D01*
X67969Y-33745D01*
X67950Y-33727D01*
X67932Y-33689D01*
X67932Y-33652D01*
X67950Y-33614D01*
X67969Y-33595D01*
X68007Y-33577D01*
X68082Y-33558D01*
X68175Y-33558D01*
X68250Y-33577D01*
X68288Y-33595D01*
X68307Y-33614D01*
X68325Y-33652D01*
X68325Y-34026D02*
X68325Y-34064D01*
X68307Y-34101D01*
X68288Y-34120D01*
X68250Y-34139D01*
X68175Y-34158D01*
X68082Y-34158D01*
X68007Y-34139D01*
X67969Y-34120D01*
X67950Y-34101D01*
X67932Y-34064D01*
X67932Y-34026D01*
X67950Y-33989D01*
X67969Y-33970D01*
X68007Y-33952D01*
X68082Y-33933D01*
X68175Y-33933D01*
X68250Y-33952D01*
X68288Y-33970D01*
X68307Y-33989D01*
X68325Y-34026D01*
X68325Y-34401D02*
X68325Y-34439D01*
X68307Y-34476D01*
X68288Y-34495D01*
X68250Y-34514D01*
X68175Y-34533D01*
X68082Y-34533D01*
X68007Y-34514D01*
X67969Y-34495D01*
X67950Y-34476D01*
X67932Y-34439D01*
X67932Y-34401D01*
X67950Y-34364D01*
X67969Y-34345D01*
X68007Y-34326D01*
X68082Y-34308D01*
X68175Y-34308D01*
X68250Y-34326D01*
X68288Y-34345D01*
X68307Y-34364D01*
X68325Y-34401D01*
X67932Y-35001D02*
X68194Y-35001D01*
X68157Y-35001D02*
X68175Y-35020D01*
X68194Y-35058D01*
X68194Y-35114D01*
X68175Y-35151D01*
X68138Y-35170D01*
X67932Y-35170D01*
X68138Y-35170D02*
X68175Y-35189D01*
X68194Y-35226D01*
X68194Y-35283D01*
X68175Y-35320D01*
X68138Y-35339D01*
X67932Y-35339D01*
X67932Y-35526D02*
X68194Y-35526D01*
X68157Y-35526D02*
X68175Y-35545D01*
X68194Y-35583D01*
X68194Y-35639D01*
X68175Y-35676D01*
X68138Y-35695D01*
X67932Y-35695D01*
X68138Y-35695D02*
X68175Y-35714D01*
X68194Y-35751D01*
X68194Y-35808D01*
X68175Y-35845D01*
X68138Y-35864D01*
X67932Y-35864D01*
X67716Y-30314D02*
X67716Y-38188D01*
X65748Y-30314D02*
X68503Y-30314D01*
X65748Y-38188D02*
X68503Y-38188D01*
X67716Y-38188D02*
X67485Y-37745D01*
X67716Y-38188D02*
X67947Y-37745D01*
X67716Y-30314D02*
X67485Y-30758D01*
X67716Y-30314D02*
X67947Y-30758D01*
X60179Y-40373D02*
X60198Y-40354D01*
X60236Y-40335D01*
X60329Y-40335D01*
X60367Y-40354D01*
X60386Y-40373D01*
X60404Y-40410D01*
X60404Y-40448D01*
X60386Y-40504D01*
X60161Y-40729D01*
X60404Y-40729D01*
X60742Y-40335D02*
X60667Y-40335D01*
X60629Y-40354D01*
X60611Y-40373D01*
X60573Y-40429D01*
X60554Y-40504D01*
X60554Y-40654D01*
X60573Y-40691D01*
X60592Y-40710D01*
X60629Y-40729D01*
X60704Y-40729D01*
X60742Y-40710D01*
X60761Y-40691D01*
X60779Y-40654D01*
X60779Y-40560D01*
X60761Y-40523D01*
X60742Y-40504D01*
X60704Y-40485D01*
X60629Y-40485D01*
X60592Y-40504D01*
X60573Y-40523D01*
X60554Y-40560D01*
X60948Y-40691D02*
X60967Y-40710D01*
X60948Y-40729D01*
X60929Y-40710D01*
X60948Y-40691D01*
X60948Y-40729D01*
X61211Y-40335D02*
X61248Y-40335D01*
X61286Y-40354D01*
X61304Y-40373D01*
X61323Y-40410D01*
X61342Y-40485D01*
X61342Y-40579D01*
X61323Y-40654D01*
X61304Y-40691D01*
X61286Y-40710D01*
X61248Y-40729D01*
X61211Y-40729D01*
X61173Y-40710D01*
X61154Y-40691D01*
X61136Y-40654D01*
X61117Y-40579D01*
X61117Y-40485D01*
X61136Y-40410D01*
X61154Y-40373D01*
X61173Y-40354D01*
X61211Y-40335D01*
X61586Y-40335D02*
X61623Y-40335D01*
X61661Y-40354D01*
X61679Y-40373D01*
X61698Y-40410D01*
X61717Y-40485D01*
X61717Y-40579D01*
X61698Y-40654D01*
X61679Y-40691D01*
X61661Y-40710D01*
X61623Y-40729D01*
X61586Y-40729D01*
X61548Y-40710D01*
X61529Y-40691D01*
X61511Y-40654D01*
X61492Y-40579D01*
X61492Y-40485D01*
X61511Y-40410D01*
X61529Y-40373D01*
X61548Y-40354D01*
X61586Y-40335D01*
X61961Y-40335D02*
X61998Y-40335D01*
X62035Y-40354D01*
X62054Y-40373D01*
X62073Y-40410D01*
X62092Y-40485D01*
X62092Y-40579D01*
X62073Y-40654D01*
X62054Y-40691D01*
X62035Y-40710D01*
X61998Y-40729D01*
X61961Y-40729D01*
X61923Y-40710D01*
X61904Y-40691D01*
X61886Y-40654D01*
X61867Y-40579D01*
X61867Y-40485D01*
X61886Y-40410D01*
X61904Y-40373D01*
X61923Y-40354D01*
X61961Y-40335D01*
X62560Y-40729D02*
X62560Y-40466D01*
X62560Y-40504D02*
X62579Y-40485D01*
X62617Y-40466D01*
X62673Y-40466D01*
X62710Y-40485D01*
X62729Y-40523D01*
X62729Y-40729D01*
X62729Y-40523D02*
X62748Y-40485D01*
X62785Y-40466D01*
X62842Y-40466D01*
X62879Y-40485D01*
X62898Y-40523D01*
X62898Y-40729D01*
X63085Y-40729D02*
X63085Y-40466D01*
X63085Y-40504D02*
X63104Y-40485D01*
X63142Y-40466D01*
X63198Y-40466D01*
X63235Y-40485D01*
X63254Y-40523D01*
X63254Y-40729D01*
X63254Y-40523D02*
X63273Y-40485D01*
X63310Y-40466D01*
X63367Y-40466D01*
X63404Y-40485D01*
X63423Y-40523D01*
X63423Y-40729D01*
X56692Y-40157D02*
X66929Y-40157D01*
X56692Y-39370D02*
X56692Y-40944D01*
X66929Y-39370D02*
X66929Y-40944D01*
X66929Y-40157D02*
X66485Y-40388D01*
X66929Y-40157D02*
X66485Y-39926D01*
X56692Y-40157D02*
X57136Y-40388D01*
X56692Y-40157D02*
X57136Y-39926D01*
X55689Y-32620D02*
X55708Y-32639D01*
X55727Y-32677D01*
X55727Y-32770D01*
X55708Y-32808D01*
X55689Y-32827D01*
X55652Y-32845D01*
X55614Y-32845D01*
X55558Y-32827D01*
X55333Y-32602D01*
X55333Y-32845D01*
X55727Y-33183D02*
X55727Y-33108D01*
X55708Y-33070D01*
X55689Y-33052D01*
X55633Y-33014D01*
X55558Y-32995D01*
X55408Y-32995D01*
X55371Y-33014D01*
X55352Y-33033D01*
X55333Y-33070D01*
X55333Y-33145D01*
X55352Y-33183D01*
X55371Y-33202D01*
X55408Y-33220D01*
X55502Y-33220D01*
X55539Y-33202D01*
X55558Y-33183D01*
X55577Y-33145D01*
X55577Y-33070D01*
X55558Y-33033D01*
X55539Y-33014D01*
X55502Y-32995D01*
X55371Y-33389D02*
X55352Y-33408D01*
X55333Y-33389D01*
X55352Y-33370D01*
X55371Y-33389D01*
X55333Y-33389D01*
X55727Y-33652D02*
X55727Y-33689D01*
X55708Y-33727D01*
X55689Y-33745D01*
X55652Y-33764D01*
X55577Y-33783D01*
X55483Y-33783D01*
X55408Y-33764D01*
X55371Y-33745D01*
X55352Y-33727D01*
X55333Y-33689D01*
X55333Y-33652D01*
X55352Y-33614D01*
X55371Y-33595D01*
X55408Y-33577D01*
X55483Y-33558D01*
X55577Y-33558D01*
X55652Y-33577D01*
X55689Y-33595D01*
X55708Y-33614D01*
X55727Y-33652D01*
X55727Y-34026D02*
X55727Y-34064D01*
X55708Y-34101D01*
X55689Y-34120D01*
X55652Y-34139D01*
X55577Y-34158D01*
X55483Y-34158D01*
X55408Y-34139D01*
X55371Y-34120D01*
X55352Y-34101D01*
X55333Y-34064D01*
X55333Y-34026D01*
X55352Y-33989D01*
X55371Y-33970D01*
X55408Y-33952D01*
X55483Y-33933D01*
X55577Y-33933D01*
X55652Y-33952D01*
X55689Y-33970D01*
X55708Y-33989D01*
X55727Y-34026D01*
X55727Y-34401D02*
X55727Y-34439D01*
X55708Y-34476D01*
X55689Y-34495D01*
X55652Y-34514D01*
X55577Y-34533D01*
X55483Y-34533D01*
X55408Y-34514D01*
X55371Y-34495D01*
X55352Y-34476D01*
X55333Y-34439D01*
X55333Y-34401D01*
X55352Y-34364D01*
X55371Y-34345D01*
X55408Y-34326D01*
X55483Y-34308D01*
X55577Y-34308D01*
X55652Y-34326D01*
X55689Y-34345D01*
X55708Y-34364D01*
X55727Y-34401D01*
X55333Y-35001D02*
X55596Y-35001D01*
X55558Y-35001D02*
X55577Y-35020D01*
X55596Y-35058D01*
X55596Y-35114D01*
X55577Y-35151D01*
X55539Y-35170D01*
X55333Y-35170D01*
X55539Y-35170D02*
X55577Y-35189D01*
X55596Y-35226D01*
X55596Y-35283D01*
X55577Y-35320D01*
X55539Y-35339D01*
X55333Y-35339D01*
X55333Y-35526D02*
X55596Y-35526D01*
X55558Y-35526D02*
X55577Y-35545D01*
X55596Y-35583D01*
X55596Y-35639D01*
X55577Y-35676D01*
X55539Y-35695D01*
X55333Y-35695D01*
X55539Y-35695D02*
X55577Y-35714D01*
X55596Y-35751D01*
X55596Y-35808D01*
X55577Y-35845D01*
X55539Y-35864D01*
X55333Y-35864D01*
X55905Y-29133D02*
X55905Y-39370D01*
X56692Y-29133D02*
X55118Y-29133D01*
X56692Y-39370D02*
X55118Y-39370D01*
X55905Y-39370D02*
X55674Y-38926D01*
X55905Y-39370D02*
X56136Y-38926D01*
X55905Y-29133D02*
X55674Y-29577D01*
X55905Y-29133D02*
X56136Y-29577D01*
G54D10*
X56692Y-29133D02*
X66929Y-29133D01*
X56692Y-39370D02*
X56692Y-29133D01*
X66929Y-39370D02*
X56692Y-39370D01*
X66929Y-39370D02*
X66929Y-29133D01*
M02*
