G04 (created by PCBNEW (2013-04-21 BZR 4107)-testing) date Thursday, 06 June 2013 15:24:26*
%MOIN*%
G04 Gerber Fmt 3.4, Leading zero omitted, Abs format*
%FSLAX34Y34*%
G01*
G70*
G90*
G04 APERTURE LIST*
%ADD10C,0*%
%ADD11C,0.00787402*%
%ADD12C,0.00984252*%
G04 APERTURE END LIST*
G54D10*
G54D11*
X61496Y-30433D02*
X59763Y-30433D01*
X61496Y-32165D02*
X61496Y-30433D01*
X59763Y-32165D02*
X61496Y-32165D01*
X59763Y-30433D02*
X59763Y-32165D01*
X60059Y-30314D02*
X58051Y-30314D01*
X60059Y-32283D02*
X60059Y-30314D01*
X58051Y-32283D02*
X60059Y-32283D01*
X58051Y-30314D02*
X58051Y-32283D01*
G54D12*
X58586Y-26884D02*
X58586Y-27146D01*
X58492Y-26734D02*
X58398Y-27015D01*
X58642Y-27015D01*
X58792Y-27109D02*
X58811Y-27127D01*
X58792Y-27146D01*
X58773Y-27127D01*
X58792Y-27109D01*
X58792Y-27146D01*
X59055Y-26752D02*
X59092Y-26752D01*
X59130Y-26771D01*
X59148Y-26790D01*
X59167Y-26827D01*
X59186Y-26902D01*
X59186Y-26996D01*
X59167Y-27071D01*
X59148Y-27109D01*
X59130Y-27127D01*
X59092Y-27146D01*
X59055Y-27146D01*
X59017Y-27127D01*
X58998Y-27109D01*
X58980Y-27071D01*
X58961Y-26996D01*
X58961Y-26902D01*
X58980Y-26827D01*
X58998Y-26790D01*
X59017Y-26771D01*
X59055Y-26752D01*
X59430Y-26752D02*
X59467Y-26752D01*
X59505Y-26771D01*
X59523Y-26790D01*
X59542Y-26827D01*
X59561Y-26902D01*
X59561Y-26996D01*
X59542Y-27071D01*
X59523Y-27109D01*
X59505Y-27127D01*
X59467Y-27146D01*
X59430Y-27146D01*
X59392Y-27127D01*
X59373Y-27109D01*
X59355Y-27071D01*
X59336Y-26996D01*
X59336Y-26902D01*
X59355Y-26827D01*
X59373Y-26790D01*
X59392Y-26771D01*
X59430Y-26752D01*
X59805Y-26752D02*
X59842Y-26752D01*
X59880Y-26771D01*
X59898Y-26790D01*
X59917Y-26827D01*
X59936Y-26902D01*
X59936Y-26996D01*
X59917Y-27071D01*
X59898Y-27109D01*
X59880Y-27127D01*
X59842Y-27146D01*
X59805Y-27146D01*
X59767Y-27127D01*
X59748Y-27109D01*
X59730Y-27071D01*
X59711Y-26996D01*
X59711Y-26902D01*
X59730Y-26827D01*
X59748Y-26790D01*
X59767Y-26771D01*
X59805Y-26752D01*
X60404Y-27146D02*
X60404Y-26884D01*
X60404Y-26921D02*
X60423Y-26902D01*
X60461Y-26884D01*
X60517Y-26884D01*
X60554Y-26902D01*
X60573Y-26940D01*
X60573Y-27146D01*
X60573Y-26940D02*
X60592Y-26902D01*
X60629Y-26884D01*
X60686Y-26884D01*
X60723Y-26902D01*
X60742Y-26940D01*
X60742Y-27146D01*
X60929Y-27146D02*
X60929Y-26884D01*
X60929Y-26921D02*
X60948Y-26902D01*
X60986Y-26884D01*
X61042Y-26884D01*
X61079Y-26902D01*
X61098Y-26940D01*
X61098Y-27146D01*
X61098Y-26940D02*
X61117Y-26902D01*
X61154Y-26884D01*
X61211Y-26884D01*
X61248Y-26902D01*
X61267Y-26940D01*
X61267Y-27146D01*
X59055Y-27362D02*
X60629Y-27362D01*
X59055Y-31299D02*
X59055Y-26574D01*
X60629Y-31299D02*
X60629Y-26574D01*
X60629Y-27362D02*
X60186Y-27593D01*
X60629Y-27362D02*
X60186Y-27131D01*
X59055Y-27362D02*
X59498Y-27593D01*
X59055Y-27362D02*
X59498Y-27131D01*
X61192Y-27934D02*
X60967Y-27934D01*
X61079Y-27934D02*
X61079Y-27540D01*
X61042Y-27596D01*
X61004Y-27634D01*
X60967Y-27652D01*
X61436Y-27540D02*
X61473Y-27540D01*
X61511Y-27559D01*
X61529Y-27577D01*
X61548Y-27615D01*
X61567Y-27690D01*
X61567Y-27784D01*
X61548Y-27859D01*
X61529Y-27896D01*
X61511Y-27915D01*
X61473Y-27934D01*
X61436Y-27934D01*
X61398Y-27915D01*
X61379Y-27896D01*
X61361Y-27859D01*
X61342Y-27784D01*
X61342Y-27690D01*
X61361Y-27615D01*
X61379Y-27577D01*
X61398Y-27559D01*
X61436Y-27540D01*
X61736Y-27896D02*
X61754Y-27915D01*
X61736Y-27934D01*
X61717Y-27915D01*
X61736Y-27896D01*
X61736Y-27934D01*
X61998Y-27540D02*
X62035Y-27540D01*
X62073Y-27559D01*
X62092Y-27577D01*
X62110Y-27615D01*
X62129Y-27690D01*
X62129Y-27784D01*
X62110Y-27859D01*
X62092Y-27896D01*
X62073Y-27915D01*
X62035Y-27934D01*
X61998Y-27934D01*
X61961Y-27915D01*
X61942Y-27896D01*
X61923Y-27859D01*
X61904Y-27784D01*
X61904Y-27690D01*
X61923Y-27615D01*
X61942Y-27577D01*
X61961Y-27559D01*
X61998Y-27540D01*
X62373Y-27540D02*
X62410Y-27540D01*
X62448Y-27559D01*
X62467Y-27577D01*
X62485Y-27615D01*
X62504Y-27690D01*
X62504Y-27784D01*
X62485Y-27859D01*
X62467Y-27896D01*
X62448Y-27915D01*
X62410Y-27934D01*
X62373Y-27934D01*
X62335Y-27915D01*
X62317Y-27896D01*
X62298Y-27859D01*
X62279Y-27784D01*
X62279Y-27690D01*
X62298Y-27615D01*
X62317Y-27577D01*
X62335Y-27559D01*
X62373Y-27540D01*
X62748Y-27540D02*
X62785Y-27540D01*
X62823Y-27559D01*
X62842Y-27577D01*
X62860Y-27615D01*
X62879Y-27690D01*
X62879Y-27784D01*
X62860Y-27859D01*
X62842Y-27896D01*
X62823Y-27915D01*
X62785Y-27934D01*
X62748Y-27934D01*
X62710Y-27915D01*
X62692Y-27896D01*
X62673Y-27859D01*
X62654Y-27784D01*
X62654Y-27690D01*
X62673Y-27615D01*
X62692Y-27577D01*
X62710Y-27559D01*
X62748Y-27540D01*
X63348Y-27934D02*
X63348Y-27671D01*
X63348Y-27709D02*
X63367Y-27690D01*
X63404Y-27671D01*
X63460Y-27671D01*
X63498Y-27690D01*
X63517Y-27727D01*
X63517Y-27934D01*
X63517Y-27727D02*
X63535Y-27690D01*
X63573Y-27671D01*
X63629Y-27671D01*
X63667Y-27690D01*
X63685Y-27727D01*
X63685Y-27934D01*
X63873Y-27934D02*
X63873Y-27671D01*
X63873Y-27709D02*
X63892Y-27690D01*
X63929Y-27671D01*
X63985Y-27671D01*
X64023Y-27690D01*
X64041Y-27727D01*
X64041Y-27934D01*
X64041Y-27727D02*
X64060Y-27690D01*
X64098Y-27671D01*
X64154Y-27671D01*
X64191Y-27690D01*
X64210Y-27727D01*
X64210Y-27934D01*
X60629Y-28149D02*
X64566Y-28149D01*
X60629Y-31299D02*
X60629Y-27362D01*
X64566Y-31299D02*
X64566Y-27362D01*
X64566Y-28149D02*
X64123Y-28380D01*
X64566Y-28149D02*
X64123Y-27918D01*
X60629Y-28149D02*
X61073Y-28380D01*
X60629Y-28149D02*
X61073Y-27918D01*
X55680Y-27934D02*
X55455Y-27934D01*
X55568Y-27934D02*
X55568Y-27540D01*
X55530Y-27596D01*
X55493Y-27634D01*
X55455Y-27652D01*
X55924Y-27540D02*
X55961Y-27540D01*
X55999Y-27559D01*
X56017Y-27577D01*
X56036Y-27615D01*
X56055Y-27690D01*
X56055Y-27784D01*
X56036Y-27859D01*
X56017Y-27896D01*
X55999Y-27915D01*
X55961Y-27934D01*
X55924Y-27934D01*
X55886Y-27915D01*
X55868Y-27896D01*
X55849Y-27859D01*
X55830Y-27784D01*
X55830Y-27690D01*
X55849Y-27615D01*
X55868Y-27577D01*
X55886Y-27559D01*
X55924Y-27540D01*
X56224Y-27896D02*
X56242Y-27915D01*
X56224Y-27934D01*
X56205Y-27915D01*
X56224Y-27896D01*
X56224Y-27934D01*
X56486Y-27540D02*
X56524Y-27540D01*
X56561Y-27559D01*
X56580Y-27577D01*
X56599Y-27615D01*
X56617Y-27690D01*
X56617Y-27784D01*
X56599Y-27859D01*
X56580Y-27896D01*
X56561Y-27915D01*
X56524Y-27934D01*
X56486Y-27934D01*
X56449Y-27915D01*
X56430Y-27896D01*
X56411Y-27859D01*
X56392Y-27784D01*
X56392Y-27690D01*
X56411Y-27615D01*
X56430Y-27577D01*
X56449Y-27559D01*
X56486Y-27540D01*
X56861Y-27540D02*
X56899Y-27540D01*
X56936Y-27559D01*
X56955Y-27577D01*
X56974Y-27615D01*
X56992Y-27690D01*
X56992Y-27784D01*
X56974Y-27859D01*
X56955Y-27896D01*
X56936Y-27915D01*
X56899Y-27934D01*
X56861Y-27934D01*
X56824Y-27915D01*
X56805Y-27896D01*
X56786Y-27859D01*
X56767Y-27784D01*
X56767Y-27690D01*
X56786Y-27615D01*
X56805Y-27577D01*
X56824Y-27559D01*
X56861Y-27540D01*
X57236Y-27540D02*
X57274Y-27540D01*
X57311Y-27559D01*
X57330Y-27577D01*
X57349Y-27615D01*
X57367Y-27690D01*
X57367Y-27784D01*
X57349Y-27859D01*
X57330Y-27896D01*
X57311Y-27915D01*
X57274Y-27934D01*
X57236Y-27934D01*
X57199Y-27915D01*
X57180Y-27896D01*
X57161Y-27859D01*
X57142Y-27784D01*
X57142Y-27690D01*
X57161Y-27615D01*
X57180Y-27577D01*
X57199Y-27559D01*
X57236Y-27540D01*
X57836Y-27934D02*
X57836Y-27671D01*
X57836Y-27709D02*
X57855Y-27690D01*
X57892Y-27671D01*
X57949Y-27671D01*
X57986Y-27690D01*
X58005Y-27727D01*
X58005Y-27934D01*
X58005Y-27727D02*
X58023Y-27690D01*
X58061Y-27671D01*
X58117Y-27671D01*
X58155Y-27690D01*
X58173Y-27727D01*
X58173Y-27934D01*
X58361Y-27934D02*
X58361Y-27671D01*
X58361Y-27709D02*
X58380Y-27690D01*
X58417Y-27671D01*
X58473Y-27671D01*
X58511Y-27690D01*
X58530Y-27727D01*
X58530Y-27934D01*
X58530Y-27727D02*
X58548Y-27690D01*
X58586Y-27671D01*
X58642Y-27671D01*
X58680Y-27690D01*
X58698Y-27727D01*
X58698Y-27934D01*
X55118Y-28149D02*
X59055Y-28149D01*
X55118Y-31299D02*
X55118Y-27362D01*
X59055Y-31299D02*
X59055Y-27362D01*
X59055Y-28149D02*
X58611Y-28380D01*
X59055Y-28149D02*
X58611Y-27918D01*
X55118Y-28149D02*
X55561Y-28380D01*
X55118Y-28149D02*
X55561Y-27918D01*
G54D11*
X64566Y-28740D02*
X55118Y-28740D01*
X64566Y-33858D02*
X64566Y-28740D01*
X55118Y-33858D02*
X64566Y-33858D01*
X55118Y-28740D02*
X55118Y-33858D01*
G54D12*
X58211Y-34861D02*
X58230Y-34842D01*
X58267Y-34823D01*
X58361Y-34823D01*
X58398Y-34842D01*
X58417Y-34861D01*
X58436Y-34898D01*
X58436Y-34936D01*
X58417Y-34992D01*
X58192Y-35217D01*
X58436Y-35217D01*
X58773Y-34955D02*
X58773Y-35217D01*
X58680Y-34805D02*
X58586Y-35086D01*
X58830Y-35086D01*
X58980Y-35179D02*
X58998Y-35198D01*
X58980Y-35217D01*
X58961Y-35198D01*
X58980Y-35179D01*
X58980Y-35217D01*
X59242Y-34823D02*
X59280Y-34823D01*
X59317Y-34842D01*
X59336Y-34861D01*
X59355Y-34898D01*
X59373Y-34973D01*
X59373Y-35067D01*
X59355Y-35142D01*
X59336Y-35179D01*
X59317Y-35198D01*
X59280Y-35217D01*
X59242Y-35217D01*
X59205Y-35198D01*
X59186Y-35179D01*
X59167Y-35142D01*
X59148Y-35067D01*
X59148Y-34973D01*
X59167Y-34898D01*
X59186Y-34861D01*
X59205Y-34842D01*
X59242Y-34823D01*
X59617Y-34823D02*
X59655Y-34823D01*
X59692Y-34842D01*
X59711Y-34861D01*
X59730Y-34898D01*
X59748Y-34973D01*
X59748Y-35067D01*
X59730Y-35142D01*
X59711Y-35179D01*
X59692Y-35198D01*
X59655Y-35217D01*
X59617Y-35217D01*
X59580Y-35198D01*
X59561Y-35179D01*
X59542Y-35142D01*
X59523Y-35067D01*
X59523Y-34973D01*
X59542Y-34898D01*
X59561Y-34861D01*
X59580Y-34842D01*
X59617Y-34823D01*
X59992Y-34823D02*
X60029Y-34823D01*
X60067Y-34842D01*
X60086Y-34861D01*
X60104Y-34898D01*
X60123Y-34973D01*
X60123Y-35067D01*
X60104Y-35142D01*
X60086Y-35179D01*
X60067Y-35198D01*
X60029Y-35217D01*
X59992Y-35217D01*
X59955Y-35198D01*
X59936Y-35179D01*
X59917Y-35142D01*
X59898Y-35067D01*
X59898Y-34973D01*
X59917Y-34898D01*
X59936Y-34861D01*
X59955Y-34842D01*
X59992Y-34823D01*
X60592Y-35217D02*
X60592Y-34955D01*
X60592Y-34992D02*
X60611Y-34973D01*
X60648Y-34955D01*
X60704Y-34955D01*
X60742Y-34973D01*
X60761Y-35011D01*
X60761Y-35217D01*
X60761Y-35011D02*
X60779Y-34973D01*
X60817Y-34955D01*
X60873Y-34955D01*
X60911Y-34973D01*
X60929Y-35011D01*
X60929Y-35217D01*
X61117Y-35217D02*
X61117Y-34955D01*
X61117Y-34992D02*
X61136Y-34973D01*
X61173Y-34955D01*
X61229Y-34955D01*
X61267Y-34973D01*
X61286Y-35011D01*
X61286Y-35217D01*
X61286Y-35011D02*
X61304Y-34973D01*
X61342Y-34955D01*
X61398Y-34955D01*
X61436Y-34973D01*
X61454Y-35011D01*
X61454Y-35217D01*
X55118Y-34645D02*
X64566Y-34645D01*
X55118Y-33858D02*
X55118Y-35433D01*
X64566Y-33858D02*
X64566Y-35433D01*
X64566Y-34645D02*
X64123Y-34876D01*
X64566Y-34645D02*
X64123Y-34414D01*
X55118Y-34645D02*
X55561Y-34876D01*
X55118Y-34645D02*
X55561Y-34414D01*
X53758Y-29893D02*
X53758Y-29668D01*
X53758Y-29780D02*
X54152Y-29780D01*
X54096Y-29743D01*
X54058Y-29705D01*
X54040Y-29668D01*
X54152Y-30024D02*
X54152Y-30268D01*
X54002Y-30136D01*
X54002Y-30193D01*
X53983Y-30230D01*
X53965Y-30249D01*
X53927Y-30268D01*
X53833Y-30268D01*
X53796Y-30249D01*
X53777Y-30230D01*
X53758Y-30193D01*
X53758Y-30080D01*
X53777Y-30043D01*
X53796Y-30024D01*
X53796Y-30436D02*
X53777Y-30455D01*
X53758Y-30436D01*
X53777Y-30418D01*
X53796Y-30436D01*
X53758Y-30436D01*
X54152Y-30699D02*
X54152Y-30736D01*
X54133Y-30774D01*
X54115Y-30793D01*
X54077Y-30811D01*
X54002Y-30830D01*
X53908Y-30830D01*
X53833Y-30811D01*
X53796Y-30793D01*
X53777Y-30774D01*
X53758Y-30736D01*
X53758Y-30699D01*
X53777Y-30661D01*
X53796Y-30643D01*
X53833Y-30624D01*
X53908Y-30605D01*
X54002Y-30605D01*
X54077Y-30624D01*
X54115Y-30643D01*
X54133Y-30661D01*
X54152Y-30699D01*
X54152Y-31074D02*
X54152Y-31111D01*
X54133Y-31149D01*
X54115Y-31167D01*
X54077Y-31186D01*
X54002Y-31205D01*
X53908Y-31205D01*
X53833Y-31186D01*
X53796Y-31167D01*
X53777Y-31149D01*
X53758Y-31111D01*
X53758Y-31074D01*
X53777Y-31036D01*
X53796Y-31017D01*
X53833Y-30999D01*
X53908Y-30980D01*
X54002Y-30980D01*
X54077Y-30999D01*
X54115Y-31017D01*
X54133Y-31036D01*
X54152Y-31074D01*
X54152Y-31449D02*
X54152Y-31486D01*
X54133Y-31524D01*
X54115Y-31542D01*
X54077Y-31561D01*
X54002Y-31580D01*
X53908Y-31580D01*
X53833Y-31561D01*
X53796Y-31542D01*
X53777Y-31524D01*
X53758Y-31486D01*
X53758Y-31449D01*
X53777Y-31411D01*
X53796Y-31392D01*
X53833Y-31374D01*
X53908Y-31355D01*
X54002Y-31355D01*
X54077Y-31374D01*
X54115Y-31392D01*
X54133Y-31411D01*
X54152Y-31449D01*
X53758Y-32049D02*
X54021Y-32049D01*
X53983Y-32049D02*
X54002Y-32067D01*
X54021Y-32105D01*
X54021Y-32161D01*
X54002Y-32199D01*
X53965Y-32217D01*
X53758Y-32217D01*
X53965Y-32217D02*
X54002Y-32236D01*
X54021Y-32274D01*
X54021Y-32330D01*
X54002Y-32367D01*
X53965Y-32386D01*
X53758Y-32386D01*
X53758Y-32574D02*
X54021Y-32574D01*
X53983Y-32574D02*
X54002Y-32592D01*
X54021Y-32630D01*
X54021Y-32686D01*
X54002Y-32724D01*
X53965Y-32742D01*
X53758Y-32742D01*
X53965Y-32742D02*
X54002Y-32761D01*
X54021Y-32799D01*
X54021Y-32855D01*
X54002Y-32892D01*
X53965Y-32911D01*
X53758Y-32911D01*
X54330Y-28740D02*
X54330Y-33858D01*
X55118Y-28740D02*
X53543Y-28740D01*
X55118Y-33858D02*
X53543Y-33858D01*
X54330Y-33858D02*
X54099Y-33414D01*
X54330Y-33858D02*
X54561Y-33414D01*
X54330Y-28740D02*
X54099Y-29183D01*
X54330Y-28740D02*
X54561Y-29183D01*
M02*
