G04 (created by PCBNEW (2013-04-21 BZR 4107)-testing) date Thursday, 06 June 2013 15:24:26*
%MOIN*%
G04 Gerber Fmt 3.4, Leading zero omitted, Abs format*
%FSLAX34Y34*%
G01*
G70*
G90*
G04 APERTURE LIST*
%ADD10C,0*%
%ADD11R,0.00984252X0.0433071*%
%ADD12R,0.00905512X0.0314961*%
%ADD13R,0.0393701X0.0393701*%
%ADD14R,0.04X0.05*%
%ADD15C,0.0393701*%
%ADD16C,0.0393701*%
%ADD17C,0.00905512*%
%ADD18C,0.00984252*%
%ADD19C,0.0295276*%
%ADD20C,0.01*%
G04 APERTURE END LIST*
G54D10*
G54D11*
X59251Y-30216D03*
X59448Y-30216D03*
X59055Y-30216D03*
X58858Y-30216D03*
X58661Y-30216D03*
X58661Y-32381D03*
X58858Y-32381D03*
X59055Y-32381D03*
X59251Y-32381D03*
X59448Y-32381D03*
G54D12*
X60787Y-30354D03*
X60944Y-30354D03*
X60629Y-30354D03*
X60472Y-30354D03*
X60314Y-30354D03*
X60314Y-32244D03*
X60472Y-32244D03*
X60629Y-32244D03*
X60787Y-32244D03*
X60944Y-32244D03*
G54D13*
X59960Y-30393D03*
X59960Y-32204D03*
X61299Y-30393D03*
X61299Y-32204D03*
G54D14*
X62101Y-30314D03*
X62701Y-30314D03*
X57583Y-33267D03*
X56983Y-33267D03*
X62101Y-32283D03*
X62701Y-32283D03*
X57583Y-30314D03*
X56983Y-30314D03*
X62101Y-29330D03*
X62701Y-29330D03*
X62101Y-33267D03*
X62701Y-33267D03*
X57583Y-29330D03*
X56983Y-29330D03*
X57583Y-32283D03*
X56983Y-32283D03*
G54D15*
X56692Y-31496D03*
X55413Y-33562D03*
X57185Y-31299D03*
X55413Y-29035D03*
X62500Y-31299D03*
X64271Y-33562D03*
X62992Y-31102D03*
X64271Y-29035D03*
G54D16*
X62101Y-30314D02*
X62101Y-29330D01*
G54D17*
X60944Y-30354D02*
X60944Y-29330D01*
X60787Y-30354D02*
X60787Y-29330D01*
X60629Y-30354D02*
X60629Y-29330D01*
X60472Y-30354D02*
X60472Y-29330D01*
X60314Y-30354D02*
X60314Y-29330D01*
X60314Y-29330D02*
X60334Y-29330D01*
G54D18*
X59448Y-30216D02*
X59448Y-29330D01*
X59251Y-30216D02*
X59251Y-29330D01*
X59055Y-30216D02*
X59055Y-29330D01*
X58858Y-30216D02*
X58858Y-29330D01*
X58661Y-30216D02*
X58661Y-29330D01*
G54D16*
X57583Y-29330D02*
X58661Y-29330D01*
X58661Y-29330D02*
X58858Y-29330D01*
X58858Y-29330D02*
X59055Y-29330D01*
X59055Y-29330D02*
X59251Y-29330D01*
X59251Y-29330D02*
X59448Y-29330D01*
X59448Y-29330D02*
X60334Y-29330D01*
X60334Y-29330D02*
X60472Y-29330D01*
X60472Y-29330D02*
X60629Y-29330D01*
X60629Y-29330D02*
X60787Y-29330D01*
X60787Y-29330D02*
X60944Y-29330D01*
X60944Y-29330D02*
X62101Y-29330D01*
G54D19*
X56692Y-31496D02*
X56692Y-30605D01*
X56692Y-30605D02*
X56983Y-30314D01*
X56983Y-33267D02*
X55708Y-33267D01*
X55708Y-33267D02*
X55413Y-33562D01*
X56983Y-32283D02*
X56983Y-31894D01*
X57185Y-31692D02*
X57185Y-31299D01*
X56983Y-31894D02*
X57185Y-31692D01*
X55708Y-29330D02*
X55413Y-29035D01*
X56983Y-29330D02*
X55708Y-29330D01*
X62500Y-31299D02*
X62500Y-30905D01*
X62500Y-30905D02*
X62701Y-30703D01*
X62701Y-30703D02*
X62701Y-30314D01*
X63976Y-33267D02*
X64271Y-33562D01*
X62701Y-33267D02*
X63976Y-33267D01*
X62992Y-31102D02*
X62992Y-31992D01*
X62992Y-31992D02*
X62701Y-32283D01*
X62701Y-29330D02*
X63976Y-29330D01*
X63976Y-29330D02*
X64271Y-29035D01*
G54D16*
X62101Y-32283D02*
X62101Y-33267D01*
G54D17*
X60944Y-32244D02*
X60944Y-33267D01*
X60787Y-32244D02*
X60787Y-33267D01*
X60629Y-32244D02*
X60629Y-33267D01*
X60472Y-32244D02*
X60472Y-33267D01*
X60314Y-32244D02*
X60314Y-33267D01*
G54D18*
X59448Y-32381D02*
X59448Y-33267D01*
X59251Y-32381D02*
X59251Y-33267D01*
G54D16*
X57583Y-33267D02*
X58661Y-33267D01*
X58661Y-33267D02*
X58858Y-33267D01*
X58858Y-33267D02*
X59055Y-33267D01*
X59055Y-33267D02*
X59251Y-33267D01*
X59251Y-33267D02*
X59448Y-33267D01*
X59448Y-33267D02*
X60314Y-33267D01*
X60314Y-33267D02*
X60472Y-33267D01*
X60472Y-33267D02*
X60629Y-33267D01*
X60629Y-33267D02*
X60787Y-33267D01*
X60787Y-33267D02*
X60944Y-33267D01*
X60944Y-33267D02*
X62101Y-33267D01*
G54D18*
X59055Y-32381D02*
X59055Y-33267D01*
X58858Y-32381D02*
X58858Y-33267D01*
X58661Y-32381D02*
X58661Y-33267D01*
G54D10*
G36*
X62594Y-31783D02*
X62451Y-31783D01*
X62359Y-31821D01*
X62289Y-31891D01*
X62251Y-31983D01*
X62251Y-32083D01*
X62251Y-32583D01*
X62289Y-32675D01*
X62359Y-32745D01*
X62432Y-32775D01*
X62359Y-32805D01*
X62289Y-32876D01*
X62251Y-32967D01*
X62251Y-33067D01*
X62251Y-33567D01*
X62256Y-33578D01*
X57428Y-33578D01*
X57433Y-33567D01*
X57433Y-33467D01*
X57433Y-32967D01*
X57395Y-32876D01*
X57325Y-32805D01*
X57252Y-32775D01*
X57325Y-32745D01*
X57395Y-32675D01*
X57433Y-32583D01*
X57433Y-32483D01*
X57433Y-32006D01*
X57466Y-31974D01*
X57552Y-31845D01*
X57582Y-31692D01*
X57582Y-31546D01*
X57824Y-31546D01*
X57824Y-32727D01*
X61861Y-32727D01*
X61861Y-31546D01*
X62118Y-31546D01*
X62120Y-31552D01*
X62246Y-31677D01*
X62410Y-31745D01*
X62588Y-31746D01*
X62594Y-31743D01*
X62594Y-31783D01*
X62594Y-31783D01*
G37*
G54D20*
X62594Y-31783D02*
X62451Y-31783D01*
X62359Y-31821D01*
X62289Y-31891D01*
X62251Y-31983D01*
X62251Y-32083D01*
X62251Y-32583D01*
X62289Y-32675D01*
X62359Y-32745D01*
X62432Y-32775D01*
X62359Y-32805D01*
X62289Y-32876D01*
X62251Y-32967D01*
X62251Y-33067D01*
X62251Y-33567D01*
X62256Y-33578D01*
X57428Y-33578D01*
X57433Y-33567D01*
X57433Y-33467D01*
X57433Y-32967D01*
X57395Y-32876D01*
X57325Y-32805D01*
X57252Y-32775D01*
X57325Y-32745D01*
X57395Y-32675D01*
X57433Y-32583D01*
X57433Y-32483D01*
X57433Y-32006D01*
X57466Y-31974D01*
X57552Y-31845D01*
X57582Y-31692D01*
X57582Y-31546D01*
X57824Y-31546D01*
X57824Y-32727D01*
X61861Y-32727D01*
X61861Y-31546D01*
X62118Y-31546D01*
X62120Y-31552D01*
X62246Y-31677D01*
X62410Y-31745D01*
X62588Y-31746D01*
X62594Y-31743D01*
X62594Y-31783D01*
G54D10*
G36*
X62432Y-29822D02*
X62359Y-29853D01*
X62289Y-29923D01*
X62251Y-30015D01*
X62251Y-30114D01*
X62251Y-30591D01*
X62218Y-30624D01*
X62132Y-30753D01*
X62102Y-30905D01*
X62102Y-31052D01*
X61861Y-31052D01*
X61861Y-29871D01*
X57824Y-29871D01*
X57824Y-31052D01*
X57566Y-31052D01*
X57564Y-31046D01*
X57438Y-30920D01*
X57274Y-30852D01*
X57096Y-30852D01*
X57090Y-30854D01*
X57090Y-30814D01*
X57233Y-30814D01*
X57325Y-30776D01*
X57395Y-30706D01*
X57433Y-30614D01*
X57433Y-30515D01*
X57433Y-30015D01*
X57395Y-29923D01*
X57325Y-29853D01*
X57252Y-29822D01*
X57325Y-29792D01*
X57395Y-29722D01*
X57433Y-29630D01*
X57433Y-29530D01*
X57433Y-29030D01*
X57428Y-29019D01*
X62256Y-29019D01*
X62251Y-29030D01*
X62251Y-29130D01*
X62251Y-29630D01*
X62289Y-29722D01*
X62359Y-29792D01*
X62432Y-29822D01*
X62432Y-29822D01*
G37*
G54D20*
X62432Y-29822D02*
X62359Y-29853D01*
X62289Y-29923D01*
X62251Y-30015D01*
X62251Y-30114D01*
X62251Y-30591D01*
X62218Y-30624D01*
X62132Y-30753D01*
X62102Y-30905D01*
X62102Y-31052D01*
X61861Y-31052D01*
X61861Y-29871D01*
X57824Y-29871D01*
X57824Y-31052D01*
X57566Y-31052D01*
X57564Y-31046D01*
X57438Y-30920D01*
X57274Y-30852D01*
X57096Y-30852D01*
X57090Y-30854D01*
X57090Y-30814D01*
X57233Y-30814D01*
X57325Y-30776D01*
X57395Y-30706D01*
X57433Y-30614D01*
X57433Y-30515D01*
X57433Y-30015D01*
X57395Y-29923D01*
X57325Y-29853D01*
X57252Y-29822D01*
X57325Y-29792D01*
X57395Y-29722D01*
X57433Y-29630D01*
X57433Y-29530D01*
X57433Y-29030D01*
X57428Y-29019D01*
X62256Y-29019D01*
X62251Y-29030D01*
X62251Y-29130D01*
X62251Y-29630D01*
X62289Y-29722D01*
X62359Y-29792D01*
X62432Y-29822D01*
M02*
