G04 (created by PCBNEW (2013-04-21 BZR 4107)-testing) date Thursday, 06 June 2013 15:24:26*
%MOIN*%
G04 Gerber Fmt 3.4, Leading zero omitted, Abs format*
%FSLAX34Y34*%
G01*
G70*
G90*
G04 APERTURE LIST*
%ADD10C,0*%
%ADD11C,0.00984252*%
%ADD12C,0.00590551*%
%ADD13C,0.006*%
G04 APERTURE END LIST*
G54D10*
G54D11*
X64266Y-33642D02*
X64378Y-33342D01*
X64491Y-33642D01*
X64266Y-33155D02*
X64378Y-32855D01*
X64491Y-33155D01*
X64266Y-32667D02*
X64378Y-32367D01*
X64491Y-32667D01*
X64266Y-32180D02*
X64378Y-31880D01*
X64491Y-32180D01*
X64266Y-31692D02*
X64378Y-31392D01*
X64491Y-31692D01*
X64266Y-31205D02*
X64378Y-30905D01*
X64491Y-31205D01*
X64266Y-30718D02*
X64378Y-30418D01*
X64491Y-30718D01*
X64266Y-30230D02*
X64378Y-29930D01*
X64491Y-30230D01*
X64266Y-29743D02*
X64378Y-29443D01*
X64491Y-29743D01*
X64266Y-29255D02*
X64378Y-28955D01*
X64491Y-29255D01*
X55230Y-33642D02*
X55343Y-33342D01*
X55455Y-33642D01*
X55230Y-33155D02*
X55343Y-32855D01*
X55455Y-33155D01*
X55230Y-32667D02*
X55343Y-32367D01*
X55455Y-32667D01*
X55230Y-32180D02*
X55343Y-31880D01*
X55455Y-32180D01*
X55230Y-31692D02*
X55343Y-31392D01*
X55455Y-31692D01*
X55230Y-31205D02*
X55343Y-30905D01*
X55455Y-31205D01*
X55230Y-30718D02*
X55343Y-30418D01*
X55455Y-30718D01*
X55230Y-30230D02*
X55343Y-29930D01*
X55455Y-30230D01*
X55230Y-29743D02*
X55343Y-29443D01*
X55455Y-29743D01*
X55230Y-29255D02*
X55343Y-28955D01*
X55455Y-29255D01*
G54D12*
X57874Y-32736D02*
X58326Y-32736D01*
X58326Y-32736D02*
X58326Y-33366D01*
X58326Y-33366D02*
X57874Y-33366D01*
X55905Y-33366D02*
X57874Y-33366D01*
X57874Y-33366D02*
X57874Y-31397D01*
X57874Y-31397D02*
X55905Y-31397D01*
X55905Y-31397D02*
X55905Y-33366D01*
X60826Y-32736D02*
X61279Y-32736D01*
X61279Y-32736D02*
X61279Y-33366D01*
X61279Y-33366D02*
X60826Y-33366D01*
X58858Y-33366D02*
X60826Y-33366D01*
X60826Y-33366D02*
X60826Y-31397D01*
X60826Y-31397D02*
X58858Y-31397D01*
X58858Y-31397D02*
X58858Y-33366D01*
X63779Y-32736D02*
X64232Y-32736D01*
X64232Y-32736D02*
X64232Y-33366D01*
X64232Y-33366D02*
X63779Y-33366D01*
X61811Y-33366D02*
X63779Y-33366D01*
X63779Y-33366D02*
X63779Y-31397D01*
X63779Y-31397D02*
X61811Y-31397D01*
X61811Y-31397D02*
X61811Y-33366D01*
X57874Y-30570D02*
X58326Y-30570D01*
X58326Y-30570D02*
X58326Y-31200D01*
X58326Y-31200D02*
X57874Y-31200D01*
X55905Y-31200D02*
X57874Y-31200D01*
X57874Y-31200D02*
X57874Y-29232D01*
X57874Y-29232D02*
X55905Y-29232D01*
X55905Y-29232D02*
X55905Y-31200D01*
X60826Y-30570D02*
X61279Y-30570D01*
X61279Y-30570D02*
X61279Y-31200D01*
X61279Y-31200D02*
X60826Y-31200D01*
X58858Y-31200D02*
X60826Y-31200D01*
X60826Y-31200D02*
X60826Y-29232D01*
X60826Y-29232D02*
X58858Y-29232D01*
X58858Y-29232D02*
X58858Y-31200D01*
X63779Y-30570D02*
X64232Y-30570D01*
X64232Y-30570D02*
X64232Y-31200D01*
X64232Y-31200D02*
X63779Y-31200D01*
X61811Y-31200D02*
X63779Y-31200D01*
X63779Y-31200D02*
X63779Y-29232D01*
X63779Y-29232D02*
X61811Y-29232D01*
X61811Y-29232D02*
X61811Y-31200D01*
G54D13*
X56382Y-33797D02*
X56382Y-33497D01*
X56454Y-33497D01*
X56496Y-33511D01*
X56525Y-33539D01*
X56539Y-33568D01*
X56554Y-33625D01*
X56554Y-33668D01*
X56539Y-33725D01*
X56525Y-33754D01*
X56496Y-33782D01*
X56454Y-33797D01*
X56382Y-33797D01*
X56839Y-33797D02*
X56668Y-33797D01*
X56754Y-33797D02*
X56754Y-33497D01*
X56725Y-33539D01*
X56696Y-33568D01*
X56668Y-33582D01*
X57025Y-33497D02*
X57054Y-33497D01*
X57082Y-33511D01*
X57096Y-33525D01*
X57111Y-33554D01*
X57125Y-33611D01*
X57125Y-33682D01*
X57111Y-33739D01*
X57096Y-33768D01*
X57082Y-33782D01*
X57054Y-33797D01*
X57025Y-33797D01*
X56996Y-33782D01*
X56982Y-33768D01*
X56968Y-33739D01*
X56954Y-33682D01*
X56954Y-33611D01*
X56968Y-33554D01*
X56982Y-33525D01*
X56996Y-33511D01*
X57025Y-33497D01*
X57411Y-33797D02*
X57239Y-33797D01*
X57325Y-33797D02*
X57325Y-33497D01*
X57296Y-33539D01*
X57268Y-33568D01*
X57239Y-33582D01*
X59335Y-33797D02*
X59335Y-33497D01*
X59406Y-33497D01*
X59449Y-33511D01*
X59478Y-33539D01*
X59492Y-33568D01*
X59506Y-33625D01*
X59506Y-33668D01*
X59492Y-33725D01*
X59478Y-33754D01*
X59449Y-33782D01*
X59406Y-33797D01*
X59335Y-33797D01*
X59792Y-33797D02*
X59621Y-33797D01*
X59706Y-33797D02*
X59706Y-33497D01*
X59678Y-33539D01*
X59649Y-33568D01*
X59621Y-33582D01*
X59978Y-33497D02*
X60006Y-33497D01*
X60035Y-33511D01*
X60049Y-33525D01*
X60063Y-33554D01*
X60078Y-33611D01*
X60078Y-33682D01*
X60063Y-33739D01*
X60049Y-33768D01*
X60035Y-33782D01*
X60006Y-33797D01*
X59978Y-33797D01*
X59949Y-33782D01*
X59935Y-33768D01*
X59921Y-33739D01*
X59906Y-33682D01*
X59906Y-33611D01*
X59921Y-33554D01*
X59935Y-33525D01*
X59949Y-33511D01*
X59978Y-33497D01*
X60192Y-33525D02*
X60206Y-33511D01*
X60235Y-33497D01*
X60306Y-33497D01*
X60335Y-33511D01*
X60349Y-33525D01*
X60363Y-33554D01*
X60363Y-33582D01*
X60349Y-33625D01*
X60178Y-33797D01*
X60363Y-33797D01*
X62288Y-33797D02*
X62288Y-33497D01*
X62359Y-33497D01*
X62402Y-33511D01*
X62430Y-33539D01*
X62445Y-33568D01*
X62459Y-33625D01*
X62459Y-33668D01*
X62445Y-33725D01*
X62430Y-33754D01*
X62402Y-33782D01*
X62359Y-33797D01*
X62288Y-33797D01*
X62745Y-33797D02*
X62573Y-33797D01*
X62659Y-33797D02*
X62659Y-33497D01*
X62630Y-33539D01*
X62602Y-33568D01*
X62573Y-33582D01*
X62930Y-33497D02*
X62959Y-33497D01*
X62988Y-33511D01*
X63002Y-33525D01*
X63016Y-33554D01*
X63030Y-33611D01*
X63030Y-33682D01*
X63016Y-33739D01*
X63002Y-33768D01*
X62988Y-33782D01*
X62959Y-33797D01*
X62930Y-33797D01*
X62902Y-33782D01*
X62888Y-33768D01*
X62873Y-33739D01*
X62859Y-33682D01*
X62859Y-33611D01*
X62873Y-33554D01*
X62888Y-33525D01*
X62902Y-33511D01*
X62930Y-33497D01*
X63130Y-33497D02*
X63316Y-33497D01*
X63216Y-33611D01*
X63259Y-33611D01*
X63288Y-33625D01*
X63302Y-33639D01*
X63316Y-33668D01*
X63316Y-33739D01*
X63302Y-33768D01*
X63288Y-33782D01*
X63259Y-33797D01*
X63173Y-33797D01*
X63145Y-33782D01*
X63130Y-33768D01*
X56382Y-29171D02*
X56382Y-28871D01*
X56454Y-28871D01*
X56496Y-28885D01*
X56525Y-28914D01*
X56539Y-28942D01*
X56554Y-28999D01*
X56554Y-29042D01*
X56539Y-29099D01*
X56525Y-29128D01*
X56496Y-29156D01*
X56454Y-29171D01*
X56382Y-29171D01*
X56839Y-29171D02*
X56668Y-29171D01*
X56754Y-29171D02*
X56754Y-28871D01*
X56725Y-28914D01*
X56696Y-28942D01*
X56668Y-28956D01*
X57025Y-28871D02*
X57054Y-28871D01*
X57082Y-28885D01*
X57096Y-28899D01*
X57111Y-28928D01*
X57125Y-28985D01*
X57125Y-29056D01*
X57111Y-29114D01*
X57096Y-29142D01*
X57082Y-29156D01*
X57054Y-29171D01*
X57025Y-29171D01*
X56996Y-29156D01*
X56982Y-29142D01*
X56968Y-29114D01*
X56954Y-29056D01*
X56954Y-28985D01*
X56968Y-28928D01*
X56982Y-28899D01*
X56996Y-28885D01*
X57025Y-28871D01*
X57382Y-28971D02*
X57382Y-29171D01*
X57311Y-28856D02*
X57239Y-29071D01*
X57425Y-29071D01*
X59335Y-29171D02*
X59335Y-28871D01*
X59406Y-28871D01*
X59449Y-28885D01*
X59478Y-28914D01*
X59492Y-28942D01*
X59506Y-28999D01*
X59506Y-29042D01*
X59492Y-29099D01*
X59478Y-29128D01*
X59449Y-29156D01*
X59406Y-29171D01*
X59335Y-29171D01*
X59792Y-29171D02*
X59621Y-29171D01*
X59706Y-29171D02*
X59706Y-28871D01*
X59678Y-28914D01*
X59649Y-28942D01*
X59621Y-28956D01*
X59978Y-28871D02*
X60006Y-28871D01*
X60035Y-28885D01*
X60049Y-28899D01*
X60063Y-28928D01*
X60078Y-28985D01*
X60078Y-29056D01*
X60063Y-29114D01*
X60049Y-29142D01*
X60035Y-29156D01*
X60006Y-29171D01*
X59978Y-29171D01*
X59949Y-29156D01*
X59935Y-29142D01*
X59921Y-29114D01*
X59906Y-29056D01*
X59906Y-28985D01*
X59921Y-28928D01*
X59935Y-28899D01*
X59949Y-28885D01*
X59978Y-28871D01*
X60349Y-28871D02*
X60206Y-28871D01*
X60192Y-29014D01*
X60206Y-28999D01*
X60235Y-28985D01*
X60306Y-28985D01*
X60335Y-28999D01*
X60349Y-29014D01*
X60363Y-29042D01*
X60363Y-29114D01*
X60349Y-29142D01*
X60335Y-29156D01*
X60306Y-29171D01*
X60235Y-29171D01*
X60206Y-29156D01*
X60192Y-29142D01*
X62288Y-29171D02*
X62288Y-28871D01*
X62359Y-28871D01*
X62402Y-28885D01*
X62430Y-28914D01*
X62445Y-28942D01*
X62459Y-28999D01*
X62459Y-29042D01*
X62445Y-29099D01*
X62430Y-29128D01*
X62402Y-29156D01*
X62359Y-29171D01*
X62288Y-29171D01*
X62745Y-29171D02*
X62573Y-29171D01*
X62659Y-29171D02*
X62659Y-28871D01*
X62630Y-28914D01*
X62602Y-28942D01*
X62573Y-28956D01*
X62930Y-28871D02*
X62959Y-28871D01*
X62988Y-28885D01*
X63002Y-28899D01*
X63016Y-28928D01*
X63030Y-28985D01*
X63030Y-29056D01*
X63016Y-29114D01*
X63002Y-29142D01*
X62988Y-29156D01*
X62959Y-29171D01*
X62930Y-29171D01*
X62902Y-29156D01*
X62888Y-29142D01*
X62873Y-29114D01*
X62859Y-29056D01*
X62859Y-28985D01*
X62873Y-28928D01*
X62888Y-28899D01*
X62902Y-28885D01*
X62930Y-28871D01*
X63288Y-28871D02*
X63230Y-28871D01*
X63202Y-28885D01*
X63188Y-28899D01*
X63159Y-28942D01*
X63145Y-28999D01*
X63145Y-29114D01*
X63159Y-29142D01*
X63173Y-29156D01*
X63202Y-29171D01*
X63259Y-29171D01*
X63288Y-29156D01*
X63302Y-29142D01*
X63316Y-29114D01*
X63316Y-29042D01*
X63302Y-29014D01*
X63288Y-28999D01*
X63259Y-28985D01*
X63202Y-28985D01*
X63173Y-28999D01*
X63159Y-29014D01*
X63145Y-29042D01*
M02*
