G04 (created by PCBNEW (2013-04-21 BZR 4107)-testing) date Thursday, 06 June 2013 15:24:26*
%MOIN*%
G04 Gerber Fmt 3.4, Leading zero omitted, Abs format*
%FSLAX34Y34*%
G01*
G70*
G90*
G04 APERTURE LIST*
%ADD10C,0*%
%ADD11C,0.00787402*%
%ADD12C,0.00492126*%
%ADD13C,0.00738189*%
%ADD14C,0.00590551*%
%ADD15C,0.005*%
%ADD16C,0.006*%
G04 APERTURE END LIST*
G54D10*
G54D11*
X56397Y-30019D02*
X55314Y-30019D01*
X56397Y-32578D02*
X56397Y-30019D01*
X55314Y-32578D02*
X56397Y-32578D01*
X55314Y-30019D02*
X55314Y-32578D01*
G54D12*
X55600Y-30446D02*
X55404Y-30446D01*
X55404Y-30493D01*
X55413Y-30521D01*
X55432Y-30539D01*
X55450Y-30549D01*
X55488Y-30558D01*
X55516Y-30558D01*
X55553Y-30549D01*
X55572Y-30539D01*
X55591Y-30521D01*
X55600Y-30493D01*
X55600Y-30446D01*
X55591Y-30718D02*
X55600Y-30699D01*
X55600Y-30661D01*
X55591Y-30643D01*
X55572Y-30633D01*
X55497Y-30633D01*
X55479Y-30643D01*
X55469Y-30661D01*
X55469Y-30699D01*
X55479Y-30718D01*
X55497Y-30727D01*
X55516Y-30727D01*
X55535Y-30633D01*
X55591Y-30802D02*
X55600Y-30821D01*
X55600Y-30858D01*
X55591Y-30877D01*
X55572Y-30886D01*
X55563Y-30886D01*
X55544Y-30877D01*
X55535Y-30858D01*
X55535Y-30830D01*
X55525Y-30811D01*
X55507Y-30802D01*
X55497Y-30802D01*
X55479Y-30811D01*
X55469Y-30830D01*
X55469Y-30858D01*
X55479Y-30877D01*
X55600Y-30971D02*
X55469Y-30971D01*
X55404Y-30971D02*
X55413Y-30961D01*
X55422Y-30971D01*
X55413Y-30980D01*
X55404Y-30971D01*
X55422Y-30971D01*
X55469Y-31149D02*
X55628Y-31149D01*
X55647Y-31139D01*
X55657Y-31130D01*
X55666Y-31111D01*
X55666Y-31083D01*
X55657Y-31064D01*
X55591Y-31149D02*
X55600Y-31130D01*
X55600Y-31092D01*
X55591Y-31074D01*
X55582Y-31064D01*
X55563Y-31055D01*
X55507Y-31055D01*
X55488Y-31064D01*
X55479Y-31074D01*
X55469Y-31092D01*
X55469Y-31130D01*
X55479Y-31149D01*
X55469Y-31242D02*
X55600Y-31242D01*
X55488Y-31242D02*
X55479Y-31252D01*
X55469Y-31271D01*
X55469Y-31299D01*
X55479Y-31317D01*
X55497Y-31327D01*
X55600Y-31327D01*
X55591Y-31496D02*
X55600Y-31477D01*
X55600Y-31439D01*
X55591Y-31421D01*
X55572Y-31411D01*
X55497Y-31411D01*
X55479Y-31421D01*
X55469Y-31439D01*
X55469Y-31477D01*
X55479Y-31496D01*
X55497Y-31505D01*
X55516Y-31505D01*
X55535Y-31411D01*
X55600Y-31674D02*
X55404Y-31674D01*
X55591Y-31674D02*
X55600Y-31655D01*
X55600Y-31617D01*
X55591Y-31599D01*
X55582Y-31589D01*
X55563Y-31580D01*
X55507Y-31580D01*
X55488Y-31589D01*
X55479Y-31599D01*
X55469Y-31617D01*
X55469Y-31655D01*
X55479Y-31674D01*
X55600Y-31917D02*
X55404Y-31917D01*
X55479Y-31917D02*
X55469Y-31936D01*
X55469Y-31974D01*
X55479Y-31992D01*
X55488Y-32002D01*
X55507Y-32011D01*
X55563Y-32011D01*
X55582Y-32002D01*
X55591Y-31992D01*
X55600Y-31974D01*
X55600Y-31936D01*
X55591Y-31917D01*
X55469Y-32077D02*
X55600Y-32124D01*
X55469Y-32170D02*
X55600Y-32124D01*
X55647Y-32105D01*
X55657Y-32095D01*
X55666Y-32077D01*
X55925Y-30146D02*
X55728Y-30146D01*
X55925Y-30258D01*
X55728Y-30258D01*
X55822Y-30418D02*
X55831Y-30446D01*
X55841Y-30455D01*
X55860Y-30464D01*
X55888Y-30464D01*
X55906Y-30455D01*
X55916Y-30446D01*
X55925Y-30427D01*
X55925Y-30352D01*
X55728Y-30352D01*
X55728Y-30418D01*
X55738Y-30436D01*
X55747Y-30446D01*
X55766Y-30455D01*
X55785Y-30455D01*
X55803Y-30446D01*
X55813Y-30436D01*
X55822Y-30418D01*
X55822Y-30352D01*
X55822Y-30549D02*
X55822Y-30614D01*
X55925Y-30643D02*
X55925Y-30549D01*
X55728Y-30549D01*
X55728Y-30643D01*
X55822Y-30727D02*
X55822Y-30793D01*
X55925Y-30821D02*
X55925Y-30727D01*
X55728Y-30727D01*
X55728Y-30821D01*
X55822Y-31055D02*
X55822Y-31121D01*
X55925Y-31149D02*
X55925Y-31055D01*
X55728Y-31055D01*
X55728Y-31149D01*
X55925Y-31233D02*
X55794Y-31233D01*
X55813Y-31233D02*
X55803Y-31242D01*
X55794Y-31261D01*
X55794Y-31289D01*
X55803Y-31308D01*
X55822Y-31317D01*
X55925Y-31317D01*
X55822Y-31317D02*
X55803Y-31327D01*
X55794Y-31346D01*
X55794Y-31374D01*
X55803Y-31392D01*
X55822Y-31402D01*
X55925Y-31402D01*
X55925Y-31496D02*
X55728Y-31496D01*
X55803Y-31496D02*
X55794Y-31514D01*
X55794Y-31552D01*
X55803Y-31571D01*
X55813Y-31580D01*
X55831Y-31589D01*
X55888Y-31589D01*
X55906Y-31580D01*
X55916Y-31571D01*
X55925Y-31552D01*
X55925Y-31514D01*
X55916Y-31496D01*
X55916Y-31749D02*
X55925Y-31730D01*
X55925Y-31692D01*
X55916Y-31674D01*
X55897Y-31664D01*
X55822Y-31664D01*
X55803Y-31674D01*
X55794Y-31692D01*
X55794Y-31730D01*
X55803Y-31749D01*
X55822Y-31758D01*
X55841Y-31758D01*
X55860Y-31664D01*
X55925Y-31927D02*
X55728Y-31927D01*
X55916Y-31927D02*
X55925Y-31908D01*
X55925Y-31871D01*
X55916Y-31852D01*
X55906Y-31842D01*
X55888Y-31833D01*
X55831Y-31833D01*
X55813Y-31842D01*
X55803Y-31852D01*
X55794Y-31871D01*
X55794Y-31908D01*
X55803Y-31927D01*
X55925Y-32105D02*
X55728Y-32105D01*
X55916Y-32105D02*
X55925Y-32086D01*
X55925Y-32049D01*
X55916Y-32030D01*
X55906Y-32020D01*
X55888Y-32011D01*
X55831Y-32011D01*
X55813Y-32020D01*
X55803Y-32030D01*
X55794Y-32049D01*
X55794Y-32086D01*
X55803Y-32105D01*
X55916Y-32274D02*
X55925Y-32255D01*
X55925Y-32217D01*
X55916Y-32199D01*
X55897Y-32189D01*
X55822Y-32189D01*
X55803Y-32199D01*
X55794Y-32217D01*
X55794Y-32255D01*
X55803Y-32274D01*
X55822Y-32283D01*
X55841Y-32283D01*
X55860Y-32189D01*
X55925Y-32452D02*
X55728Y-32452D01*
X55916Y-32452D02*
X55925Y-32433D01*
X55925Y-32395D01*
X55916Y-32377D01*
X55906Y-32367D01*
X55888Y-32358D01*
X55831Y-32358D01*
X55813Y-32367D01*
X55803Y-32377D01*
X55794Y-32395D01*
X55794Y-32433D01*
X55803Y-32452D01*
X56241Y-30488D02*
X56250Y-30516D01*
X56250Y-30563D01*
X56241Y-30582D01*
X56231Y-30591D01*
X56212Y-30600D01*
X56194Y-30600D01*
X56175Y-30591D01*
X56166Y-30582D01*
X56156Y-30563D01*
X56147Y-30525D01*
X56137Y-30507D01*
X56128Y-30497D01*
X56109Y-30488D01*
X56091Y-30488D01*
X56072Y-30497D01*
X56062Y-30507D01*
X56053Y-30525D01*
X56053Y-30572D01*
X56062Y-30600D01*
X56119Y-30666D02*
X56250Y-30713D01*
X56119Y-30760D02*
X56250Y-30713D01*
X56297Y-30694D01*
X56306Y-30685D01*
X56316Y-30666D01*
X56241Y-30825D02*
X56250Y-30844D01*
X56250Y-30882D01*
X56241Y-30900D01*
X56222Y-30910D01*
X56212Y-30910D01*
X56194Y-30900D01*
X56184Y-30882D01*
X56184Y-30853D01*
X56175Y-30835D01*
X56156Y-30825D01*
X56147Y-30825D01*
X56128Y-30835D01*
X56119Y-30853D01*
X56119Y-30882D01*
X56128Y-30900D01*
X56119Y-30966D02*
X56119Y-31041D01*
X56053Y-30994D02*
X56222Y-30994D01*
X56241Y-31003D01*
X56250Y-31022D01*
X56250Y-31041D01*
X56241Y-31182D02*
X56250Y-31163D01*
X56250Y-31125D01*
X56241Y-31107D01*
X56222Y-31097D01*
X56147Y-31097D01*
X56128Y-31107D01*
X56119Y-31125D01*
X56119Y-31163D01*
X56128Y-31182D01*
X56147Y-31191D01*
X56166Y-31191D01*
X56184Y-31097D01*
X56250Y-31275D02*
X56119Y-31275D01*
X56137Y-31275D02*
X56128Y-31285D01*
X56119Y-31303D01*
X56119Y-31332D01*
X56128Y-31350D01*
X56147Y-31360D01*
X56250Y-31360D01*
X56147Y-31360D02*
X56128Y-31369D01*
X56119Y-31388D01*
X56119Y-31416D01*
X56128Y-31435D01*
X56147Y-31444D01*
X56250Y-31444D01*
X56241Y-31528D02*
X56250Y-31547D01*
X56250Y-31585D01*
X56241Y-31603D01*
X56222Y-31613D01*
X56212Y-31613D01*
X56194Y-31603D01*
X56184Y-31585D01*
X56184Y-31556D01*
X56175Y-31538D01*
X56156Y-31528D01*
X56147Y-31528D01*
X56128Y-31538D01*
X56119Y-31556D01*
X56119Y-31585D01*
X56128Y-31603D01*
X56241Y-31838D02*
X56250Y-31866D01*
X56250Y-31913D01*
X56241Y-31931D01*
X56231Y-31941D01*
X56212Y-31950D01*
X56194Y-31950D01*
X56175Y-31941D01*
X56166Y-31931D01*
X56156Y-31913D01*
X56147Y-31875D01*
X56137Y-31856D01*
X56128Y-31847D01*
X56109Y-31838D01*
X56091Y-31838D01*
X56072Y-31847D01*
X56062Y-31856D01*
X56053Y-31875D01*
X56053Y-31922D01*
X56062Y-31950D01*
X56250Y-32128D02*
X56250Y-32035D01*
X56053Y-32035D01*
G54D11*
X61122Y-33759D02*
X58464Y-33759D01*
X61122Y-32775D02*
X61122Y-33759D01*
X58464Y-32775D02*
X61122Y-32775D01*
X58464Y-33759D02*
X58464Y-32775D01*
G54D13*
X60194Y-33204D02*
X60334Y-33204D01*
X60334Y-32909D01*
X60109Y-33120D02*
X59969Y-33120D01*
X60137Y-33204D02*
X60039Y-32909D01*
X59940Y-33204D01*
X59842Y-33204D02*
X59842Y-32909D01*
X59744Y-33120D01*
X59645Y-32909D01*
X59645Y-33204D01*
X59505Y-33204D02*
X59505Y-32909D01*
X59392Y-32909D01*
X59364Y-32923D01*
X59350Y-32937D01*
X59336Y-32965D01*
X59336Y-33007D01*
X59350Y-33035D01*
X59364Y-33049D01*
X59392Y-33063D01*
X59505Y-33063D01*
X60805Y-33691D02*
X60904Y-33551D01*
X60974Y-33691D02*
X60974Y-33396D01*
X60861Y-33396D01*
X60833Y-33410D01*
X60819Y-33424D01*
X60805Y-33452D01*
X60805Y-33494D01*
X60819Y-33522D01*
X60833Y-33536D01*
X60861Y-33551D01*
X60974Y-33551D01*
X60679Y-33536D02*
X60580Y-33536D01*
X60538Y-33691D02*
X60679Y-33691D01*
X60679Y-33396D01*
X60538Y-33396D01*
X60271Y-33691D02*
X60411Y-33691D01*
X60411Y-33396D01*
X60172Y-33579D02*
X59947Y-33579D01*
X59652Y-33691D02*
X59821Y-33691D01*
X59737Y-33691D02*
X59737Y-33396D01*
X59765Y-33438D01*
X59793Y-33466D01*
X59821Y-33480D01*
X59526Y-33663D02*
X59512Y-33677D01*
X59526Y-33691D01*
X59540Y-33677D01*
X59526Y-33663D01*
X59526Y-33691D01*
X59329Y-33396D02*
X59301Y-33396D01*
X59273Y-33410D01*
X59258Y-33424D01*
X59244Y-33452D01*
X59230Y-33508D01*
X59230Y-33579D01*
X59244Y-33635D01*
X59258Y-33663D01*
X59273Y-33677D01*
X59301Y-33691D01*
X59329Y-33691D01*
X59357Y-33677D01*
X59371Y-33663D01*
X59385Y-33635D01*
X59399Y-33579D01*
X59399Y-33508D01*
X59385Y-33452D01*
X59371Y-33424D01*
X59357Y-33410D01*
X59329Y-33396D01*
X59048Y-33396D02*
X59019Y-33396D01*
X58991Y-33410D01*
X58977Y-33424D01*
X58963Y-33452D01*
X58949Y-33508D01*
X58949Y-33579D01*
X58963Y-33635D01*
X58977Y-33663D01*
X58991Y-33677D01*
X59019Y-33691D01*
X59048Y-33691D01*
X59076Y-33677D01*
X59090Y-33663D01*
X59104Y-33635D01*
X59118Y-33579D01*
X59118Y-33508D01*
X59104Y-33452D01*
X59090Y-33424D01*
X59076Y-33410D01*
X59048Y-33396D01*
X58837Y-33607D02*
X58696Y-33607D01*
X58865Y-33691D02*
X58766Y-33396D01*
X58668Y-33691D01*
G54D14*
X58366Y-30118D02*
G75*
G03X58366Y-30118I-59J0D01*
G74*
G01*
X60059Y-32283D02*
X60059Y-30314D01*
X60059Y-30314D02*
X58051Y-30314D01*
X58051Y-30314D02*
X58051Y-32283D01*
X58051Y-32283D02*
X60059Y-32283D01*
X59586Y-30433D02*
G75*
G03X59586Y-30433I-59J0D01*
G74*
G01*
X61496Y-32165D02*
X61496Y-30433D01*
X61496Y-30433D02*
X59763Y-30433D01*
X59763Y-30433D02*
X59763Y-32165D01*
X59763Y-32165D02*
X61496Y-32165D01*
G54D15*
X62501Y-30764D02*
X63101Y-30764D01*
X63101Y-30764D02*
X63101Y-29864D01*
X63101Y-29864D02*
X62501Y-29864D01*
X62301Y-30764D02*
X61701Y-30764D01*
X61701Y-30764D02*
X61701Y-29864D01*
X61701Y-29864D02*
X62301Y-29864D01*
X57183Y-32817D02*
X56583Y-32817D01*
X56583Y-32817D02*
X56583Y-33717D01*
X56583Y-33717D02*
X57183Y-33717D01*
X57383Y-32817D02*
X57983Y-32817D01*
X57983Y-32817D02*
X57983Y-33717D01*
X57983Y-33717D02*
X57383Y-33717D01*
X62501Y-32733D02*
X63101Y-32733D01*
X63101Y-32733D02*
X63101Y-31833D01*
X63101Y-31833D02*
X62501Y-31833D01*
X62301Y-32733D02*
X61701Y-32733D01*
X61701Y-32733D02*
X61701Y-31833D01*
X61701Y-31833D02*
X62301Y-31833D01*
X57183Y-29864D02*
X56583Y-29864D01*
X56583Y-29864D02*
X56583Y-30764D01*
X56583Y-30764D02*
X57183Y-30764D01*
X57383Y-29864D02*
X57983Y-29864D01*
X57983Y-29864D02*
X57983Y-30764D01*
X57983Y-30764D02*
X57383Y-30764D01*
X62501Y-29780D02*
X63101Y-29780D01*
X63101Y-29780D02*
X63101Y-28880D01*
X63101Y-28880D02*
X62501Y-28880D01*
X62301Y-29780D02*
X61701Y-29780D01*
X61701Y-29780D02*
X61701Y-28880D01*
X61701Y-28880D02*
X62301Y-28880D01*
X62501Y-33717D02*
X63101Y-33717D01*
X63101Y-33717D02*
X63101Y-32817D01*
X63101Y-32817D02*
X62501Y-32817D01*
X62301Y-33717D02*
X61701Y-33717D01*
X61701Y-33717D02*
X61701Y-32817D01*
X61701Y-32817D02*
X62301Y-32817D01*
X57183Y-28880D02*
X56583Y-28880D01*
X56583Y-28880D02*
X56583Y-29780D01*
X56583Y-29780D02*
X57183Y-29780D01*
X57383Y-28880D02*
X57983Y-28880D01*
X57983Y-28880D02*
X57983Y-29780D01*
X57983Y-29780D02*
X57383Y-29780D01*
X57183Y-31833D02*
X56583Y-31833D01*
X56583Y-31833D02*
X56583Y-32733D01*
X56583Y-32733D02*
X57183Y-32733D01*
X57383Y-31833D02*
X57983Y-31833D01*
X57983Y-31833D02*
X57983Y-32733D01*
X57983Y-32733D02*
X57383Y-32733D01*
G54D10*
X59202Y-30000D02*
X59202Y-30433D01*
X59301Y-30433D01*
X59301Y-30000D01*
X59202Y-30000D01*
X59399Y-30000D02*
X59399Y-30433D01*
X59498Y-30433D01*
X59498Y-30000D01*
X59399Y-30000D01*
X59005Y-30000D02*
X59005Y-30433D01*
X59104Y-30433D01*
X59104Y-30000D01*
X59005Y-30000D01*
X58809Y-30000D02*
X58809Y-30433D01*
X58907Y-30433D01*
X58907Y-30000D01*
X58809Y-30000D01*
X58612Y-30000D02*
X58612Y-30433D01*
X58710Y-30433D01*
X58710Y-30000D01*
X58612Y-30000D01*
X58612Y-32165D02*
X58612Y-32598D01*
X58710Y-32598D01*
X58710Y-32165D01*
X58612Y-32165D01*
X58809Y-32165D02*
X58809Y-32598D01*
X58907Y-32598D01*
X58907Y-32165D01*
X58809Y-32165D01*
X59005Y-32165D02*
X59005Y-32598D01*
X59104Y-32598D01*
X59104Y-32165D01*
X59005Y-32165D01*
X59202Y-32165D02*
X59202Y-32598D01*
X59301Y-32598D01*
X59301Y-32165D01*
X59202Y-32165D01*
X59399Y-32165D02*
X59399Y-32598D01*
X59498Y-32598D01*
X59498Y-32165D01*
X59399Y-32165D01*
X60742Y-30196D02*
X60742Y-30511D01*
X60832Y-30511D01*
X60832Y-30196D01*
X60742Y-30196D01*
X60899Y-30196D02*
X60899Y-30511D01*
X60990Y-30511D01*
X60990Y-30196D01*
X60899Y-30196D01*
X60584Y-30196D02*
X60584Y-30511D01*
X60675Y-30511D01*
X60675Y-30196D01*
X60584Y-30196D01*
X60427Y-30196D02*
X60427Y-30511D01*
X60517Y-30511D01*
X60517Y-30196D01*
X60427Y-30196D01*
X60269Y-30196D02*
X60269Y-30511D01*
X60360Y-30511D01*
X60360Y-30196D01*
X60269Y-30196D01*
X60269Y-32086D02*
X60269Y-32401D01*
X60360Y-32401D01*
X60360Y-32086D01*
X60269Y-32086D01*
X60427Y-32086D02*
X60427Y-32401D01*
X60517Y-32401D01*
X60517Y-32086D01*
X60427Y-32086D01*
X60584Y-32086D02*
X60584Y-32401D01*
X60675Y-32401D01*
X60675Y-32086D01*
X60584Y-32086D01*
X60742Y-32086D02*
X60742Y-32401D01*
X60832Y-32401D01*
X60832Y-32086D01*
X60742Y-32086D01*
X60899Y-32086D02*
X60899Y-32401D01*
X60990Y-32401D01*
X60990Y-32086D01*
X60899Y-32086D01*
X59763Y-30196D02*
X59763Y-30590D01*
X60157Y-30590D01*
X60157Y-30196D01*
X59763Y-30196D01*
X59763Y-32007D02*
X59763Y-32401D01*
X60157Y-32401D01*
X60157Y-32007D01*
X59763Y-32007D01*
X61102Y-30196D02*
X61102Y-30590D01*
X61496Y-30590D01*
X61496Y-30196D01*
X61102Y-30196D01*
X61102Y-32007D02*
X61102Y-32401D01*
X61496Y-32401D01*
X61496Y-32007D01*
X61102Y-32007D01*
X64427Y-32019D02*
X64427Y-32343D01*
X64463Y-32343D01*
X64463Y-32019D01*
X64427Y-32019D01*
X64427Y-30975D02*
X64427Y-31227D01*
X64463Y-31227D01*
X64463Y-30975D01*
X64427Y-30975D01*
X64427Y-30435D02*
X64427Y-30831D01*
X64463Y-30831D01*
X64463Y-30435D01*
X64427Y-30435D01*
X64427Y-30003D02*
X64427Y-30399D01*
X64463Y-30399D01*
X64463Y-30003D01*
X64427Y-30003D01*
X64391Y-32019D02*
X64391Y-32379D01*
X64427Y-32379D01*
X64427Y-32019D01*
X64391Y-32019D01*
X64391Y-30975D02*
X64391Y-31263D01*
X64427Y-31263D01*
X64427Y-30975D01*
X64391Y-30975D01*
X64391Y-29967D02*
X64391Y-30831D01*
X64427Y-30831D01*
X64427Y-29967D01*
X64391Y-29967D01*
X64355Y-32055D02*
X64355Y-32379D01*
X64391Y-32379D01*
X64391Y-32055D01*
X64355Y-32055D01*
X64355Y-30975D02*
X64355Y-31263D01*
X64391Y-31263D01*
X64391Y-30975D01*
X64355Y-30975D01*
X64355Y-29931D02*
X64355Y-30867D01*
X64391Y-30867D01*
X64391Y-29931D01*
X64355Y-29931D01*
X64319Y-32055D02*
X64319Y-32415D01*
X64355Y-32415D01*
X64355Y-32055D01*
X64319Y-32055D01*
X64319Y-31011D02*
X64319Y-31263D01*
X64355Y-31263D01*
X64355Y-31011D01*
X64319Y-31011D01*
X64319Y-29931D02*
X64319Y-30867D01*
X64355Y-30867D01*
X64355Y-29931D01*
X64319Y-29931D01*
X64283Y-32055D02*
X64283Y-32451D01*
X64319Y-32451D01*
X64319Y-32055D01*
X64283Y-32055D01*
X64283Y-31011D02*
X64283Y-31263D01*
X64319Y-31263D01*
X64319Y-31011D01*
X64283Y-31011D01*
X64283Y-29931D02*
X64283Y-30867D01*
X64319Y-30867D01*
X64319Y-29931D01*
X64283Y-29931D01*
X64247Y-32091D02*
X64247Y-32487D01*
X64283Y-32487D01*
X64283Y-32091D01*
X64247Y-32091D01*
X64247Y-31011D02*
X64247Y-31299D01*
X64283Y-31299D01*
X64283Y-31011D01*
X64247Y-31011D01*
X64247Y-30507D02*
X64247Y-30903D01*
X64283Y-30903D01*
X64283Y-30507D01*
X64247Y-30507D01*
X64247Y-30255D02*
X64247Y-30471D01*
X64283Y-30471D01*
X64283Y-30255D01*
X64247Y-30255D01*
X64247Y-29967D02*
X64247Y-30219D01*
X64283Y-30219D01*
X64283Y-29967D01*
X64247Y-29967D01*
X64211Y-32091D02*
X64211Y-32487D01*
X64247Y-32487D01*
X64247Y-32091D01*
X64211Y-32091D01*
X64211Y-31047D02*
X64211Y-31299D01*
X64247Y-31299D01*
X64247Y-31047D01*
X64211Y-31047D01*
X64211Y-30615D02*
X64211Y-30903D01*
X64247Y-30903D01*
X64247Y-30615D01*
X64211Y-30615D01*
X64211Y-30255D02*
X64211Y-30471D01*
X64247Y-30471D01*
X64247Y-30255D01*
X64211Y-30255D01*
X64211Y-29967D02*
X64211Y-30183D01*
X64247Y-30183D01*
X64247Y-29967D01*
X64211Y-29967D01*
X64175Y-32091D02*
X64175Y-32523D01*
X64211Y-32523D01*
X64211Y-32091D01*
X64175Y-32091D01*
X64175Y-31047D02*
X64175Y-31299D01*
X64211Y-31299D01*
X64211Y-31047D01*
X64175Y-31047D01*
X64175Y-30651D02*
X64175Y-30903D01*
X64211Y-30903D01*
X64211Y-30651D01*
X64175Y-30651D01*
X64175Y-30255D02*
X64175Y-30507D01*
X64211Y-30507D01*
X64211Y-30255D01*
X64175Y-30255D01*
X64175Y-29967D02*
X64175Y-30219D01*
X64211Y-30219D01*
X64211Y-29967D01*
X64175Y-29967D01*
X64139Y-32091D02*
X64139Y-32559D01*
X64175Y-32559D01*
X64175Y-32091D01*
X64139Y-32091D01*
X64139Y-31047D02*
X64139Y-31335D01*
X64175Y-31335D01*
X64175Y-31047D01*
X64139Y-31047D01*
X64139Y-30651D02*
X64139Y-30903D01*
X64175Y-30903D01*
X64175Y-30651D01*
X64139Y-30651D01*
X64139Y-30291D02*
X64139Y-30507D01*
X64175Y-30507D01*
X64175Y-30291D01*
X64139Y-30291D01*
X64139Y-30003D02*
X64139Y-30219D01*
X64175Y-30219D01*
X64175Y-30003D01*
X64139Y-30003D01*
X64103Y-32127D02*
X64103Y-32595D01*
X64139Y-32595D01*
X64139Y-32127D01*
X64103Y-32127D01*
X64103Y-31047D02*
X64103Y-31335D01*
X64139Y-31335D01*
X64139Y-31047D01*
X64103Y-31047D01*
X64103Y-30651D02*
X64103Y-30939D01*
X64139Y-30939D01*
X64139Y-30651D01*
X64103Y-30651D01*
X64103Y-30291D02*
X64103Y-30507D01*
X64139Y-30507D01*
X64139Y-30291D01*
X64103Y-30291D01*
X64103Y-30003D02*
X64103Y-30219D01*
X64139Y-30219D01*
X64139Y-30003D01*
X64103Y-30003D01*
X64067Y-32127D02*
X64067Y-32595D01*
X64103Y-32595D01*
X64103Y-32127D01*
X64067Y-32127D01*
X64067Y-31083D02*
X64067Y-31335D01*
X64103Y-31335D01*
X64103Y-31083D01*
X64067Y-31083D01*
X64067Y-30651D02*
X64067Y-30939D01*
X64103Y-30939D01*
X64103Y-30651D01*
X64067Y-30651D01*
X64067Y-30291D02*
X64067Y-30543D01*
X64103Y-30543D01*
X64103Y-30291D01*
X64067Y-30291D01*
X64067Y-30003D02*
X64067Y-30255D01*
X64103Y-30255D01*
X64103Y-30003D01*
X64067Y-30003D01*
X64031Y-32127D02*
X64031Y-32631D01*
X64067Y-32631D01*
X64067Y-32127D01*
X64031Y-32127D01*
X64031Y-31083D02*
X64031Y-31335D01*
X64067Y-31335D01*
X64067Y-31083D01*
X64031Y-31083D01*
X64031Y-30687D02*
X64031Y-30939D01*
X64067Y-30939D01*
X64067Y-30687D01*
X64031Y-30687D01*
X64031Y-30327D02*
X64031Y-30543D01*
X64067Y-30543D01*
X64067Y-30327D01*
X64031Y-30327D01*
X64031Y-30039D02*
X64031Y-30255D01*
X64067Y-30255D01*
X64067Y-30039D01*
X64031Y-30039D01*
X63995Y-32163D02*
X63995Y-32667D01*
X64031Y-32667D01*
X64031Y-32163D01*
X63995Y-32163D01*
X63995Y-31083D02*
X63995Y-31371D01*
X64031Y-31371D01*
X64031Y-31083D01*
X63995Y-31083D01*
X63995Y-30579D02*
X63995Y-30939D01*
X64031Y-30939D01*
X64031Y-30579D01*
X63995Y-30579D01*
X63995Y-30327D02*
X63995Y-30543D01*
X64031Y-30543D01*
X64031Y-30327D01*
X63995Y-30327D01*
X63995Y-30039D02*
X63995Y-30255D01*
X64031Y-30255D01*
X64031Y-30039D01*
X63995Y-30039D01*
X63959Y-32415D02*
X63959Y-32667D01*
X63995Y-32667D01*
X63995Y-32415D01*
X63959Y-32415D01*
X63959Y-32163D02*
X63959Y-32379D01*
X63995Y-32379D01*
X63995Y-32163D01*
X63959Y-32163D01*
X63959Y-31119D02*
X63959Y-31371D01*
X63995Y-31371D01*
X63995Y-31119D01*
X63959Y-31119D01*
X63959Y-30327D02*
X63959Y-30975D01*
X63995Y-30975D01*
X63995Y-30327D01*
X63959Y-30327D01*
X63959Y-30039D02*
X63959Y-30255D01*
X63995Y-30255D01*
X63995Y-30039D01*
X63959Y-30039D01*
X63923Y-32451D02*
X63923Y-32703D01*
X63959Y-32703D01*
X63959Y-32451D01*
X63923Y-32451D01*
X63923Y-32163D02*
X63923Y-32379D01*
X63959Y-32379D01*
X63959Y-32163D01*
X63923Y-32163D01*
X63923Y-31515D02*
X63923Y-31983D01*
X63959Y-31983D01*
X63959Y-31515D01*
X63923Y-31515D01*
X63923Y-31119D02*
X63923Y-31371D01*
X63959Y-31371D01*
X63959Y-31119D01*
X63923Y-31119D01*
X63923Y-30363D02*
X63923Y-30975D01*
X63959Y-30975D01*
X63959Y-30363D01*
X63923Y-30363D01*
X63923Y-30039D02*
X63923Y-30291D01*
X63959Y-30291D01*
X63959Y-30039D01*
X63923Y-30039D01*
X63923Y-29463D02*
X63923Y-29931D01*
X63959Y-29931D01*
X63959Y-29463D01*
X63923Y-29463D01*
X63887Y-32451D02*
X63887Y-32739D01*
X63923Y-32739D01*
X63923Y-32451D01*
X63887Y-32451D01*
X63887Y-32199D02*
X63887Y-32415D01*
X63923Y-32415D01*
X63923Y-32199D01*
X63887Y-32199D01*
X63887Y-31443D02*
X63887Y-32055D01*
X63923Y-32055D01*
X63923Y-31443D01*
X63887Y-31443D01*
X63887Y-31119D02*
X63887Y-31407D01*
X63923Y-31407D01*
X63923Y-31119D01*
X63887Y-31119D01*
X63887Y-30363D02*
X63887Y-30975D01*
X63923Y-30975D01*
X63923Y-30363D01*
X63887Y-30363D01*
X63887Y-30075D02*
X63887Y-30291D01*
X63923Y-30291D01*
X63923Y-30075D01*
X63887Y-30075D01*
X63887Y-29463D02*
X63887Y-29967D01*
X63923Y-29967D01*
X63923Y-29463D01*
X63887Y-29463D01*
X63851Y-32487D02*
X63851Y-32775D01*
X63887Y-32775D01*
X63887Y-32487D01*
X63851Y-32487D01*
X63851Y-32199D02*
X63851Y-32415D01*
X63887Y-32415D01*
X63887Y-32199D01*
X63851Y-32199D01*
X63851Y-31119D02*
X63851Y-32091D01*
X63887Y-32091D01*
X63887Y-31119D01*
X63851Y-31119D01*
X63851Y-30363D02*
X63851Y-31011D01*
X63887Y-31011D01*
X63887Y-30363D01*
X63851Y-30363D01*
X63851Y-30075D02*
X63851Y-30291D01*
X63887Y-30291D01*
X63887Y-30075D01*
X63851Y-30075D01*
X63851Y-29463D02*
X63851Y-30003D01*
X63887Y-30003D01*
X63887Y-29463D01*
X63851Y-29463D01*
X63815Y-32487D02*
X63815Y-32775D01*
X63851Y-32775D01*
X63851Y-32487D01*
X63815Y-32487D01*
X63815Y-32199D02*
X63815Y-32415D01*
X63851Y-32415D01*
X63851Y-32199D01*
X63815Y-32199D01*
X63815Y-31155D02*
X63815Y-32127D01*
X63851Y-32127D01*
X63851Y-31155D01*
X63815Y-31155D01*
X63815Y-30363D02*
X63815Y-31011D01*
X63851Y-31011D01*
X63851Y-30363D01*
X63815Y-30363D01*
X63815Y-30075D02*
X63815Y-30291D01*
X63851Y-30291D01*
X63851Y-30075D01*
X63815Y-30075D01*
X63815Y-29463D02*
X63815Y-30039D01*
X63851Y-30039D01*
X63851Y-29463D01*
X63815Y-29463D01*
X63779Y-32523D02*
X63779Y-32811D01*
X63815Y-32811D01*
X63815Y-32523D01*
X63779Y-32523D01*
X63779Y-32199D02*
X63779Y-32415D01*
X63815Y-32415D01*
X63815Y-32199D01*
X63779Y-32199D01*
X63779Y-31155D02*
X63779Y-32163D01*
X63815Y-32163D01*
X63815Y-31155D01*
X63779Y-31155D01*
X63779Y-30651D02*
X63779Y-31011D01*
X63815Y-31011D01*
X63815Y-30651D01*
X63779Y-30651D01*
X63779Y-30399D02*
X63779Y-30615D01*
X63815Y-30615D01*
X63815Y-30399D01*
X63779Y-30399D01*
X63779Y-30111D02*
X63779Y-30327D01*
X63815Y-30327D01*
X63815Y-30111D01*
X63779Y-30111D01*
X63779Y-29463D02*
X63779Y-30075D01*
X63815Y-30075D01*
X63815Y-29463D01*
X63779Y-29463D01*
X63743Y-32559D02*
X63743Y-32847D01*
X63779Y-32847D01*
X63779Y-32559D01*
X63743Y-32559D01*
X63743Y-32235D02*
X63743Y-32415D01*
X63779Y-32415D01*
X63779Y-32235D01*
X63743Y-32235D01*
X63743Y-31155D02*
X63743Y-32163D01*
X63779Y-32163D01*
X63779Y-31155D01*
X63743Y-31155D01*
X63743Y-30759D02*
X63743Y-31011D01*
X63779Y-31011D01*
X63779Y-30759D01*
X63743Y-30759D01*
X63743Y-30399D02*
X63743Y-30615D01*
X63779Y-30615D01*
X63779Y-30399D01*
X63743Y-30399D01*
X63743Y-30111D02*
X63743Y-30327D01*
X63779Y-30327D01*
X63779Y-30111D01*
X63743Y-30111D01*
X63743Y-29751D02*
X63743Y-30075D01*
X63779Y-30075D01*
X63779Y-29751D01*
X63743Y-29751D01*
X63707Y-32595D02*
X63707Y-32883D01*
X63743Y-32883D01*
X63743Y-32595D01*
X63707Y-32595D01*
X63707Y-32235D02*
X63707Y-32451D01*
X63743Y-32451D01*
X63743Y-32235D01*
X63707Y-32235D01*
X63707Y-31191D02*
X63707Y-32163D01*
X63743Y-32163D01*
X63743Y-31191D01*
X63707Y-31191D01*
X63707Y-30759D02*
X63707Y-31047D01*
X63743Y-31047D01*
X63743Y-30759D01*
X63707Y-30759D01*
X63707Y-30399D02*
X63707Y-30651D01*
X63743Y-30651D01*
X63743Y-30399D01*
X63707Y-30399D01*
X63707Y-30111D02*
X63707Y-30327D01*
X63743Y-30327D01*
X63743Y-30111D01*
X63707Y-30111D01*
X63707Y-29571D02*
X63707Y-30075D01*
X63743Y-30075D01*
X63743Y-29571D01*
X63707Y-29571D01*
X63671Y-32487D02*
X63671Y-32883D01*
X63707Y-32883D01*
X63707Y-32487D01*
X63671Y-32487D01*
X63671Y-32235D02*
X63671Y-32451D01*
X63707Y-32451D01*
X63707Y-32235D01*
X63671Y-32235D01*
X63671Y-31875D02*
X63671Y-32199D01*
X63707Y-32199D01*
X63707Y-31875D01*
X63671Y-31875D01*
X63671Y-31191D02*
X63671Y-31695D01*
X63707Y-31695D01*
X63707Y-31191D01*
X63671Y-31191D01*
X63671Y-30795D02*
X63671Y-31047D01*
X63707Y-31047D01*
X63707Y-30795D01*
X63671Y-30795D01*
X63671Y-30435D02*
X63671Y-30651D01*
X63707Y-30651D01*
X63707Y-30435D01*
X63671Y-30435D01*
X63671Y-30147D02*
X63671Y-30363D01*
X63707Y-30363D01*
X63707Y-30147D01*
X63671Y-30147D01*
X63671Y-29535D02*
X63671Y-30039D01*
X63707Y-30039D01*
X63707Y-29535D01*
X63671Y-29535D01*
X63635Y-32271D02*
X63635Y-32919D01*
X63671Y-32919D01*
X63671Y-32271D01*
X63635Y-32271D01*
X63635Y-31875D02*
X63635Y-32199D01*
X63671Y-32199D01*
X63671Y-31875D01*
X63635Y-31875D01*
X63635Y-31191D02*
X63635Y-31731D01*
X63671Y-31731D01*
X63671Y-31191D01*
X63635Y-31191D01*
X63635Y-30795D02*
X63635Y-31047D01*
X63671Y-31047D01*
X63671Y-30795D01*
X63635Y-30795D01*
X63635Y-30435D02*
X63635Y-30651D01*
X63671Y-30651D01*
X63671Y-30435D01*
X63635Y-30435D01*
X63635Y-30147D02*
X63635Y-30363D01*
X63671Y-30363D01*
X63671Y-30147D01*
X63635Y-30147D01*
X63635Y-29535D02*
X63635Y-30039D01*
X63671Y-30039D01*
X63671Y-29535D01*
X63635Y-29535D01*
X63599Y-32271D02*
X63599Y-32955D01*
X63635Y-32955D01*
X63635Y-32271D01*
X63599Y-32271D01*
X63599Y-31875D02*
X63599Y-32199D01*
X63635Y-32199D01*
X63635Y-31875D01*
X63599Y-31875D01*
X63599Y-31227D02*
X63599Y-31731D01*
X63635Y-31731D01*
X63635Y-31227D01*
X63599Y-31227D01*
X63599Y-30795D02*
X63599Y-31083D01*
X63635Y-31083D01*
X63635Y-30795D01*
X63599Y-30795D01*
X63599Y-30435D02*
X63599Y-30651D01*
X63635Y-30651D01*
X63635Y-30435D01*
X63599Y-30435D01*
X63599Y-30147D02*
X63599Y-30363D01*
X63635Y-30363D01*
X63635Y-30147D01*
X63599Y-30147D01*
X63599Y-29535D02*
X63599Y-30003D01*
X63635Y-30003D01*
X63635Y-29535D01*
X63599Y-29535D01*
X63563Y-32271D02*
X63563Y-32991D01*
X63599Y-32991D01*
X63599Y-32271D01*
X63563Y-32271D01*
X63563Y-31911D02*
X63563Y-32235D01*
X63599Y-32235D01*
X63599Y-31911D01*
X63563Y-31911D01*
X63563Y-31119D02*
X63563Y-31731D01*
X63599Y-31731D01*
X63599Y-31119D01*
X63563Y-31119D01*
X63563Y-30723D02*
X63563Y-31083D01*
X63599Y-31083D01*
X63599Y-30723D01*
X63563Y-30723D01*
X63563Y-30471D02*
X63563Y-30687D01*
X63599Y-30687D01*
X63599Y-30471D01*
X63563Y-30471D01*
X63563Y-30147D02*
X63563Y-30363D01*
X63599Y-30363D01*
X63599Y-30147D01*
X63563Y-30147D01*
X63563Y-29535D02*
X63563Y-29967D01*
X63599Y-29967D01*
X63599Y-29535D01*
X63563Y-29535D01*
X63527Y-32271D02*
X63527Y-32991D01*
X63563Y-32991D01*
X63563Y-32271D01*
X63527Y-32271D01*
X63527Y-31911D02*
X63527Y-32235D01*
X63563Y-32235D01*
X63563Y-31911D01*
X63527Y-31911D01*
X63527Y-30471D02*
X63527Y-31731D01*
X63563Y-31731D01*
X63563Y-30471D01*
X63527Y-30471D01*
X63527Y-30183D02*
X63527Y-30399D01*
X63563Y-30399D01*
X63563Y-30183D01*
X63527Y-30183D01*
X63527Y-29535D02*
X63527Y-29787D01*
X63563Y-29787D01*
X63563Y-29535D01*
X63527Y-29535D01*
X63491Y-32307D02*
X63491Y-33027D01*
X63527Y-33027D01*
X63527Y-32307D01*
X63491Y-32307D01*
X63491Y-31911D02*
X63491Y-32235D01*
X63527Y-32235D01*
X63527Y-31911D01*
X63491Y-31911D01*
X63491Y-30183D02*
X63491Y-31767D01*
X63527Y-31767D01*
X63527Y-30183D01*
X63491Y-30183D01*
X63491Y-29535D02*
X63491Y-30075D01*
X63527Y-30075D01*
X63527Y-29535D01*
X63491Y-29535D01*
X63455Y-32739D02*
X63455Y-33063D01*
X63491Y-33063D01*
X63491Y-32739D01*
X63455Y-32739D01*
X63455Y-32307D02*
X63455Y-32595D01*
X63491Y-32595D01*
X63491Y-32307D01*
X63455Y-32307D01*
X63455Y-31911D02*
X63455Y-32235D01*
X63491Y-32235D01*
X63491Y-31911D01*
X63455Y-31911D01*
X63455Y-30183D02*
X63455Y-31767D01*
X63491Y-31767D01*
X63491Y-30183D01*
X63455Y-30183D01*
X63455Y-29571D02*
X63455Y-30075D01*
X63491Y-30075D01*
X63491Y-29571D01*
X63455Y-29571D01*
X63419Y-32775D02*
X63419Y-33063D01*
X63455Y-33063D01*
X63455Y-32775D01*
X63419Y-32775D01*
X63419Y-32307D02*
X63419Y-32595D01*
X63455Y-32595D01*
X63455Y-32307D01*
X63419Y-32307D01*
X63419Y-31947D02*
X63419Y-32271D01*
X63455Y-32271D01*
X63455Y-31947D01*
X63419Y-31947D01*
X63419Y-30219D02*
X63419Y-31767D01*
X63455Y-31767D01*
X63455Y-30219D01*
X63419Y-30219D01*
X63419Y-29571D02*
X63419Y-30111D01*
X63455Y-30111D01*
X63455Y-29571D01*
X63419Y-29571D01*
X63383Y-32775D02*
X63383Y-33099D01*
X63419Y-33099D01*
X63419Y-32775D01*
X63383Y-32775D01*
X63383Y-32343D02*
X63383Y-32595D01*
X63419Y-32595D01*
X63419Y-32343D01*
X63383Y-32343D01*
X63383Y-31947D02*
X63383Y-32271D01*
X63419Y-32271D01*
X63419Y-31947D01*
X63383Y-31947D01*
X63383Y-30219D02*
X63383Y-31803D01*
X63419Y-31803D01*
X63419Y-30219D01*
X63383Y-30219D01*
X63383Y-29607D02*
X63383Y-30111D01*
X63419Y-30111D01*
X63419Y-29607D01*
X63383Y-29607D01*
X63347Y-32811D02*
X63347Y-33135D01*
X63383Y-33135D01*
X63383Y-32811D01*
X63347Y-32811D01*
X63347Y-32343D02*
X63347Y-32595D01*
X63383Y-32595D01*
X63383Y-32343D01*
X63347Y-32343D01*
X63347Y-31947D02*
X63347Y-32271D01*
X63383Y-32271D01*
X63383Y-31947D01*
X63347Y-31947D01*
X63347Y-31155D02*
X63347Y-31839D01*
X63383Y-31839D01*
X63383Y-31155D01*
X63347Y-31155D01*
X63347Y-30723D02*
X63347Y-31119D01*
X63383Y-31119D01*
X63383Y-30723D01*
X63347Y-30723D01*
X63347Y-30291D02*
X63347Y-30687D01*
X63383Y-30687D01*
X63383Y-30291D01*
X63347Y-30291D01*
X63347Y-29679D02*
X63347Y-30111D01*
X63383Y-30111D01*
X63383Y-29679D01*
X63347Y-29679D01*
X63311Y-32847D02*
X63311Y-33171D01*
X63347Y-33171D01*
X63347Y-32847D01*
X63311Y-32847D01*
X63311Y-31515D02*
X63311Y-32271D01*
X63347Y-32271D01*
X63347Y-31515D01*
X63311Y-31515D01*
X63275Y-32883D02*
X63275Y-33171D01*
X63311Y-33171D01*
X63311Y-32883D01*
X63275Y-32883D01*
X63275Y-31299D02*
X63275Y-32271D01*
X63311Y-32271D01*
X63311Y-31299D01*
X63275Y-31299D01*
X63239Y-32883D02*
X63239Y-33207D01*
X63275Y-33207D01*
X63275Y-32883D01*
X63239Y-32883D01*
X63239Y-31299D02*
X63239Y-32271D01*
X63275Y-32271D01*
X63275Y-31299D01*
X63239Y-31299D01*
X63203Y-32919D02*
X63203Y-33243D01*
X63239Y-33243D01*
X63239Y-32919D01*
X63203Y-32919D01*
X63203Y-31335D02*
X63203Y-32235D01*
X63239Y-32235D01*
X63239Y-31335D01*
X63203Y-31335D01*
X63167Y-32955D02*
X63167Y-33207D01*
X63203Y-33207D01*
X63203Y-32955D01*
X63167Y-32955D01*
X63167Y-31335D02*
X63167Y-32235D01*
X63203Y-32235D01*
X63203Y-31335D01*
X63167Y-31335D01*
X63131Y-31335D02*
X63131Y-32163D01*
X63167Y-32163D01*
X63167Y-31335D01*
X63131Y-31335D01*
X63095Y-31731D02*
X63095Y-32091D01*
X63131Y-32091D01*
X63131Y-31731D01*
X63095Y-31731D01*
X63059Y-31839D02*
X63059Y-31947D01*
X63095Y-31947D01*
X63095Y-31839D01*
X63059Y-31839D01*
X63023Y-31875D02*
X63023Y-31947D01*
X63059Y-31947D01*
X63059Y-31875D01*
X63023Y-31875D01*
G54D16*
X59440Y-29363D02*
X59440Y-29577D01*
X59455Y-29620D01*
X59483Y-29648D01*
X59526Y-29663D01*
X59555Y-29663D01*
X59140Y-29663D02*
X59312Y-29663D01*
X59226Y-29663D02*
X59226Y-29363D01*
X59255Y-29406D01*
X59283Y-29434D01*
X59312Y-29448D01*
X58955Y-29363D02*
X58926Y-29363D01*
X58897Y-29377D01*
X58883Y-29391D01*
X58869Y-29420D01*
X58855Y-29477D01*
X58855Y-29548D01*
X58869Y-29606D01*
X58883Y-29634D01*
X58897Y-29648D01*
X58926Y-29663D01*
X58955Y-29663D01*
X58983Y-29648D01*
X58997Y-29634D01*
X59012Y-29606D01*
X59026Y-29548D01*
X59026Y-29477D01*
X59012Y-29420D01*
X58997Y-29391D01*
X58983Y-29377D01*
X58955Y-29363D01*
X58569Y-29663D02*
X58740Y-29663D01*
X58655Y-29663D02*
X58655Y-29363D01*
X58683Y-29406D01*
X58712Y-29434D01*
X58740Y-29448D01*
X61015Y-29363D02*
X61015Y-29577D01*
X61029Y-29620D01*
X61058Y-29648D01*
X61101Y-29663D01*
X61129Y-29663D01*
X60715Y-29663D02*
X60887Y-29663D01*
X60801Y-29663D02*
X60801Y-29363D01*
X60829Y-29406D01*
X60858Y-29434D01*
X60887Y-29448D01*
X60529Y-29363D02*
X60501Y-29363D01*
X60472Y-29377D01*
X60458Y-29391D01*
X60444Y-29420D01*
X60429Y-29477D01*
X60429Y-29548D01*
X60444Y-29606D01*
X60458Y-29634D01*
X60472Y-29648D01*
X60501Y-29663D01*
X60529Y-29663D01*
X60558Y-29648D01*
X60572Y-29634D01*
X60587Y-29606D01*
X60601Y-29548D01*
X60601Y-29477D01*
X60587Y-29420D01*
X60572Y-29391D01*
X60558Y-29377D01*
X60529Y-29363D01*
X60315Y-29391D02*
X60301Y-29377D01*
X60272Y-29363D01*
X60201Y-29363D01*
X60172Y-29377D01*
X60158Y-29391D01*
X60144Y-29420D01*
X60144Y-29448D01*
X60158Y-29491D01*
X60329Y-29663D01*
X60144Y-29663D01*
X62737Y-31139D02*
X62837Y-30996D01*
X62908Y-31139D02*
X62908Y-30839D01*
X62794Y-30839D01*
X62765Y-30853D01*
X62751Y-30868D01*
X62737Y-30896D01*
X62737Y-30939D01*
X62751Y-30968D01*
X62765Y-30982D01*
X62794Y-30996D01*
X62908Y-30996D01*
X62451Y-31139D02*
X62623Y-31139D01*
X62537Y-31139D02*
X62537Y-30839D01*
X62565Y-30882D01*
X62594Y-30911D01*
X62623Y-30925D01*
X62265Y-30839D02*
X62237Y-30839D01*
X62208Y-30853D01*
X62194Y-30868D01*
X62180Y-30896D01*
X62165Y-30953D01*
X62165Y-31025D01*
X62180Y-31082D01*
X62194Y-31111D01*
X62208Y-31125D01*
X62237Y-31139D01*
X62265Y-31139D01*
X62294Y-31125D01*
X62308Y-31111D01*
X62323Y-31082D01*
X62337Y-31025D01*
X62337Y-30953D01*
X62323Y-30896D01*
X62308Y-30868D01*
X62294Y-30853D01*
X62265Y-30839D01*
X62065Y-30839D02*
X61880Y-30839D01*
X61980Y-30953D01*
X61937Y-30953D01*
X61908Y-30968D01*
X61894Y-30982D01*
X61880Y-31011D01*
X61880Y-31082D01*
X61894Y-31111D01*
X61908Y-31125D01*
X61937Y-31139D01*
X62023Y-31139D01*
X62051Y-31125D01*
X62065Y-31111D01*
X56241Y-33403D02*
X56341Y-33260D01*
X56412Y-33403D02*
X56412Y-33103D01*
X56298Y-33103D01*
X56269Y-33117D01*
X56255Y-33132D01*
X56241Y-33160D01*
X56241Y-33203D01*
X56255Y-33232D01*
X56269Y-33246D01*
X56298Y-33260D01*
X56412Y-33260D01*
X55955Y-33403D02*
X56126Y-33403D01*
X56041Y-33403D02*
X56041Y-33103D01*
X56069Y-33146D01*
X56098Y-33174D01*
X56126Y-33189D01*
X55769Y-33103D02*
X55741Y-33103D01*
X55712Y-33117D01*
X55698Y-33132D01*
X55684Y-33160D01*
X55669Y-33217D01*
X55669Y-33289D01*
X55684Y-33346D01*
X55698Y-33374D01*
X55712Y-33389D01*
X55741Y-33403D01*
X55769Y-33403D01*
X55798Y-33389D01*
X55812Y-33374D01*
X55826Y-33346D01*
X55841Y-33289D01*
X55841Y-33217D01*
X55826Y-33160D01*
X55812Y-33132D01*
X55798Y-33117D01*
X55769Y-33103D01*
X55398Y-33103D02*
X55541Y-33103D01*
X55555Y-33246D01*
X55541Y-33232D01*
X55512Y-33217D01*
X55441Y-33217D01*
X55412Y-33232D01*
X55398Y-33246D01*
X55384Y-33274D01*
X55384Y-33346D01*
X55398Y-33374D01*
X55412Y-33389D01*
X55441Y-33403D01*
X55512Y-33403D01*
X55541Y-33389D01*
X55555Y-33374D01*
X62737Y-31730D02*
X62837Y-31587D01*
X62908Y-31730D02*
X62908Y-31430D01*
X62794Y-31430D01*
X62765Y-31444D01*
X62751Y-31458D01*
X62737Y-31487D01*
X62737Y-31530D01*
X62751Y-31558D01*
X62765Y-31573D01*
X62794Y-31587D01*
X62908Y-31587D01*
X62451Y-31730D02*
X62623Y-31730D01*
X62537Y-31730D02*
X62537Y-31430D01*
X62565Y-31473D01*
X62594Y-31501D01*
X62623Y-31515D01*
X62265Y-31430D02*
X62237Y-31430D01*
X62208Y-31444D01*
X62194Y-31458D01*
X62180Y-31487D01*
X62165Y-31544D01*
X62165Y-31615D01*
X62180Y-31673D01*
X62194Y-31701D01*
X62208Y-31715D01*
X62237Y-31730D01*
X62265Y-31730D01*
X62294Y-31715D01*
X62308Y-31701D01*
X62323Y-31673D01*
X62337Y-31615D01*
X62337Y-31544D01*
X62323Y-31487D01*
X62308Y-31458D01*
X62294Y-31444D01*
X62265Y-31430D01*
X61994Y-31558D02*
X62023Y-31544D01*
X62037Y-31530D01*
X62051Y-31501D01*
X62051Y-31487D01*
X62037Y-31458D01*
X62023Y-31444D01*
X61994Y-31430D01*
X61937Y-31430D01*
X61908Y-31444D01*
X61894Y-31458D01*
X61880Y-31487D01*
X61880Y-31501D01*
X61894Y-31530D01*
X61908Y-31544D01*
X61937Y-31558D01*
X61994Y-31558D01*
X62023Y-31573D01*
X62037Y-31587D01*
X62051Y-31615D01*
X62051Y-31673D01*
X62037Y-31701D01*
X62023Y-31715D01*
X61994Y-31730D01*
X61937Y-31730D01*
X61908Y-31715D01*
X61894Y-31701D01*
X61880Y-31673D01*
X61880Y-31615D01*
X61894Y-31587D01*
X61908Y-31573D01*
X61937Y-31558D01*
X57619Y-31139D02*
X57719Y-30996D01*
X57790Y-31139D02*
X57790Y-30839D01*
X57676Y-30839D01*
X57647Y-30853D01*
X57633Y-30868D01*
X57619Y-30896D01*
X57619Y-30939D01*
X57633Y-30968D01*
X57647Y-30982D01*
X57676Y-30996D01*
X57790Y-30996D01*
X57333Y-31139D02*
X57504Y-31139D01*
X57419Y-31139D02*
X57419Y-30839D01*
X57447Y-30882D01*
X57476Y-30911D01*
X57504Y-30925D01*
X57147Y-30839D02*
X57119Y-30839D01*
X57090Y-30853D01*
X57076Y-30868D01*
X57062Y-30896D01*
X57047Y-30953D01*
X57047Y-31025D01*
X57062Y-31082D01*
X57076Y-31111D01*
X57090Y-31125D01*
X57119Y-31139D01*
X57147Y-31139D01*
X57176Y-31125D01*
X57190Y-31111D01*
X57204Y-31082D01*
X57219Y-31025D01*
X57219Y-30953D01*
X57204Y-30896D01*
X57190Y-30868D01*
X57176Y-30853D01*
X57147Y-30839D01*
X56762Y-31139D02*
X56933Y-31139D01*
X56847Y-31139D02*
X56847Y-30839D01*
X56876Y-30882D01*
X56904Y-30911D01*
X56933Y-30925D01*
X64115Y-29367D02*
X64215Y-29225D01*
X64286Y-29367D02*
X64286Y-29067D01*
X64172Y-29067D01*
X64143Y-29082D01*
X64129Y-29096D01*
X64115Y-29125D01*
X64115Y-29167D01*
X64129Y-29196D01*
X64143Y-29210D01*
X64172Y-29225D01*
X64286Y-29225D01*
X63829Y-29367D02*
X64000Y-29367D01*
X63915Y-29367D02*
X63915Y-29067D01*
X63943Y-29110D01*
X63972Y-29139D01*
X64000Y-29153D01*
X63643Y-29067D02*
X63615Y-29067D01*
X63586Y-29082D01*
X63572Y-29096D01*
X63558Y-29125D01*
X63543Y-29182D01*
X63543Y-29253D01*
X63558Y-29310D01*
X63572Y-29339D01*
X63586Y-29353D01*
X63615Y-29367D01*
X63643Y-29367D01*
X63672Y-29353D01*
X63686Y-29339D01*
X63700Y-29310D01*
X63715Y-29253D01*
X63715Y-29182D01*
X63700Y-29125D01*
X63686Y-29096D01*
X63672Y-29082D01*
X63643Y-29067D01*
X63286Y-29167D02*
X63286Y-29367D01*
X63358Y-29053D02*
X63429Y-29267D01*
X63243Y-29267D01*
X64115Y-33403D02*
X64215Y-33260D01*
X64286Y-33403D02*
X64286Y-33103D01*
X64172Y-33103D01*
X64143Y-33117D01*
X64129Y-33132D01*
X64115Y-33160D01*
X64115Y-33203D01*
X64129Y-33232D01*
X64143Y-33246D01*
X64172Y-33260D01*
X64286Y-33260D01*
X63829Y-33403D02*
X64000Y-33403D01*
X63915Y-33403D02*
X63915Y-33103D01*
X63943Y-33146D01*
X63972Y-33174D01*
X64000Y-33189D01*
X63643Y-33103D02*
X63615Y-33103D01*
X63586Y-33117D01*
X63572Y-33132D01*
X63558Y-33160D01*
X63543Y-33217D01*
X63543Y-33289D01*
X63558Y-33346D01*
X63572Y-33374D01*
X63586Y-33389D01*
X63615Y-33403D01*
X63643Y-33403D01*
X63672Y-33389D01*
X63686Y-33374D01*
X63700Y-33346D01*
X63715Y-33289D01*
X63715Y-33217D01*
X63700Y-33160D01*
X63686Y-33132D01*
X63672Y-33117D01*
X63643Y-33103D01*
X63443Y-33103D02*
X63243Y-33103D01*
X63372Y-33403D01*
X56241Y-29466D02*
X56341Y-29323D01*
X56412Y-29466D02*
X56412Y-29166D01*
X56298Y-29166D01*
X56269Y-29180D01*
X56255Y-29194D01*
X56241Y-29223D01*
X56241Y-29266D01*
X56255Y-29294D01*
X56269Y-29309D01*
X56298Y-29323D01*
X56412Y-29323D01*
X55955Y-29466D02*
X56126Y-29466D01*
X56041Y-29466D02*
X56041Y-29166D01*
X56069Y-29209D01*
X56098Y-29237D01*
X56126Y-29252D01*
X55769Y-29166D02*
X55741Y-29166D01*
X55712Y-29180D01*
X55698Y-29194D01*
X55684Y-29223D01*
X55669Y-29280D01*
X55669Y-29352D01*
X55684Y-29409D01*
X55698Y-29437D01*
X55712Y-29452D01*
X55741Y-29466D01*
X55769Y-29466D01*
X55798Y-29452D01*
X55812Y-29437D01*
X55826Y-29409D01*
X55841Y-29352D01*
X55841Y-29280D01*
X55826Y-29223D01*
X55812Y-29194D01*
X55798Y-29180D01*
X55769Y-29166D01*
X55555Y-29194D02*
X55541Y-29180D01*
X55512Y-29166D01*
X55441Y-29166D01*
X55412Y-29180D01*
X55398Y-29194D01*
X55384Y-29223D01*
X55384Y-29252D01*
X55398Y-29294D01*
X55569Y-29466D01*
X55384Y-29466D01*
X57619Y-31730D02*
X57719Y-31587D01*
X57790Y-31730D02*
X57790Y-31430D01*
X57676Y-31430D01*
X57647Y-31444D01*
X57633Y-31458D01*
X57619Y-31487D01*
X57619Y-31530D01*
X57633Y-31558D01*
X57647Y-31573D01*
X57676Y-31587D01*
X57790Y-31587D01*
X57333Y-31730D02*
X57504Y-31730D01*
X57419Y-31730D02*
X57419Y-31430D01*
X57447Y-31473D01*
X57476Y-31501D01*
X57504Y-31515D01*
X57147Y-31430D02*
X57119Y-31430D01*
X57090Y-31444D01*
X57076Y-31458D01*
X57062Y-31487D01*
X57047Y-31544D01*
X57047Y-31615D01*
X57062Y-31673D01*
X57076Y-31701D01*
X57090Y-31715D01*
X57119Y-31730D01*
X57147Y-31730D01*
X57176Y-31715D01*
X57190Y-31701D01*
X57204Y-31673D01*
X57219Y-31615D01*
X57219Y-31544D01*
X57204Y-31487D01*
X57190Y-31458D01*
X57176Y-31444D01*
X57147Y-31430D01*
X56790Y-31430D02*
X56847Y-31430D01*
X56876Y-31444D01*
X56890Y-31458D01*
X56919Y-31501D01*
X56933Y-31558D01*
X56933Y-31673D01*
X56919Y-31701D01*
X56904Y-31715D01*
X56876Y-31730D01*
X56819Y-31730D01*
X56790Y-31715D01*
X56776Y-31701D01*
X56762Y-31673D01*
X56762Y-31601D01*
X56776Y-31573D01*
X56790Y-31558D01*
X56819Y-31544D01*
X56876Y-31544D01*
X56904Y-31558D01*
X56919Y-31573D01*
X56933Y-31601D01*
M02*
