G04 (created by PCBNEW (2013-04-21 BZR 4107)-testing) date Thursday, 06 June 2013 16:04:59*
%MOIN*%
G04 Gerber Fmt 3.4, Leading zero omitted, Abs format*
%FSLAX34Y34*%
G01*
G70*
G90*
G04 APERTURE LIST*
%ADD10C,0*%
%ADD11C,0.1378*%
%ADD12C,0.0590551*%
%ADD13C,0.11811*%
%ADD14C,0.0787402*%
%ADD15C,0.01*%
G04 APERTURE END LIST*
G54D10*
G54D11*
X50000Y-51181D03*
X56299Y-25590D03*
G54D12*
X48031Y-39960D03*
X58267Y-36811D03*
X58267Y-47834D03*
X58267Y-44685D03*
X53937Y-47244D03*
X52362Y-39370D03*
X53937Y-39370D03*
X53937Y-23622D03*
X57086Y-22637D03*
X55511Y-22637D03*
X58267Y-24212D03*
X48031Y-36811D03*
X58267Y-39960D03*
X50000Y-48228D03*
X50000Y-40354D03*
X50000Y-32480D03*
X50000Y-25393D03*
X48031Y-28937D03*
X48031Y-24212D03*
X49212Y-22637D03*
X50787Y-22637D03*
X53937Y-29527D03*
X52362Y-29527D03*
X57086Y-30511D03*
X55511Y-30511D03*
X48031Y-47834D03*
X48031Y-44685D03*
X58267Y-32086D03*
X58267Y-28937D03*
X48031Y-32086D03*
G54D13*
X50000Y-40354D02*
X48425Y-40354D01*
X48425Y-40354D02*
X48031Y-39960D01*
G54D14*
X50000Y-38385D02*
X56692Y-38385D01*
X56692Y-38385D02*
X58267Y-36811D01*
G54D13*
X57677Y-47244D02*
X58267Y-47834D01*
X53937Y-47244D02*
X57677Y-47244D01*
G54D14*
X50000Y-40354D02*
X57874Y-40354D01*
X57874Y-40354D02*
X58267Y-39960D01*
G54D13*
X50000Y-40354D02*
X50000Y-48228D01*
X50000Y-32480D02*
X50000Y-38385D01*
X50000Y-38385D02*
X50000Y-40354D01*
X50000Y-25393D02*
X50000Y-32480D01*
G54D10*
G36*
X58775Y-52673D02*
X57631Y-52673D01*
X57631Y-30403D01*
X57549Y-30203D01*
X57395Y-30049D01*
X57238Y-29984D01*
X57238Y-25404D01*
X57095Y-25059D01*
X56831Y-24794D01*
X56486Y-24651D01*
X56113Y-24651D01*
X55768Y-24794D01*
X55503Y-25057D01*
X55360Y-25402D01*
X55360Y-25776D01*
X55502Y-26121D01*
X55766Y-26386D01*
X56111Y-26529D01*
X56485Y-26529D01*
X56830Y-26387D01*
X57094Y-26123D01*
X57238Y-25778D01*
X57238Y-25404D01*
X57238Y-29984D01*
X57195Y-29966D01*
X56978Y-29966D01*
X56778Y-30049D01*
X56624Y-30202D01*
X56541Y-30402D01*
X56541Y-30619D01*
X56624Y-30820D01*
X56777Y-30973D01*
X56977Y-31056D01*
X57194Y-31057D01*
X57395Y-30974D01*
X57548Y-30821D01*
X57631Y-30620D01*
X57631Y-30403D01*
X57631Y-52673D01*
X56057Y-52673D01*
X56057Y-30403D01*
X55974Y-30203D01*
X55821Y-30049D01*
X55620Y-29966D01*
X55403Y-29966D01*
X55203Y-30049D01*
X55049Y-30202D01*
X54966Y-30402D01*
X54966Y-30619D01*
X55049Y-30820D01*
X55202Y-30973D01*
X55402Y-31056D01*
X55619Y-31057D01*
X55820Y-30974D01*
X55973Y-30821D01*
X56056Y-30620D01*
X56057Y-30403D01*
X56057Y-52673D01*
X54482Y-52673D01*
X54482Y-29419D01*
X54399Y-29219D01*
X54246Y-29065D01*
X54045Y-28982D01*
X53829Y-28982D01*
X53628Y-29065D01*
X53475Y-29218D01*
X53391Y-29418D01*
X53391Y-29635D01*
X53474Y-29836D01*
X53627Y-29989D01*
X53828Y-30072D01*
X54044Y-30072D01*
X54245Y-29990D01*
X54399Y-29836D01*
X54482Y-29636D01*
X54482Y-29419D01*
X54482Y-52673D01*
X52907Y-52673D01*
X52907Y-29419D01*
X52824Y-29219D01*
X52671Y-29065D01*
X52471Y-28982D01*
X52254Y-28982D01*
X52053Y-29065D01*
X51900Y-29218D01*
X51817Y-29418D01*
X51816Y-29635D01*
X51899Y-29836D01*
X52052Y-29989D01*
X52253Y-30072D01*
X52470Y-30072D01*
X52670Y-29990D01*
X52824Y-29836D01*
X52907Y-29636D01*
X52907Y-29419D01*
X52907Y-52673D01*
X51332Y-52673D01*
X51332Y-22529D01*
X51249Y-22329D01*
X51096Y-22175D01*
X50896Y-22092D01*
X50679Y-22092D01*
X50478Y-22175D01*
X50325Y-22328D01*
X50242Y-22528D01*
X50242Y-22745D01*
X50324Y-22946D01*
X50478Y-23099D01*
X50678Y-23182D01*
X50895Y-23183D01*
X51095Y-23100D01*
X51249Y-22947D01*
X51332Y-22746D01*
X51332Y-22529D01*
X51332Y-52673D01*
X50939Y-52673D01*
X50939Y-50995D01*
X50796Y-50649D01*
X50532Y-50385D01*
X50187Y-50242D01*
X49814Y-50241D01*
X49757Y-50265D01*
X49757Y-22529D01*
X49675Y-22329D01*
X49521Y-22175D01*
X49321Y-22092D01*
X49104Y-22092D01*
X48904Y-22175D01*
X48750Y-22328D01*
X48667Y-22528D01*
X48667Y-22745D01*
X48750Y-22946D01*
X48903Y-23099D01*
X49103Y-23182D01*
X49320Y-23183D01*
X49521Y-23100D01*
X49674Y-22947D01*
X49757Y-22746D01*
X49757Y-22529D01*
X49757Y-50265D01*
X49468Y-50384D01*
X49204Y-50648D01*
X49061Y-50993D01*
X49060Y-51367D01*
X49203Y-51712D01*
X49467Y-51976D01*
X49812Y-52119D01*
X50185Y-52120D01*
X50531Y-51977D01*
X50795Y-51713D01*
X50938Y-51368D01*
X50939Y-50995D01*
X50939Y-52673D01*
X47523Y-52673D01*
X47523Y-48033D01*
X47568Y-48143D01*
X47722Y-48296D01*
X47922Y-48379D01*
X48139Y-48380D01*
X48339Y-48297D01*
X48493Y-48143D01*
X48576Y-47943D01*
X48576Y-47726D01*
X48494Y-47526D01*
X48340Y-47372D01*
X48140Y-47289D01*
X47923Y-47289D01*
X47723Y-47372D01*
X47569Y-47525D01*
X47523Y-47635D01*
X47523Y-44883D01*
X47568Y-44993D01*
X47722Y-45147D01*
X47922Y-45230D01*
X48139Y-45230D01*
X48339Y-45147D01*
X48493Y-44994D01*
X48576Y-44793D01*
X48576Y-44577D01*
X48494Y-44376D01*
X48340Y-44223D01*
X48140Y-44139D01*
X47923Y-44139D01*
X47723Y-44222D01*
X47569Y-44375D01*
X47523Y-44486D01*
X47523Y-32285D01*
X47568Y-32395D01*
X47722Y-32548D01*
X47922Y-32631D01*
X48139Y-32631D01*
X48339Y-32549D01*
X48493Y-32395D01*
X48576Y-32195D01*
X48576Y-31978D01*
X48494Y-31778D01*
X48340Y-31624D01*
X48140Y-31541D01*
X47923Y-31541D01*
X47723Y-31624D01*
X47569Y-31777D01*
X47523Y-31887D01*
X47523Y-29135D01*
X47568Y-29245D01*
X47722Y-29399D01*
X47922Y-29482D01*
X48139Y-29482D01*
X48339Y-29399D01*
X48493Y-29246D01*
X48576Y-29045D01*
X48576Y-28829D01*
X48494Y-28628D01*
X48340Y-28475D01*
X48140Y-28391D01*
X47923Y-28391D01*
X47723Y-28474D01*
X47569Y-28627D01*
X47523Y-28738D01*
X47523Y-24411D01*
X47568Y-24521D01*
X47722Y-24674D01*
X47922Y-24757D01*
X48139Y-24757D01*
X48339Y-24675D01*
X48493Y-24521D01*
X48576Y-24321D01*
X48576Y-24104D01*
X48494Y-23904D01*
X48340Y-23750D01*
X48140Y-23667D01*
X47923Y-23667D01*
X47723Y-23750D01*
X47569Y-23903D01*
X47523Y-24013D01*
X47523Y-21933D01*
X58775Y-21933D01*
X58775Y-28738D01*
X58730Y-28628D01*
X58576Y-28475D01*
X58376Y-28391D01*
X58159Y-28391D01*
X57959Y-28474D01*
X57805Y-28627D01*
X57722Y-28828D01*
X57722Y-29044D01*
X57805Y-29245D01*
X57958Y-29399D01*
X58158Y-29482D01*
X58375Y-29482D01*
X58576Y-29399D01*
X58729Y-29246D01*
X58775Y-29135D01*
X58775Y-31887D01*
X58730Y-31778D01*
X58576Y-31624D01*
X58376Y-31541D01*
X58159Y-31541D01*
X57959Y-31624D01*
X57805Y-31777D01*
X57722Y-31977D01*
X57722Y-32194D01*
X57805Y-32395D01*
X57958Y-32548D01*
X58158Y-32631D01*
X58375Y-32631D01*
X58576Y-32549D01*
X58729Y-32395D01*
X58775Y-32285D01*
X58775Y-52673D01*
X58775Y-52673D01*
G37*
G54D15*
X58775Y-52673D02*
X57631Y-52673D01*
X57631Y-30403D01*
X57549Y-30203D01*
X57395Y-30049D01*
X57238Y-29984D01*
X57238Y-25404D01*
X57095Y-25059D01*
X56831Y-24794D01*
X56486Y-24651D01*
X56113Y-24651D01*
X55768Y-24794D01*
X55503Y-25057D01*
X55360Y-25402D01*
X55360Y-25776D01*
X55502Y-26121D01*
X55766Y-26386D01*
X56111Y-26529D01*
X56485Y-26529D01*
X56830Y-26387D01*
X57094Y-26123D01*
X57238Y-25778D01*
X57238Y-25404D01*
X57238Y-29984D01*
X57195Y-29966D01*
X56978Y-29966D01*
X56778Y-30049D01*
X56624Y-30202D01*
X56541Y-30402D01*
X56541Y-30619D01*
X56624Y-30820D01*
X56777Y-30973D01*
X56977Y-31056D01*
X57194Y-31057D01*
X57395Y-30974D01*
X57548Y-30821D01*
X57631Y-30620D01*
X57631Y-30403D01*
X57631Y-52673D01*
X56057Y-52673D01*
X56057Y-30403D01*
X55974Y-30203D01*
X55821Y-30049D01*
X55620Y-29966D01*
X55403Y-29966D01*
X55203Y-30049D01*
X55049Y-30202D01*
X54966Y-30402D01*
X54966Y-30619D01*
X55049Y-30820D01*
X55202Y-30973D01*
X55402Y-31056D01*
X55619Y-31057D01*
X55820Y-30974D01*
X55973Y-30821D01*
X56056Y-30620D01*
X56057Y-30403D01*
X56057Y-52673D01*
X54482Y-52673D01*
X54482Y-29419D01*
X54399Y-29219D01*
X54246Y-29065D01*
X54045Y-28982D01*
X53829Y-28982D01*
X53628Y-29065D01*
X53475Y-29218D01*
X53391Y-29418D01*
X53391Y-29635D01*
X53474Y-29836D01*
X53627Y-29989D01*
X53828Y-30072D01*
X54044Y-30072D01*
X54245Y-29990D01*
X54399Y-29836D01*
X54482Y-29636D01*
X54482Y-29419D01*
X54482Y-52673D01*
X52907Y-52673D01*
X52907Y-29419D01*
X52824Y-29219D01*
X52671Y-29065D01*
X52471Y-28982D01*
X52254Y-28982D01*
X52053Y-29065D01*
X51900Y-29218D01*
X51817Y-29418D01*
X51816Y-29635D01*
X51899Y-29836D01*
X52052Y-29989D01*
X52253Y-30072D01*
X52470Y-30072D01*
X52670Y-29990D01*
X52824Y-29836D01*
X52907Y-29636D01*
X52907Y-29419D01*
X52907Y-52673D01*
X51332Y-52673D01*
X51332Y-22529D01*
X51249Y-22329D01*
X51096Y-22175D01*
X50896Y-22092D01*
X50679Y-22092D01*
X50478Y-22175D01*
X50325Y-22328D01*
X50242Y-22528D01*
X50242Y-22745D01*
X50324Y-22946D01*
X50478Y-23099D01*
X50678Y-23182D01*
X50895Y-23183D01*
X51095Y-23100D01*
X51249Y-22947D01*
X51332Y-22746D01*
X51332Y-22529D01*
X51332Y-52673D01*
X50939Y-52673D01*
X50939Y-50995D01*
X50796Y-50649D01*
X50532Y-50385D01*
X50187Y-50242D01*
X49814Y-50241D01*
X49757Y-50265D01*
X49757Y-22529D01*
X49675Y-22329D01*
X49521Y-22175D01*
X49321Y-22092D01*
X49104Y-22092D01*
X48904Y-22175D01*
X48750Y-22328D01*
X48667Y-22528D01*
X48667Y-22745D01*
X48750Y-22946D01*
X48903Y-23099D01*
X49103Y-23182D01*
X49320Y-23183D01*
X49521Y-23100D01*
X49674Y-22947D01*
X49757Y-22746D01*
X49757Y-22529D01*
X49757Y-50265D01*
X49468Y-50384D01*
X49204Y-50648D01*
X49061Y-50993D01*
X49060Y-51367D01*
X49203Y-51712D01*
X49467Y-51976D01*
X49812Y-52119D01*
X50185Y-52120D01*
X50531Y-51977D01*
X50795Y-51713D01*
X50938Y-51368D01*
X50939Y-50995D01*
X50939Y-52673D01*
X47523Y-52673D01*
X47523Y-48033D01*
X47568Y-48143D01*
X47722Y-48296D01*
X47922Y-48379D01*
X48139Y-48380D01*
X48339Y-48297D01*
X48493Y-48143D01*
X48576Y-47943D01*
X48576Y-47726D01*
X48494Y-47526D01*
X48340Y-47372D01*
X48140Y-47289D01*
X47923Y-47289D01*
X47723Y-47372D01*
X47569Y-47525D01*
X47523Y-47635D01*
X47523Y-44883D01*
X47568Y-44993D01*
X47722Y-45147D01*
X47922Y-45230D01*
X48139Y-45230D01*
X48339Y-45147D01*
X48493Y-44994D01*
X48576Y-44793D01*
X48576Y-44577D01*
X48494Y-44376D01*
X48340Y-44223D01*
X48140Y-44139D01*
X47923Y-44139D01*
X47723Y-44222D01*
X47569Y-44375D01*
X47523Y-44486D01*
X47523Y-32285D01*
X47568Y-32395D01*
X47722Y-32548D01*
X47922Y-32631D01*
X48139Y-32631D01*
X48339Y-32549D01*
X48493Y-32395D01*
X48576Y-32195D01*
X48576Y-31978D01*
X48494Y-31778D01*
X48340Y-31624D01*
X48140Y-31541D01*
X47923Y-31541D01*
X47723Y-31624D01*
X47569Y-31777D01*
X47523Y-31887D01*
X47523Y-29135D01*
X47568Y-29245D01*
X47722Y-29399D01*
X47922Y-29482D01*
X48139Y-29482D01*
X48339Y-29399D01*
X48493Y-29246D01*
X48576Y-29045D01*
X48576Y-28829D01*
X48494Y-28628D01*
X48340Y-28475D01*
X48140Y-28391D01*
X47923Y-28391D01*
X47723Y-28474D01*
X47569Y-28627D01*
X47523Y-28738D01*
X47523Y-24411D01*
X47568Y-24521D01*
X47722Y-24674D01*
X47922Y-24757D01*
X48139Y-24757D01*
X48339Y-24675D01*
X48493Y-24521D01*
X48576Y-24321D01*
X48576Y-24104D01*
X48494Y-23904D01*
X48340Y-23750D01*
X48140Y-23667D01*
X47923Y-23667D01*
X47723Y-23750D01*
X47569Y-23903D01*
X47523Y-24013D01*
X47523Y-21933D01*
X58775Y-21933D01*
X58775Y-28738D01*
X58730Y-28628D01*
X58576Y-28475D01*
X58376Y-28391D01*
X58159Y-28391D01*
X57959Y-28474D01*
X57805Y-28627D01*
X57722Y-28828D01*
X57722Y-29044D01*
X57805Y-29245D01*
X57958Y-29399D01*
X58158Y-29482D01*
X58375Y-29482D01*
X58576Y-29399D01*
X58729Y-29246D01*
X58775Y-29135D01*
X58775Y-31887D01*
X58730Y-31778D01*
X58576Y-31624D01*
X58376Y-31541D01*
X58159Y-31541D01*
X57959Y-31624D01*
X57805Y-31777D01*
X57722Y-31977D01*
X57722Y-32194D01*
X57805Y-32395D01*
X57958Y-32548D01*
X58158Y-32631D01*
X58375Y-32631D01*
X58576Y-32549D01*
X58729Y-32395D01*
X58775Y-32285D01*
X58775Y-52673D01*
M02*
