M48
;DRILL file {Pcbnew (2013-04-21 BZR 4107)-testing} date Thursday, 06 June 2013 16:05:13
;FORMAT={-:-/ absolute / inch / decimal}
FMAT,2
INCH,TZ
T1C0.020
T2C0.138
%
G90
G05
M72
T1
X4.8031Y-2.4213
X4.8031Y-2.8937
X4.8031Y-3.2087
X4.8031Y-3.6811
X4.8031Y-3.9961
X4.8031Y-4.4685
X4.8031Y-4.7835
X4.9213Y-2.2638
X5.Y-2.5394
X5.Y-3.248
X5.Y-4.0354
X5.Y-4.8228
X5.0787Y-2.2638
X5.2362Y-2.9528
X5.2362Y-3.937
X5.3937Y-2.3622
X5.3937Y-2.9528
X5.3937Y-3.937
X5.3937Y-4.7244
X5.5512Y-2.2638
X5.5512Y-3.0512
X5.7087Y-2.2638
X5.7087Y-3.0512
X5.8268Y-2.4213
X5.8268Y-2.8937
X5.8268Y-3.2087
X5.8268Y-3.6811
X5.8268Y-3.9961
X5.8268Y-4.4685
X5.8268Y-4.7835
T2
X5.Y-5.1181
X5.6299Y-2.5591
T0
M30
