G04 (created by PCBNEW (2013-04-21 BZR 4107)-testing) date Thursday, 06 June 2013 16:04:59*
%MOIN*%
G04 Gerber Fmt 3.4, Leading zero omitted, Abs format*
%FSLAX34Y34*%
G01*
G70*
G90*
G04 APERTURE LIST*
%ADD10C,0*%
%ADD11C,0.00984252*%
%ADD12C,0.00787402*%
G04 APERTURE END LIST*
G54D10*
G54D11*
X45097Y-35653D02*
X45097Y-35915D01*
X44703Y-35747D01*
X44703Y-36084D02*
X44703Y-36159D01*
X44722Y-36197D01*
X44741Y-36215D01*
X44797Y-36253D01*
X44872Y-36272D01*
X45022Y-36272D01*
X45059Y-36253D01*
X45078Y-36234D01*
X45097Y-36197D01*
X45097Y-36122D01*
X45078Y-36084D01*
X45059Y-36065D01*
X45022Y-36047D01*
X44928Y-36047D01*
X44891Y-36065D01*
X44872Y-36084D01*
X44853Y-36122D01*
X44853Y-36197D01*
X44872Y-36234D01*
X44891Y-36253D01*
X44928Y-36272D01*
X44741Y-36440D02*
X44722Y-36459D01*
X44703Y-36440D01*
X44722Y-36422D01*
X44741Y-36440D01*
X44703Y-36440D01*
X45097Y-36815D02*
X45097Y-36628D01*
X44910Y-36609D01*
X44928Y-36628D01*
X44947Y-36665D01*
X44947Y-36759D01*
X44928Y-36796D01*
X44910Y-36815D01*
X44872Y-36834D01*
X44778Y-36834D01*
X44741Y-36815D01*
X44722Y-36796D01*
X44703Y-36759D01*
X44703Y-36665D01*
X44722Y-36628D01*
X44741Y-36609D01*
X45097Y-37078D02*
X45097Y-37115D01*
X45078Y-37153D01*
X45059Y-37171D01*
X45022Y-37190D01*
X44947Y-37209D01*
X44853Y-37209D01*
X44778Y-37190D01*
X44741Y-37171D01*
X44722Y-37153D01*
X44703Y-37115D01*
X44703Y-37078D01*
X44722Y-37040D01*
X44741Y-37021D01*
X44778Y-37003D01*
X44853Y-36984D01*
X44947Y-36984D01*
X45022Y-37003D01*
X45059Y-37021D01*
X45078Y-37040D01*
X45097Y-37078D01*
X45097Y-37453D02*
X45097Y-37490D01*
X45078Y-37528D01*
X45059Y-37546D01*
X45022Y-37565D01*
X44947Y-37584D01*
X44853Y-37584D01*
X44778Y-37565D01*
X44741Y-37546D01*
X44722Y-37528D01*
X44703Y-37490D01*
X44703Y-37453D01*
X44722Y-37415D01*
X44741Y-37396D01*
X44778Y-37378D01*
X44853Y-37359D01*
X44947Y-37359D01*
X45022Y-37378D01*
X45059Y-37396D01*
X45078Y-37415D01*
X45097Y-37453D01*
X44703Y-38053D02*
X44966Y-38053D01*
X44928Y-38053D02*
X44947Y-38071D01*
X44966Y-38109D01*
X44966Y-38165D01*
X44947Y-38203D01*
X44910Y-38221D01*
X44703Y-38221D01*
X44910Y-38221D02*
X44947Y-38240D01*
X44966Y-38278D01*
X44966Y-38334D01*
X44947Y-38371D01*
X44910Y-38390D01*
X44703Y-38390D01*
X44703Y-38577D02*
X44966Y-38577D01*
X44928Y-38577D02*
X44947Y-38596D01*
X44966Y-38634D01*
X44966Y-38690D01*
X44947Y-38727D01*
X44910Y-38746D01*
X44703Y-38746D01*
X44910Y-38746D02*
X44947Y-38765D01*
X44966Y-38802D01*
X44966Y-38859D01*
X44947Y-38896D01*
X44910Y-38915D01*
X44703Y-38915D01*
X45275Y-21653D02*
X45275Y-52952D01*
X47244Y-21653D02*
X44488Y-21653D01*
X47244Y-52952D02*
X44488Y-52952D01*
X45275Y-52952D02*
X45044Y-52509D01*
X45275Y-52952D02*
X45506Y-52509D01*
X45275Y-21653D02*
X45044Y-22097D01*
X45275Y-21653D02*
X45506Y-22097D01*
X45884Y-22215D02*
X45884Y-21991D01*
X45884Y-22103D02*
X46278Y-22103D01*
X46222Y-22065D01*
X46184Y-22028D01*
X46166Y-21991D01*
X46278Y-22459D02*
X46278Y-22497D01*
X46259Y-22534D01*
X46241Y-22553D01*
X46203Y-22572D01*
X46128Y-22590D01*
X46034Y-22590D01*
X45959Y-22572D01*
X45922Y-22553D01*
X45903Y-22534D01*
X45884Y-22497D01*
X45884Y-22459D01*
X45903Y-22422D01*
X45922Y-22403D01*
X45959Y-22384D01*
X46034Y-22365D01*
X46128Y-22365D01*
X46203Y-22384D01*
X46241Y-22403D01*
X46259Y-22422D01*
X46278Y-22459D01*
X45922Y-22759D02*
X45903Y-22778D01*
X45884Y-22759D01*
X45903Y-22740D01*
X45922Y-22759D01*
X45884Y-22759D01*
X46278Y-23022D02*
X46278Y-23059D01*
X46259Y-23097D01*
X46241Y-23115D01*
X46203Y-23134D01*
X46128Y-23153D01*
X46034Y-23153D01*
X45959Y-23134D01*
X45922Y-23115D01*
X45903Y-23097D01*
X45884Y-23059D01*
X45884Y-23022D01*
X45903Y-22984D01*
X45922Y-22965D01*
X45959Y-22947D01*
X46034Y-22928D01*
X46128Y-22928D01*
X46203Y-22947D01*
X46241Y-22965D01*
X46259Y-22984D01*
X46278Y-23022D01*
X46278Y-23397D02*
X46278Y-23434D01*
X46259Y-23472D01*
X46241Y-23490D01*
X46203Y-23509D01*
X46128Y-23528D01*
X46034Y-23528D01*
X45959Y-23509D01*
X45922Y-23490D01*
X45903Y-23472D01*
X45884Y-23434D01*
X45884Y-23397D01*
X45903Y-23359D01*
X45922Y-23340D01*
X45959Y-23322D01*
X46034Y-23303D01*
X46128Y-23303D01*
X46203Y-23322D01*
X46241Y-23340D01*
X46259Y-23359D01*
X46278Y-23397D01*
X46278Y-23772D02*
X46278Y-23809D01*
X46259Y-23847D01*
X46241Y-23865D01*
X46203Y-23884D01*
X46128Y-23903D01*
X46034Y-23903D01*
X45959Y-23884D01*
X45922Y-23865D01*
X45903Y-23847D01*
X45884Y-23809D01*
X45884Y-23772D01*
X45903Y-23734D01*
X45922Y-23715D01*
X45959Y-23697D01*
X46034Y-23678D01*
X46128Y-23678D01*
X46203Y-23697D01*
X46241Y-23715D01*
X46259Y-23734D01*
X46278Y-23772D01*
X45884Y-24371D02*
X46147Y-24371D01*
X46109Y-24371D02*
X46128Y-24390D01*
X46147Y-24428D01*
X46147Y-24484D01*
X46128Y-24521D01*
X46091Y-24540D01*
X45884Y-24540D01*
X46091Y-24540D02*
X46128Y-24559D01*
X46147Y-24596D01*
X46147Y-24653D01*
X46128Y-24690D01*
X46091Y-24709D01*
X45884Y-24709D01*
X45884Y-24896D02*
X46147Y-24896D01*
X46109Y-24896D02*
X46128Y-24915D01*
X46147Y-24953D01*
X46147Y-25009D01*
X46128Y-25046D01*
X46091Y-25065D01*
X45884Y-25065D01*
X46091Y-25065D02*
X46128Y-25084D01*
X46147Y-25121D01*
X46147Y-25178D01*
X46128Y-25215D01*
X46091Y-25234D01*
X45884Y-25234D01*
X46456Y-21653D02*
X46456Y-25590D01*
X56299Y-21653D02*
X45669Y-21653D01*
X56299Y-25590D02*
X45669Y-25590D01*
X46456Y-25590D02*
X46225Y-25147D01*
X46456Y-25590D02*
X46687Y-25147D01*
X46456Y-21653D02*
X46225Y-22097D01*
X46456Y-21653D02*
X46687Y-22097D01*
X46278Y-36942D02*
X46278Y-36867D01*
X46259Y-36829D01*
X46241Y-36811D01*
X46184Y-36773D01*
X46109Y-36754D01*
X45959Y-36754D01*
X45922Y-36773D01*
X45903Y-36792D01*
X45884Y-36829D01*
X45884Y-36904D01*
X45903Y-36942D01*
X45922Y-36961D01*
X45959Y-36979D01*
X46053Y-36979D01*
X46091Y-36961D01*
X46109Y-36942D01*
X46128Y-36904D01*
X46128Y-36829D01*
X46109Y-36792D01*
X46091Y-36773D01*
X46053Y-36754D01*
X46278Y-37335D02*
X46278Y-37148D01*
X46091Y-37129D01*
X46109Y-37148D01*
X46128Y-37185D01*
X46128Y-37279D01*
X46109Y-37317D01*
X46091Y-37335D01*
X46053Y-37354D01*
X45959Y-37354D01*
X45922Y-37335D01*
X45903Y-37317D01*
X45884Y-37279D01*
X45884Y-37185D01*
X45903Y-37148D01*
X45922Y-37129D01*
X45922Y-37523D02*
X45903Y-37542D01*
X45884Y-37523D01*
X45903Y-37504D01*
X45922Y-37523D01*
X45884Y-37523D01*
X46278Y-37785D02*
X46278Y-37823D01*
X46259Y-37860D01*
X46241Y-37879D01*
X46203Y-37898D01*
X46128Y-37917D01*
X46034Y-37917D01*
X45959Y-37898D01*
X45922Y-37879D01*
X45903Y-37860D01*
X45884Y-37823D01*
X45884Y-37785D01*
X45903Y-37748D01*
X45922Y-37729D01*
X45959Y-37710D01*
X46034Y-37692D01*
X46128Y-37692D01*
X46203Y-37710D01*
X46241Y-37729D01*
X46259Y-37748D01*
X46278Y-37785D01*
X46278Y-38160D02*
X46278Y-38198D01*
X46259Y-38235D01*
X46241Y-38254D01*
X46203Y-38273D01*
X46128Y-38292D01*
X46034Y-38292D01*
X45959Y-38273D01*
X45922Y-38254D01*
X45903Y-38235D01*
X45884Y-38198D01*
X45884Y-38160D01*
X45903Y-38123D01*
X45922Y-38104D01*
X45959Y-38085D01*
X46034Y-38067D01*
X46128Y-38067D01*
X46203Y-38085D01*
X46241Y-38104D01*
X46259Y-38123D01*
X46278Y-38160D01*
X46278Y-38535D02*
X46278Y-38573D01*
X46259Y-38610D01*
X46241Y-38629D01*
X46203Y-38648D01*
X46128Y-38667D01*
X46034Y-38667D01*
X45959Y-38648D01*
X45922Y-38629D01*
X45903Y-38610D01*
X45884Y-38573D01*
X45884Y-38535D01*
X45903Y-38498D01*
X45922Y-38479D01*
X45959Y-38460D01*
X46034Y-38442D01*
X46128Y-38442D01*
X46203Y-38460D01*
X46241Y-38479D01*
X46259Y-38498D01*
X46278Y-38535D01*
X45884Y-39135D02*
X46147Y-39135D01*
X46109Y-39135D02*
X46128Y-39154D01*
X46147Y-39191D01*
X46147Y-39248D01*
X46128Y-39285D01*
X46091Y-39304D01*
X45884Y-39304D01*
X46091Y-39304D02*
X46128Y-39323D01*
X46147Y-39360D01*
X46147Y-39416D01*
X46128Y-39454D01*
X46091Y-39473D01*
X45884Y-39473D01*
X45884Y-39660D02*
X46147Y-39660D01*
X46109Y-39660D02*
X46128Y-39679D01*
X46147Y-39716D01*
X46147Y-39773D01*
X46128Y-39810D01*
X46091Y-39829D01*
X45884Y-39829D01*
X46091Y-39829D02*
X46128Y-39848D01*
X46147Y-39885D01*
X46147Y-39941D01*
X46128Y-39979D01*
X46091Y-39998D01*
X45884Y-39998D01*
X46456Y-25590D02*
X46456Y-51181D01*
X50000Y-25590D02*
X45669Y-25590D01*
X50000Y-51181D02*
X45669Y-51181D01*
X46456Y-51181D02*
X46225Y-50737D01*
X46456Y-51181D02*
X46687Y-50737D01*
X46456Y-25590D02*
X46225Y-26034D01*
X46456Y-25590D02*
X46687Y-26034D01*
X46147Y-50810D02*
X45884Y-50810D01*
X46297Y-50717D02*
X46016Y-50623D01*
X46016Y-50867D01*
X45922Y-51017D02*
X45903Y-51035D01*
X45884Y-51017D01*
X45903Y-50998D01*
X45922Y-51017D01*
X45884Y-51017D01*
X46278Y-51392D02*
X46278Y-51204D01*
X46091Y-51185D01*
X46109Y-51204D01*
X46128Y-51242D01*
X46128Y-51335D01*
X46109Y-51373D01*
X46091Y-51392D01*
X46053Y-51410D01*
X45959Y-51410D01*
X45922Y-51392D01*
X45903Y-51373D01*
X45884Y-51335D01*
X45884Y-51242D01*
X45903Y-51204D01*
X45922Y-51185D01*
X46278Y-51654D02*
X46278Y-51691D01*
X46259Y-51729D01*
X46241Y-51748D01*
X46203Y-51766D01*
X46128Y-51785D01*
X46034Y-51785D01*
X45959Y-51766D01*
X45922Y-51748D01*
X45903Y-51729D01*
X45884Y-51691D01*
X45884Y-51654D01*
X45903Y-51616D01*
X45922Y-51598D01*
X45959Y-51579D01*
X46034Y-51560D01*
X46128Y-51560D01*
X46203Y-51579D01*
X46241Y-51598D01*
X46259Y-51616D01*
X46278Y-51654D01*
X46278Y-52029D02*
X46278Y-52066D01*
X46259Y-52104D01*
X46241Y-52123D01*
X46203Y-52141D01*
X46128Y-52160D01*
X46034Y-52160D01*
X45959Y-52141D01*
X45922Y-52123D01*
X45903Y-52104D01*
X45884Y-52066D01*
X45884Y-52029D01*
X45903Y-51991D01*
X45922Y-51973D01*
X45959Y-51954D01*
X46034Y-51935D01*
X46128Y-51935D01*
X46203Y-51954D01*
X46241Y-51973D01*
X46259Y-51991D01*
X46278Y-52029D01*
X45884Y-52629D02*
X46147Y-52629D01*
X46109Y-52629D02*
X46128Y-52648D01*
X46147Y-52685D01*
X46147Y-52741D01*
X46128Y-52779D01*
X46091Y-52798D01*
X45884Y-52798D01*
X46091Y-52798D02*
X46128Y-52816D01*
X46147Y-52854D01*
X46147Y-52910D01*
X46128Y-52948D01*
X46091Y-52966D01*
X45884Y-52966D01*
X45884Y-53154D02*
X46147Y-53154D01*
X46109Y-53154D02*
X46128Y-53173D01*
X46147Y-53210D01*
X46147Y-53266D01*
X46128Y-53304D01*
X46091Y-53323D01*
X45884Y-53323D01*
X46091Y-53323D02*
X46128Y-53341D01*
X46147Y-53379D01*
X46147Y-53435D01*
X46128Y-53473D01*
X46091Y-53491D01*
X45884Y-53491D01*
X46456Y-51181D02*
X46456Y-52952D01*
X50000Y-51181D02*
X45669Y-51181D01*
X50000Y-52952D02*
X45669Y-52952D01*
X46456Y-52952D02*
X46225Y-52509D01*
X46456Y-52952D02*
X46687Y-52509D01*
X46456Y-51181D02*
X46225Y-51624D01*
X46456Y-51181D02*
X46687Y-51624D01*
X51499Y-56674D02*
X51743Y-56674D01*
X51612Y-56824D01*
X51668Y-56824D01*
X51706Y-56842D01*
X51724Y-56861D01*
X51743Y-56899D01*
X51743Y-56992D01*
X51724Y-57030D01*
X51706Y-57049D01*
X51668Y-57067D01*
X51556Y-57067D01*
X51518Y-57049D01*
X51499Y-57030D01*
X51987Y-56674D02*
X52024Y-56674D01*
X52062Y-56692D01*
X52080Y-56711D01*
X52099Y-56749D01*
X52118Y-56824D01*
X52118Y-56917D01*
X52099Y-56992D01*
X52080Y-57030D01*
X52062Y-57049D01*
X52024Y-57067D01*
X51987Y-57067D01*
X51949Y-57049D01*
X51931Y-57030D01*
X51912Y-56992D01*
X51893Y-56917D01*
X51893Y-56824D01*
X51912Y-56749D01*
X51931Y-56711D01*
X51949Y-56692D01*
X51987Y-56674D01*
X52287Y-57030D02*
X52305Y-57049D01*
X52287Y-57067D01*
X52268Y-57049D01*
X52287Y-57030D01*
X52287Y-57067D01*
X52549Y-56674D02*
X52587Y-56674D01*
X52624Y-56692D01*
X52643Y-56711D01*
X52662Y-56749D01*
X52680Y-56824D01*
X52680Y-56917D01*
X52662Y-56992D01*
X52643Y-57030D01*
X52624Y-57049D01*
X52587Y-57067D01*
X52549Y-57067D01*
X52512Y-57049D01*
X52493Y-57030D01*
X52474Y-56992D01*
X52455Y-56917D01*
X52455Y-56824D01*
X52474Y-56749D01*
X52493Y-56711D01*
X52512Y-56692D01*
X52549Y-56674D01*
X52924Y-56674D02*
X52962Y-56674D01*
X52999Y-56692D01*
X53018Y-56711D01*
X53037Y-56749D01*
X53055Y-56824D01*
X53055Y-56917D01*
X53037Y-56992D01*
X53018Y-57030D01*
X52999Y-57049D01*
X52962Y-57067D01*
X52924Y-57067D01*
X52887Y-57049D01*
X52868Y-57030D01*
X52849Y-56992D01*
X52830Y-56917D01*
X52830Y-56824D01*
X52849Y-56749D01*
X52868Y-56711D01*
X52887Y-56692D01*
X52924Y-56674D01*
X53299Y-56674D02*
X53337Y-56674D01*
X53374Y-56692D01*
X53393Y-56711D01*
X53412Y-56749D01*
X53430Y-56824D01*
X53430Y-56917D01*
X53412Y-56992D01*
X53393Y-57030D01*
X53374Y-57049D01*
X53337Y-57067D01*
X53299Y-57067D01*
X53262Y-57049D01*
X53243Y-57030D01*
X53224Y-56992D01*
X53205Y-56917D01*
X53205Y-56824D01*
X53224Y-56749D01*
X53243Y-56711D01*
X53262Y-56692D01*
X53299Y-56674D01*
X53899Y-57067D02*
X53899Y-56805D01*
X53899Y-56842D02*
X53918Y-56824D01*
X53955Y-56805D01*
X54011Y-56805D01*
X54049Y-56824D01*
X54068Y-56861D01*
X54068Y-57067D01*
X54068Y-56861D02*
X54086Y-56824D01*
X54124Y-56805D01*
X54180Y-56805D01*
X54218Y-56824D01*
X54236Y-56861D01*
X54236Y-57067D01*
X54424Y-57067D02*
X54424Y-56805D01*
X54424Y-56842D02*
X54443Y-56824D01*
X54480Y-56805D01*
X54536Y-56805D01*
X54574Y-56824D01*
X54593Y-56861D01*
X54593Y-57067D01*
X54593Y-56861D02*
X54611Y-56824D01*
X54649Y-56805D01*
X54705Y-56805D01*
X54743Y-56824D01*
X54761Y-56861D01*
X54761Y-57067D01*
X47244Y-56496D02*
X59055Y-56496D01*
X47244Y-52952D02*
X47244Y-57283D01*
X59055Y-52952D02*
X59055Y-57283D01*
X59055Y-56496D02*
X58611Y-56726D01*
X59055Y-56496D02*
X58611Y-56265D01*
X47244Y-56496D02*
X47687Y-56726D01*
X47244Y-56496D02*
X47687Y-56265D01*
X51893Y-55427D02*
X51893Y-55689D01*
X51799Y-55277D02*
X51706Y-55558D01*
X51949Y-55558D01*
X52099Y-55652D02*
X52118Y-55671D01*
X52099Y-55689D01*
X52080Y-55671D01*
X52099Y-55652D01*
X52099Y-55689D01*
X52362Y-55296D02*
X52399Y-55296D01*
X52437Y-55314D01*
X52455Y-55333D01*
X52474Y-55371D01*
X52493Y-55446D01*
X52493Y-55539D01*
X52474Y-55614D01*
X52455Y-55652D01*
X52437Y-55671D01*
X52399Y-55689D01*
X52362Y-55689D01*
X52324Y-55671D01*
X52305Y-55652D01*
X52287Y-55614D01*
X52268Y-55539D01*
X52268Y-55446D01*
X52287Y-55371D01*
X52305Y-55333D01*
X52324Y-55314D01*
X52362Y-55296D01*
X52737Y-55296D02*
X52774Y-55296D01*
X52812Y-55314D01*
X52830Y-55333D01*
X52849Y-55371D01*
X52868Y-55446D01*
X52868Y-55539D01*
X52849Y-55614D01*
X52830Y-55652D01*
X52812Y-55671D01*
X52774Y-55689D01*
X52737Y-55689D01*
X52699Y-55671D01*
X52680Y-55652D01*
X52662Y-55614D01*
X52643Y-55539D01*
X52643Y-55446D01*
X52662Y-55371D01*
X52680Y-55333D01*
X52699Y-55314D01*
X52737Y-55296D01*
X53112Y-55296D02*
X53149Y-55296D01*
X53187Y-55314D01*
X53205Y-55333D01*
X53224Y-55371D01*
X53243Y-55446D01*
X53243Y-55539D01*
X53224Y-55614D01*
X53205Y-55652D01*
X53187Y-55671D01*
X53149Y-55689D01*
X53112Y-55689D01*
X53074Y-55671D01*
X53055Y-55652D01*
X53037Y-55614D01*
X53018Y-55539D01*
X53018Y-55446D01*
X53037Y-55371D01*
X53055Y-55333D01*
X53074Y-55314D01*
X53112Y-55296D01*
X53712Y-55689D02*
X53712Y-55427D01*
X53712Y-55464D02*
X53730Y-55446D01*
X53768Y-55427D01*
X53824Y-55427D01*
X53862Y-55446D01*
X53880Y-55483D01*
X53880Y-55689D01*
X53880Y-55483D02*
X53899Y-55446D01*
X53937Y-55427D01*
X53993Y-55427D01*
X54030Y-55446D01*
X54049Y-55483D01*
X54049Y-55689D01*
X54236Y-55689D02*
X54236Y-55427D01*
X54236Y-55464D02*
X54255Y-55446D01*
X54293Y-55427D01*
X54349Y-55427D01*
X54386Y-55446D01*
X54405Y-55483D01*
X54405Y-55689D01*
X54405Y-55483D02*
X54424Y-55446D01*
X54461Y-55427D01*
X54518Y-55427D01*
X54555Y-55446D01*
X54574Y-55483D01*
X54574Y-55689D01*
X52362Y-55118D02*
X53937Y-55118D01*
X52362Y-50196D02*
X52362Y-55905D01*
X53937Y-50196D02*
X53937Y-55905D01*
X53937Y-55118D02*
X53493Y-55348D01*
X53937Y-55118D02*
X53493Y-54887D01*
X52362Y-55118D02*
X52805Y-55348D01*
X52362Y-55118D02*
X52805Y-54887D01*
X56214Y-53918D02*
X56477Y-53918D01*
X56308Y-54311D01*
X56627Y-54274D02*
X56646Y-54293D01*
X56627Y-54311D01*
X56608Y-54293D01*
X56627Y-54274D01*
X56627Y-54311D01*
X56889Y-53918D02*
X56927Y-53918D01*
X56964Y-53937D01*
X56983Y-53955D01*
X57002Y-53993D01*
X57020Y-54068D01*
X57020Y-54161D01*
X57002Y-54236D01*
X56983Y-54274D01*
X56964Y-54293D01*
X56927Y-54311D01*
X56889Y-54311D01*
X56852Y-54293D01*
X56833Y-54274D01*
X56814Y-54236D01*
X56796Y-54161D01*
X56796Y-54068D01*
X56814Y-53993D01*
X56833Y-53955D01*
X56852Y-53937D01*
X56889Y-53918D01*
X57264Y-53918D02*
X57302Y-53918D01*
X57339Y-53937D01*
X57358Y-53955D01*
X57377Y-53993D01*
X57395Y-54068D01*
X57395Y-54161D01*
X57377Y-54236D01*
X57358Y-54274D01*
X57339Y-54293D01*
X57302Y-54311D01*
X57264Y-54311D01*
X57227Y-54293D01*
X57208Y-54274D01*
X57189Y-54236D01*
X57170Y-54161D01*
X57170Y-54068D01*
X57189Y-53993D01*
X57208Y-53955D01*
X57227Y-53937D01*
X57264Y-53918D01*
X57639Y-53918D02*
X57677Y-53918D01*
X57714Y-53937D01*
X57733Y-53955D01*
X57752Y-53993D01*
X57770Y-54068D01*
X57770Y-54161D01*
X57752Y-54236D01*
X57733Y-54274D01*
X57714Y-54293D01*
X57677Y-54311D01*
X57639Y-54311D01*
X57602Y-54293D01*
X57583Y-54274D01*
X57564Y-54236D01*
X57545Y-54161D01*
X57545Y-54068D01*
X57564Y-53993D01*
X57583Y-53955D01*
X57602Y-53937D01*
X57639Y-53918D01*
X58239Y-54311D02*
X58239Y-54049D01*
X58239Y-54086D02*
X58258Y-54068D01*
X58295Y-54049D01*
X58352Y-54049D01*
X58389Y-54068D01*
X58408Y-54105D01*
X58408Y-54311D01*
X58408Y-54105D02*
X58427Y-54068D01*
X58464Y-54049D01*
X58520Y-54049D01*
X58558Y-54068D01*
X58577Y-54105D01*
X58577Y-54311D01*
X58764Y-54311D02*
X58764Y-54049D01*
X58764Y-54086D02*
X58783Y-54068D01*
X58820Y-54049D01*
X58877Y-54049D01*
X58914Y-54068D01*
X58933Y-54105D01*
X58933Y-54311D01*
X58933Y-54105D02*
X58952Y-54068D01*
X58989Y-54049D01*
X59045Y-54049D01*
X59083Y-54068D01*
X59101Y-54105D01*
X59101Y-54311D01*
X56299Y-53740D02*
X59055Y-53740D01*
X56299Y-25590D02*
X56299Y-54527D01*
X59055Y-25590D02*
X59055Y-54527D01*
X59055Y-53740D02*
X58611Y-53971D01*
X59055Y-53740D02*
X58611Y-53509D01*
X56299Y-53740D02*
X56742Y-53971D01*
X56299Y-53740D02*
X56742Y-53509D01*
X51743Y-54311D02*
X51518Y-54311D01*
X51631Y-54311D02*
X51631Y-53918D01*
X51593Y-53974D01*
X51556Y-54011D01*
X51518Y-54030D01*
X52080Y-53918D02*
X52005Y-53918D01*
X51968Y-53937D01*
X51949Y-53955D01*
X51912Y-54011D01*
X51893Y-54086D01*
X51893Y-54236D01*
X51912Y-54274D01*
X51931Y-54293D01*
X51968Y-54311D01*
X52043Y-54311D01*
X52080Y-54293D01*
X52099Y-54274D01*
X52118Y-54236D01*
X52118Y-54143D01*
X52099Y-54105D01*
X52080Y-54086D01*
X52043Y-54068D01*
X51968Y-54068D01*
X51931Y-54086D01*
X51912Y-54105D01*
X51893Y-54143D01*
X52287Y-54274D02*
X52305Y-54293D01*
X52287Y-54311D01*
X52268Y-54293D01*
X52287Y-54274D01*
X52287Y-54311D01*
X52549Y-53918D02*
X52587Y-53918D01*
X52624Y-53937D01*
X52643Y-53955D01*
X52662Y-53993D01*
X52680Y-54068D01*
X52680Y-54161D01*
X52662Y-54236D01*
X52643Y-54274D01*
X52624Y-54293D01*
X52587Y-54311D01*
X52549Y-54311D01*
X52512Y-54293D01*
X52493Y-54274D01*
X52474Y-54236D01*
X52455Y-54161D01*
X52455Y-54068D01*
X52474Y-53993D01*
X52493Y-53955D01*
X52512Y-53937D01*
X52549Y-53918D01*
X52924Y-53918D02*
X52962Y-53918D01*
X52999Y-53937D01*
X53018Y-53955D01*
X53037Y-53993D01*
X53055Y-54068D01*
X53055Y-54161D01*
X53037Y-54236D01*
X53018Y-54274D01*
X52999Y-54293D01*
X52962Y-54311D01*
X52924Y-54311D01*
X52887Y-54293D01*
X52868Y-54274D01*
X52849Y-54236D01*
X52830Y-54161D01*
X52830Y-54068D01*
X52849Y-53993D01*
X52868Y-53955D01*
X52887Y-53937D01*
X52924Y-53918D01*
X53299Y-53918D02*
X53337Y-53918D01*
X53374Y-53937D01*
X53393Y-53955D01*
X53412Y-53993D01*
X53430Y-54068D01*
X53430Y-54161D01*
X53412Y-54236D01*
X53393Y-54274D01*
X53374Y-54293D01*
X53337Y-54311D01*
X53299Y-54311D01*
X53262Y-54293D01*
X53243Y-54274D01*
X53224Y-54236D01*
X53205Y-54161D01*
X53205Y-54068D01*
X53224Y-53993D01*
X53243Y-53955D01*
X53262Y-53937D01*
X53299Y-53918D01*
X53899Y-54311D02*
X53899Y-54049D01*
X53899Y-54086D02*
X53918Y-54068D01*
X53955Y-54049D01*
X54011Y-54049D01*
X54049Y-54068D01*
X54068Y-54105D01*
X54068Y-54311D01*
X54068Y-54105D02*
X54086Y-54068D01*
X54124Y-54049D01*
X54180Y-54049D01*
X54218Y-54068D01*
X54236Y-54105D01*
X54236Y-54311D01*
X54424Y-54311D02*
X54424Y-54049D01*
X54424Y-54086D02*
X54443Y-54068D01*
X54480Y-54049D01*
X54536Y-54049D01*
X54574Y-54068D01*
X54593Y-54105D01*
X54593Y-54311D01*
X54593Y-54105D02*
X54611Y-54068D01*
X54649Y-54049D01*
X54705Y-54049D01*
X54743Y-54068D01*
X54761Y-54105D01*
X54761Y-54311D01*
X50000Y-53740D02*
X56299Y-53740D01*
X50000Y-51181D02*
X50000Y-54527D01*
X56299Y-51181D02*
X56299Y-54527D01*
X56299Y-53740D02*
X55855Y-53971D01*
X56299Y-53740D02*
X55855Y-53509D01*
X50000Y-53740D02*
X50443Y-53971D01*
X50000Y-53740D02*
X50443Y-53509D01*
X47159Y-53918D02*
X47422Y-53918D01*
X47253Y-54311D01*
X47572Y-54274D02*
X47590Y-54293D01*
X47572Y-54311D01*
X47553Y-54293D01*
X47572Y-54274D01*
X47572Y-54311D01*
X47834Y-53918D02*
X47872Y-53918D01*
X47909Y-53937D01*
X47928Y-53955D01*
X47947Y-53993D01*
X47965Y-54068D01*
X47965Y-54161D01*
X47947Y-54236D01*
X47928Y-54274D01*
X47909Y-54293D01*
X47872Y-54311D01*
X47834Y-54311D01*
X47797Y-54293D01*
X47778Y-54274D01*
X47759Y-54236D01*
X47740Y-54161D01*
X47740Y-54068D01*
X47759Y-53993D01*
X47778Y-53955D01*
X47797Y-53937D01*
X47834Y-53918D01*
X48209Y-53918D02*
X48247Y-53918D01*
X48284Y-53937D01*
X48303Y-53955D01*
X48322Y-53993D01*
X48340Y-54068D01*
X48340Y-54161D01*
X48322Y-54236D01*
X48303Y-54274D01*
X48284Y-54293D01*
X48247Y-54311D01*
X48209Y-54311D01*
X48172Y-54293D01*
X48153Y-54274D01*
X48134Y-54236D01*
X48115Y-54161D01*
X48115Y-54068D01*
X48134Y-53993D01*
X48153Y-53955D01*
X48172Y-53937D01*
X48209Y-53918D01*
X48584Y-53918D02*
X48622Y-53918D01*
X48659Y-53937D01*
X48678Y-53955D01*
X48697Y-53993D01*
X48715Y-54068D01*
X48715Y-54161D01*
X48697Y-54236D01*
X48678Y-54274D01*
X48659Y-54293D01*
X48622Y-54311D01*
X48584Y-54311D01*
X48547Y-54293D01*
X48528Y-54274D01*
X48509Y-54236D01*
X48490Y-54161D01*
X48490Y-54068D01*
X48509Y-53993D01*
X48528Y-53955D01*
X48547Y-53937D01*
X48584Y-53918D01*
X49184Y-54311D02*
X49184Y-54049D01*
X49184Y-54086D02*
X49203Y-54068D01*
X49240Y-54049D01*
X49296Y-54049D01*
X49334Y-54068D01*
X49353Y-54105D01*
X49353Y-54311D01*
X49353Y-54105D02*
X49371Y-54068D01*
X49409Y-54049D01*
X49465Y-54049D01*
X49503Y-54068D01*
X49521Y-54105D01*
X49521Y-54311D01*
X49709Y-54311D02*
X49709Y-54049D01*
X49709Y-54086D02*
X49728Y-54068D01*
X49765Y-54049D01*
X49821Y-54049D01*
X49859Y-54068D01*
X49878Y-54105D01*
X49878Y-54311D01*
X49878Y-54105D02*
X49896Y-54068D01*
X49934Y-54049D01*
X49990Y-54049D01*
X50028Y-54068D01*
X50046Y-54105D01*
X50046Y-54311D01*
X47244Y-53740D02*
X50000Y-53740D01*
X47244Y-51181D02*
X47244Y-54527D01*
X50000Y-51181D02*
X50000Y-54527D01*
X50000Y-53740D02*
X49556Y-53971D01*
X50000Y-53740D02*
X49556Y-53509D01*
X47244Y-53740D02*
X47687Y-53971D01*
X47244Y-53740D02*
X47687Y-53509D01*
G54D12*
X54665Y-49547D02*
X53208Y-49547D01*
X54665Y-50846D02*
X54665Y-49547D01*
X53208Y-50846D02*
X54665Y-50846D01*
X53208Y-49547D02*
X53208Y-50846D01*
X53366Y-49015D02*
X51358Y-49015D01*
X53366Y-51377D02*
X53366Y-49015D01*
X51358Y-51377D02*
X53366Y-51377D01*
X51358Y-49015D02*
X51358Y-51377D01*
X53149Y-49586D02*
X51574Y-49586D01*
X53149Y-50807D02*
X53149Y-49586D01*
X51574Y-50807D02*
X53149Y-50807D01*
X51574Y-49586D02*
X51574Y-50807D01*
X50787Y-51181D02*
G75*
G03X50787Y-51181I-787J0D01*
G74*
G01*
X57086Y-25590D02*
G75*
G03X57086Y-25590I-787J0D01*
G74*
G01*
X57874Y-47637D02*
X57874Y-52755D01*
X48425Y-47637D02*
X57874Y-47637D01*
X48425Y-52755D02*
X57874Y-52755D01*
X48425Y-47637D02*
X48425Y-52755D01*
X48425Y-39763D02*
X48425Y-44881D01*
X48425Y-44881D02*
X57874Y-44881D01*
X48425Y-39763D02*
X57874Y-39763D01*
X57874Y-39763D02*
X57874Y-44881D01*
X57874Y-31889D02*
X57874Y-37007D01*
X48425Y-31889D02*
X57874Y-31889D01*
X48425Y-37007D02*
X57874Y-37007D01*
X48425Y-31889D02*
X48425Y-37007D01*
X57874Y-24015D02*
X48425Y-24015D01*
X57874Y-29133D02*
X57874Y-24015D01*
X48425Y-29133D02*
X57874Y-29133D01*
X48425Y-24015D02*
X48425Y-29133D01*
M02*
