G04 (created by PCBNEW (2013-04-21 BZR 4107)-testing) date Thursday, 06 June 2013 16:04:59*
%MOIN*%
G04 Gerber Fmt 3.4, Leading zero omitted, Abs format*
%FSLAX34Y34*%
G01*
G70*
G90*
G04 APERTURE LIST*
%ADD10C,0*%
%ADD11R,0.00905512X0.0314961*%
%ADD12R,0.0224409X0.019685*%
%ADD13C,0.1378*%
%ADD14R,0.00984252X0.0433071*%
%ADD15R,0.102362X0.0866142*%
%ADD16R,0.11811X0.0866142*%
%ADD17C,0.0590551*%
%ADD18C,0.0787402*%
%ADD19C,0.11811*%
%ADD20C,0.00905512*%
%ADD21C,0.00984252*%
%ADD22C,0.0984252*%
%ADD23C,0.01*%
G04 APERTURE END LIST*
G54D10*
G54D11*
X53779Y-49251D03*
X53622Y-49251D03*
X53937Y-49251D03*
X54094Y-49251D03*
X54251Y-49251D03*
X54251Y-51141D03*
X54094Y-51141D03*
X53937Y-51141D03*
X53779Y-51141D03*
X53622Y-51141D03*
G54D12*
X54690Y-50019D03*
X54690Y-50374D03*
X53183Y-50019D03*
X53183Y-50374D03*
G54D13*
X50000Y-51181D03*
X56299Y-25590D03*
G54D14*
X52165Y-25787D03*
X51968Y-25787D03*
X52362Y-25787D03*
X52559Y-25787D03*
X52755Y-25787D03*
X52755Y-27362D03*
X52559Y-27362D03*
X52362Y-27362D03*
X52165Y-27362D03*
X51968Y-27362D03*
X52165Y-33661D03*
X51968Y-33661D03*
X52362Y-33661D03*
X52559Y-33661D03*
X52755Y-33661D03*
X52755Y-35236D03*
X52559Y-35236D03*
X52362Y-35236D03*
X52165Y-35236D03*
X51968Y-35236D03*
X52165Y-41535D03*
X51968Y-41535D03*
X52362Y-41535D03*
X52559Y-41535D03*
X52755Y-41535D03*
X52755Y-43110D03*
X52559Y-43110D03*
X52362Y-43110D03*
X52165Y-43110D03*
X51968Y-43110D03*
X52165Y-49409D03*
X51968Y-49409D03*
X52362Y-49409D03*
X52559Y-49409D03*
X52755Y-49409D03*
X52755Y-50984D03*
X52559Y-50984D03*
X52362Y-50984D03*
X52165Y-50984D03*
X51968Y-50984D03*
G54D11*
X53779Y-25629D03*
X53622Y-25629D03*
X53937Y-25629D03*
X54094Y-25629D03*
X54251Y-25629D03*
X54251Y-27519D03*
X54094Y-27519D03*
X53937Y-27519D03*
X53779Y-27519D03*
X53622Y-27519D03*
G54D12*
X54690Y-26397D03*
X54690Y-26751D03*
X53183Y-26397D03*
X53183Y-26751D03*
G54D11*
X53779Y-33503D03*
X53622Y-33503D03*
X53937Y-33503D03*
X54094Y-33503D03*
X54251Y-33503D03*
X54251Y-35393D03*
X54094Y-35393D03*
X53937Y-35393D03*
X53779Y-35393D03*
X53622Y-35393D03*
G54D12*
X54690Y-34271D03*
X54690Y-34625D03*
X53183Y-34271D03*
X53183Y-34625D03*
G54D11*
X53779Y-41377D03*
X53622Y-41377D03*
X53937Y-41377D03*
X54094Y-41377D03*
X54251Y-41377D03*
X54251Y-43267D03*
X54094Y-43267D03*
X53937Y-43267D03*
X53779Y-43267D03*
X53622Y-43267D03*
G54D12*
X54690Y-42145D03*
X54690Y-42500D03*
X53183Y-42145D03*
X53183Y-42500D03*
G54D15*
X58346Y-30511D03*
G54D16*
X53937Y-30511D03*
G54D15*
X58346Y-22637D03*
G54D16*
X53937Y-22637D03*
G54D15*
X47952Y-30511D03*
G54D16*
X52362Y-30511D03*
G54D15*
X58346Y-46259D03*
G54D16*
X53937Y-46259D03*
G54D15*
X47952Y-22637D03*
G54D16*
X52362Y-22637D03*
G54D15*
X58346Y-38385D03*
G54D16*
X53937Y-38385D03*
G54D15*
X47952Y-46259D03*
G54D16*
X52362Y-46259D03*
G54D15*
X47952Y-38385D03*
G54D16*
X52362Y-38385D03*
G54D17*
X48031Y-39960D03*
X58267Y-36811D03*
X58267Y-47834D03*
X58267Y-44685D03*
X53937Y-47244D03*
X52362Y-39370D03*
X53937Y-39370D03*
X53937Y-23622D03*
X57086Y-22637D03*
X55511Y-22637D03*
X58267Y-24212D03*
X48031Y-36811D03*
X58267Y-39960D03*
X50000Y-48228D03*
X50000Y-40354D03*
X50000Y-32480D03*
X50000Y-25393D03*
X48031Y-28937D03*
X48031Y-24212D03*
X49212Y-22637D03*
X50787Y-22637D03*
X53937Y-29527D03*
X52362Y-29527D03*
X57086Y-30511D03*
X55511Y-30511D03*
X48031Y-47834D03*
X48031Y-44685D03*
X58267Y-32086D03*
X58267Y-28937D03*
X48031Y-32086D03*
G54D18*
X47952Y-39881D02*
X48031Y-39960D01*
X47952Y-39881D02*
X47952Y-38385D01*
X58346Y-36889D02*
X58267Y-36811D01*
X58346Y-36889D02*
X58346Y-38385D01*
X58346Y-47755D02*
X58267Y-47834D01*
X58346Y-47755D02*
X58346Y-46259D01*
X58346Y-44763D02*
X58267Y-44685D01*
X58346Y-46259D02*
X58346Y-44763D01*
X53937Y-46259D02*
X53937Y-47244D01*
X53937Y-47244D02*
X53937Y-48228D01*
X58346Y-22637D02*
X58346Y-24133D01*
X58346Y-24133D02*
X58267Y-24212D01*
X47952Y-38385D02*
X47952Y-36889D01*
X47952Y-36889D02*
X48031Y-36811D01*
X58346Y-39881D02*
X58267Y-39960D01*
X58346Y-39881D02*
X58346Y-38385D01*
X53937Y-22637D02*
X55511Y-22637D01*
X55511Y-22637D02*
X57086Y-22637D01*
X57086Y-22637D02*
X58346Y-22637D01*
X53937Y-22637D02*
X53937Y-23622D01*
X53937Y-23622D02*
X53937Y-24606D01*
X53937Y-24606D02*
X54330Y-24606D01*
X52362Y-24606D02*
X52559Y-24606D01*
X53937Y-38385D02*
X53937Y-39370D01*
X53937Y-39370D02*
X53937Y-40354D01*
X52362Y-38385D02*
X52362Y-39370D01*
X52362Y-39370D02*
X52362Y-40354D01*
X52362Y-40354D02*
X52559Y-40354D01*
X52362Y-38385D02*
X53937Y-38385D01*
G54D19*
X50000Y-48228D02*
X51968Y-48228D01*
X50000Y-40354D02*
X52755Y-40354D01*
X50000Y-25393D02*
X50787Y-24606D01*
X52559Y-24606D02*
X50787Y-24606D01*
X50000Y-32480D02*
X52755Y-32480D01*
G54D20*
X53622Y-33503D02*
X53622Y-32559D01*
X53622Y-32559D02*
X53543Y-32480D01*
X53779Y-33503D02*
X53779Y-32519D01*
X53779Y-32519D02*
X53740Y-32480D01*
X54251Y-33503D02*
X54251Y-32559D01*
X54251Y-32559D02*
X54330Y-32480D01*
X54094Y-33503D02*
X54094Y-32519D01*
X54094Y-32519D02*
X54133Y-32480D01*
X53937Y-33503D02*
X53937Y-32480D01*
X54251Y-25629D02*
X54251Y-24685D01*
G54D19*
X54330Y-24606D02*
X53937Y-24606D01*
G54D20*
X54251Y-24685D02*
X54330Y-24606D01*
X54094Y-25629D02*
X54094Y-24645D01*
X54094Y-24645D02*
X54133Y-24606D01*
X53622Y-25629D02*
X53622Y-24685D01*
X53543Y-24606D02*
X53149Y-24606D01*
X53622Y-24685D02*
X53543Y-24606D01*
X53779Y-25629D02*
X53779Y-24645D01*
X53779Y-24645D02*
X53740Y-24606D01*
X53937Y-25629D02*
X53937Y-24606D01*
X53622Y-41377D02*
X53622Y-40433D01*
X53622Y-40433D02*
X53543Y-40354D01*
X54251Y-41377D02*
X54251Y-40433D01*
X54251Y-40433D02*
X54330Y-40354D01*
X54094Y-41377D02*
X54094Y-40393D01*
X54094Y-40393D02*
X54133Y-40354D01*
X53779Y-41377D02*
X53779Y-40393D01*
X53779Y-40393D02*
X53740Y-40354D01*
X53937Y-41377D02*
X53937Y-40354D01*
X53622Y-49251D02*
X53622Y-48307D01*
X53622Y-48307D02*
X53543Y-48228D01*
X53779Y-49251D02*
X53779Y-48267D01*
X53779Y-48267D02*
X53740Y-48228D01*
X54251Y-49251D02*
X54251Y-48307D01*
X54251Y-48307D02*
X54330Y-48228D01*
X54094Y-49251D02*
X54094Y-48267D01*
X54094Y-48267D02*
X54133Y-48228D01*
X53937Y-49251D02*
X53937Y-48228D01*
G54D21*
X52755Y-25787D02*
X52755Y-24606D01*
X52755Y-24606D02*
X53149Y-24606D01*
X52559Y-25787D02*
X52559Y-24606D01*
X52362Y-25787D02*
X52362Y-24606D01*
X52165Y-25787D02*
X52165Y-24606D01*
X51968Y-25787D02*
X51968Y-24606D01*
X52755Y-41535D02*
X52755Y-40354D01*
X52559Y-41535D02*
X52559Y-40354D01*
X52362Y-41535D02*
X52362Y-40354D01*
X52165Y-41535D02*
X52165Y-40354D01*
X51968Y-41535D02*
X51968Y-40354D01*
X52755Y-33661D02*
X52755Y-32480D01*
X52559Y-33661D02*
X52559Y-32480D01*
X52362Y-33661D02*
X52362Y-32480D01*
X52165Y-33661D02*
X52165Y-32480D01*
X51968Y-33661D02*
X51968Y-32480D01*
X52755Y-49409D02*
X52755Y-48228D01*
X52559Y-49409D02*
X52559Y-48228D01*
X52362Y-49409D02*
X52362Y-48228D01*
X52165Y-49409D02*
X52165Y-48228D01*
X51968Y-49409D02*
X51968Y-48228D01*
G54D19*
X54232Y-48228D02*
X53543Y-48228D01*
X53543Y-48228D02*
X53740Y-48228D01*
X53740Y-48228D02*
X54330Y-48228D01*
X54330Y-48228D02*
X54133Y-48228D01*
X54133Y-48228D02*
X53937Y-48228D01*
X53937Y-48228D02*
X52755Y-48228D01*
X52755Y-48228D02*
X52559Y-48228D01*
X52559Y-48228D02*
X52362Y-48228D01*
X52362Y-48228D02*
X52165Y-48228D01*
X52165Y-48228D02*
X51968Y-48228D01*
X52755Y-40354D02*
X52559Y-40354D01*
X52559Y-40354D02*
X52362Y-40354D01*
X52362Y-40354D02*
X52165Y-40354D01*
X52165Y-40354D02*
X51968Y-40354D01*
X51968Y-40354D02*
X53543Y-40354D01*
X53543Y-40354D02*
X54330Y-40354D01*
X54330Y-40354D02*
X54133Y-40354D01*
X54133Y-40354D02*
X53740Y-40354D01*
X53740Y-40354D02*
X53937Y-40354D01*
X53937Y-40354D02*
X54232Y-40354D01*
X52755Y-32480D02*
X52559Y-32480D01*
X52559Y-32480D02*
X52362Y-32480D01*
X52362Y-32480D02*
X52165Y-32480D01*
X52165Y-32480D02*
X51968Y-32480D01*
X51968Y-32480D02*
X53543Y-32480D01*
X53543Y-32480D02*
X53740Y-32480D01*
X53740Y-32480D02*
X54330Y-32480D01*
X54330Y-32480D02*
X54133Y-32480D01*
X54133Y-32480D02*
X53937Y-32480D01*
X53937Y-32480D02*
X54232Y-32480D01*
G54D22*
X53149Y-24606D02*
X53149Y-24606D01*
X53149Y-24606D02*
X53149Y-24606D01*
G54D19*
X52559Y-24606D02*
X52362Y-24606D01*
X52362Y-24606D02*
X52165Y-24606D01*
X52165Y-24606D02*
X51968Y-24606D01*
X51968Y-24606D02*
X54133Y-24606D01*
X54133Y-24606D02*
X53740Y-24606D01*
X53740Y-24606D02*
X53149Y-24606D01*
X53149Y-24606D02*
X53937Y-24606D01*
X55708Y-52165D02*
X54330Y-52165D01*
X56299Y-51574D02*
X55708Y-52165D01*
X56299Y-44291D02*
X56299Y-51574D01*
G54D18*
X48031Y-24212D02*
X48031Y-28937D01*
X47952Y-29015D02*
X48031Y-28937D01*
X47952Y-30511D02*
X47952Y-29015D01*
X47952Y-24133D02*
X48031Y-24212D01*
X47952Y-24133D02*
X47952Y-22637D01*
X50787Y-22637D02*
X52362Y-22637D01*
X49212Y-22637D02*
X50787Y-22637D01*
X47952Y-22637D02*
X49212Y-22637D01*
G54D19*
X56299Y-44291D02*
X56299Y-36417D01*
X56299Y-44291D02*
X53937Y-44291D01*
G54D20*
X53622Y-44212D02*
X53543Y-44291D01*
X54251Y-44212D02*
X54330Y-44291D01*
X54094Y-44251D02*
X54133Y-44291D01*
X53779Y-44251D02*
X53740Y-44291D01*
G54D19*
X53543Y-44291D02*
X54330Y-44291D01*
X54330Y-44291D02*
X54133Y-44291D01*
X54133Y-44291D02*
X53740Y-44291D01*
X53740Y-44291D02*
X53937Y-44291D01*
G54D18*
X47952Y-46259D02*
X47952Y-47755D01*
X47952Y-47755D02*
X48031Y-47834D01*
X47952Y-46259D02*
X47952Y-44763D01*
X47952Y-44763D02*
X48031Y-44685D01*
X58346Y-30511D02*
X58346Y-32007D01*
X58346Y-32007D02*
X58267Y-32086D01*
X58346Y-30511D02*
X58346Y-29015D01*
X58346Y-29015D02*
X58267Y-28937D01*
X47952Y-30511D02*
X47952Y-32007D01*
X47952Y-32007D02*
X48031Y-32086D01*
X52362Y-46259D02*
X47952Y-46259D01*
X56299Y-30511D02*
X57086Y-30511D01*
X57086Y-30511D02*
X58346Y-30511D01*
X47952Y-30511D02*
X52362Y-30511D01*
X52362Y-46259D02*
X52362Y-45275D01*
X52362Y-45275D02*
X52362Y-44291D01*
X52362Y-30511D02*
X52362Y-29527D01*
X52362Y-29527D02*
X52362Y-28543D01*
X53937Y-30511D02*
X53937Y-29527D01*
X53937Y-29527D02*
X53937Y-28543D01*
X53937Y-30511D02*
X55511Y-30511D01*
X55511Y-30511D02*
X56299Y-30511D01*
X52362Y-30511D02*
X53937Y-30511D01*
G54D19*
X56299Y-36417D02*
X56299Y-30511D01*
X56299Y-30511D02*
X56299Y-28543D01*
X56299Y-28543D02*
X53937Y-28543D01*
X56299Y-36417D02*
X53543Y-36417D01*
G54D20*
X54251Y-35393D02*
X54251Y-36338D01*
X54251Y-36338D02*
X54330Y-36417D01*
X54094Y-35393D02*
X54094Y-36377D01*
X54094Y-36377D02*
X54133Y-36417D01*
X53937Y-35393D02*
X53937Y-36417D01*
X53779Y-35393D02*
X53779Y-36377D01*
X53779Y-36377D02*
X53740Y-36417D01*
X53622Y-35393D02*
X53622Y-36338D01*
X53622Y-36338D02*
X53543Y-36417D01*
X54251Y-27519D02*
X54251Y-28464D01*
X54251Y-28464D02*
X54330Y-28543D01*
X54094Y-27519D02*
X54094Y-28503D01*
X54094Y-28503D02*
X54133Y-28543D01*
X53622Y-27519D02*
X53622Y-28464D01*
X53622Y-28464D02*
X53543Y-28543D01*
X53779Y-27519D02*
X53779Y-28503D01*
X53779Y-28503D02*
X53740Y-28543D01*
X53937Y-27519D02*
X53937Y-28543D01*
X53622Y-43267D02*
X53622Y-44212D01*
X54251Y-43267D02*
X54251Y-44212D01*
X54094Y-43267D02*
X54094Y-44251D01*
X53779Y-43267D02*
X53779Y-44251D01*
X53937Y-43267D02*
X53937Y-44291D01*
X54251Y-51141D02*
X54251Y-52086D01*
X54251Y-52086D02*
X54330Y-52165D01*
X54094Y-51141D02*
X54094Y-52125D01*
X54094Y-52125D02*
X54133Y-52165D01*
X53937Y-51141D02*
X53937Y-52165D01*
X53779Y-51141D02*
X53779Y-52125D01*
X53779Y-52125D02*
X53740Y-52165D01*
X53622Y-51141D02*
X53622Y-52086D01*
X53622Y-52086D02*
X53543Y-52165D01*
G54D21*
X52755Y-27362D02*
X52755Y-28543D01*
X52559Y-27362D02*
X52559Y-28543D01*
X52362Y-27362D02*
X52362Y-28543D01*
X52165Y-27362D02*
X52165Y-28543D01*
X51968Y-27362D02*
X51968Y-28543D01*
G54D19*
X51968Y-28543D02*
X52755Y-28543D01*
X52755Y-28543D02*
X52559Y-28543D01*
X52559Y-28543D02*
X52362Y-28543D01*
X52362Y-28543D02*
X52165Y-28543D01*
X52165Y-28543D02*
X54330Y-28543D01*
X54330Y-28543D02*
X54133Y-28543D01*
X54133Y-28543D02*
X53543Y-28543D01*
X53543Y-28543D02*
X53740Y-28543D01*
X53740Y-28543D02*
X53937Y-28543D01*
G54D21*
X52755Y-43110D02*
X52755Y-44291D01*
X52559Y-43110D02*
X52559Y-44291D01*
X52362Y-43110D02*
X52362Y-44291D01*
X52165Y-43110D02*
X52165Y-44291D01*
X51968Y-43110D02*
X51968Y-44291D01*
G54D19*
X51968Y-44291D02*
X52755Y-44291D01*
X52755Y-44291D02*
X52559Y-44291D01*
X52559Y-44291D02*
X52362Y-44291D01*
X52362Y-44291D02*
X52165Y-44291D01*
X52165Y-44291D02*
X53543Y-44291D01*
G54D21*
X52755Y-35236D02*
X52755Y-36417D01*
X52559Y-35236D02*
X52559Y-36417D01*
X52362Y-35236D02*
X52362Y-36417D01*
X52165Y-35236D02*
X52165Y-36417D01*
X51968Y-35236D02*
X51968Y-36417D01*
G54D19*
X51968Y-36417D02*
X52755Y-36417D01*
X52755Y-36417D02*
X52559Y-36417D01*
X52559Y-36417D02*
X52362Y-36417D01*
X52362Y-36417D02*
X52165Y-36417D01*
X52165Y-36417D02*
X54330Y-36417D01*
X54330Y-36417D02*
X54133Y-36417D01*
X54133Y-36417D02*
X53937Y-36417D01*
X53937Y-36417D02*
X53740Y-36417D01*
X53740Y-36417D02*
X53543Y-36417D01*
G54D21*
X52755Y-50984D02*
X52755Y-52165D01*
X52559Y-50984D02*
X52559Y-52165D01*
X52362Y-50984D02*
X52362Y-52165D01*
X52165Y-50984D02*
X52165Y-52165D01*
X52165Y-52165D02*
X52165Y-52185D01*
X52165Y-52185D02*
X52165Y-52165D01*
X51968Y-50984D02*
X51968Y-52165D01*
G54D19*
X51968Y-52165D02*
X52755Y-52165D01*
X52755Y-52165D02*
X52559Y-52165D01*
X52559Y-52165D02*
X52362Y-52165D01*
X52362Y-52165D02*
X52165Y-52165D01*
X52165Y-52165D02*
X54330Y-52165D01*
X54330Y-52165D02*
X54133Y-52165D01*
X54133Y-52165D02*
X53937Y-52165D01*
X53937Y-52165D02*
X53740Y-52165D01*
X53740Y-52165D02*
X53543Y-52165D01*
G54D10*
G36*
X58775Y-52673D02*
X57238Y-52673D01*
X57238Y-25404D01*
X57095Y-25059D01*
X56831Y-24794D01*
X56486Y-24651D01*
X56113Y-24651D01*
X55768Y-24794D01*
X55503Y-25057D01*
X55360Y-25402D01*
X55360Y-25776D01*
X55502Y-26121D01*
X55766Y-26386D01*
X56111Y-26529D01*
X56485Y-26529D01*
X56830Y-26387D01*
X57094Y-26123D01*
X57238Y-25778D01*
X57238Y-25404D01*
X57238Y-52673D01*
X55171Y-52673D01*
X55171Y-48228D01*
X55171Y-40354D01*
X55171Y-32480D01*
X55107Y-32158D01*
X54925Y-31885D01*
X54652Y-31703D01*
X54330Y-31639D01*
X54232Y-31639D01*
X54133Y-31639D01*
X53937Y-31639D01*
X53740Y-31639D01*
X53543Y-31639D01*
X52755Y-31639D01*
X52559Y-31639D01*
X52362Y-31639D01*
X52165Y-31639D01*
X51968Y-31639D01*
X50000Y-31639D01*
X49678Y-31703D01*
X49405Y-31885D01*
X49223Y-32158D01*
X49159Y-32480D01*
X49223Y-32801D01*
X49405Y-33074D01*
X49678Y-33256D01*
X50000Y-33320D01*
X51669Y-33320D01*
X51669Y-33395D01*
X51669Y-33461D01*
X51177Y-33461D01*
X51177Y-35436D01*
X54924Y-35436D01*
X54924Y-34944D01*
X54944Y-34936D01*
X55015Y-34866D01*
X55053Y-34774D01*
X55053Y-34674D01*
X55053Y-34477D01*
X55041Y-34448D01*
X55053Y-34419D01*
X55053Y-34320D01*
X55053Y-34123D01*
X55015Y-34031D01*
X54944Y-33961D01*
X54924Y-33952D01*
X54924Y-33461D01*
X54547Y-33461D01*
X54547Y-33296D01*
X54547Y-33277D01*
X54652Y-33256D01*
X54925Y-33074D01*
X55107Y-32801D01*
X55171Y-32480D01*
X55171Y-40354D01*
X55107Y-40032D01*
X54925Y-39759D01*
X54652Y-39577D01*
X54580Y-39563D01*
X54580Y-39370D01*
X54580Y-39067D01*
X54669Y-39030D01*
X54739Y-38960D01*
X54777Y-38868D01*
X54777Y-38769D01*
X54777Y-37903D01*
X54739Y-37811D01*
X54669Y-37740D01*
X54577Y-37702D01*
X54477Y-37702D01*
X53296Y-37702D01*
X53204Y-37740D01*
X53203Y-37742D01*
X53095Y-37742D01*
X53094Y-37740D01*
X53002Y-37702D01*
X52903Y-37702D01*
X51721Y-37702D01*
X51630Y-37740D01*
X51559Y-37811D01*
X51521Y-37903D01*
X51521Y-38002D01*
X51521Y-38868D01*
X51559Y-38960D01*
X51630Y-39030D01*
X51718Y-39067D01*
X51718Y-39370D01*
X51718Y-39513D01*
X50000Y-39513D01*
X49678Y-39577D01*
X49405Y-39759D01*
X49223Y-40032D01*
X49159Y-40354D01*
X49223Y-40675D01*
X49405Y-40948D01*
X49678Y-41130D01*
X50000Y-41194D01*
X51669Y-41194D01*
X51669Y-41269D01*
X51669Y-41335D01*
X51177Y-41335D01*
X51177Y-43310D01*
X54924Y-43310D01*
X54924Y-42818D01*
X54944Y-42810D01*
X55015Y-42740D01*
X55053Y-42648D01*
X55053Y-42548D01*
X55053Y-42351D01*
X55041Y-42322D01*
X55053Y-42293D01*
X55053Y-42194D01*
X55053Y-41997D01*
X55015Y-41905D01*
X54944Y-41835D01*
X54924Y-41826D01*
X54924Y-41335D01*
X54547Y-41335D01*
X54547Y-41170D01*
X54547Y-41151D01*
X54652Y-41130D01*
X54925Y-40948D01*
X55107Y-40675D01*
X55171Y-40354D01*
X55171Y-48228D01*
X55107Y-47906D01*
X54925Y-47633D01*
X54652Y-47451D01*
X54580Y-47437D01*
X54580Y-47244D01*
X54580Y-46941D01*
X54669Y-46904D01*
X54739Y-46834D01*
X54777Y-46742D01*
X54777Y-46643D01*
X54777Y-45777D01*
X54739Y-45685D01*
X54669Y-45614D01*
X54577Y-45576D01*
X54477Y-45576D01*
X53296Y-45576D01*
X53204Y-45614D01*
X53134Y-45685D01*
X53096Y-45777D01*
X53096Y-45876D01*
X53096Y-46742D01*
X53134Y-46834D01*
X53204Y-46904D01*
X53293Y-46941D01*
X53293Y-47244D01*
X53293Y-47387D01*
X52755Y-47387D01*
X52559Y-47387D01*
X52362Y-47387D01*
X52165Y-47387D01*
X51968Y-47387D01*
X50000Y-47387D01*
X49678Y-47451D01*
X49405Y-47633D01*
X49223Y-47906D01*
X49159Y-48228D01*
X49223Y-48550D01*
X49405Y-48822D01*
X49678Y-49004D01*
X50000Y-49068D01*
X51669Y-49068D01*
X51669Y-49143D01*
X51669Y-49209D01*
X51177Y-49209D01*
X51177Y-51184D01*
X54924Y-51184D01*
X54924Y-50692D01*
X54944Y-50684D01*
X55015Y-50614D01*
X55053Y-50522D01*
X55053Y-50422D01*
X55053Y-50225D01*
X55041Y-50196D01*
X55053Y-50167D01*
X55053Y-50068D01*
X55053Y-49871D01*
X55015Y-49779D01*
X54944Y-49709D01*
X54924Y-49700D01*
X54924Y-49209D01*
X54547Y-49209D01*
X54547Y-49044D01*
X54547Y-49025D01*
X54652Y-49004D01*
X54925Y-48822D01*
X55107Y-48550D01*
X55171Y-48228D01*
X55171Y-52673D01*
X50939Y-52673D01*
X50939Y-50995D01*
X50796Y-50649D01*
X50532Y-50385D01*
X50187Y-50242D01*
X49814Y-50241D01*
X49468Y-50384D01*
X49204Y-50648D01*
X49061Y-50993D01*
X49060Y-51367D01*
X49203Y-51712D01*
X49467Y-51976D01*
X49812Y-52119D01*
X50185Y-52120D01*
X50531Y-51977D01*
X50795Y-51713D01*
X50938Y-51368D01*
X50939Y-50995D01*
X50939Y-52673D01*
X47523Y-52673D01*
X47523Y-40363D01*
X47576Y-40415D01*
X47785Y-40555D01*
X48031Y-40604D01*
X48277Y-40555D01*
X48486Y-40415D01*
X48626Y-40206D01*
X48675Y-39960D01*
X48626Y-39714D01*
X48596Y-39669D01*
X48596Y-39034D01*
X48606Y-39030D01*
X48676Y-38960D01*
X48714Y-38868D01*
X48714Y-38769D01*
X48714Y-37903D01*
X48676Y-37811D01*
X48606Y-37740D01*
X48596Y-37736D01*
X48596Y-37101D01*
X48626Y-37057D01*
X48675Y-36811D01*
X48626Y-36564D01*
X48486Y-36355D01*
X48277Y-36216D01*
X48031Y-36167D01*
X47785Y-36216D01*
X47576Y-36355D01*
X47523Y-36408D01*
X47523Y-21933D01*
X58775Y-21933D01*
X58775Y-21954D01*
X57784Y-21954D01*
X57693Y-21992D01*
X57691Y-21994D01*
X57086Y-21994D01*
X55511Y-21994D01*
X54670Y-21994D01*
X54669Y-21992D01*
X54577Y-21954D01*
X54477Y-21954D01*
X53296Y-21954D01*
X53204Y-21992D01*
X53134Y-22063D01*
X53096Y-22154D01*
X53096Y-22254D01*
X53096Y-23120D01*
X53134Y-23212D01*
X53204Y-23282D01*
X53293Y-23319D01*
X53293Y-23622D01*
X53293Y-23765D01*
X53149Y-23765D01*
X52559Y-23765D01*
X52362Y-23765D01*
X52165Y-23765D01*
X51968Y-23765D01*
X50787Y-23765D01*
X50465Y-23829D01*
X50193Y-24011D01*
X49405Y-24799D01*
X49223Y-25072D01*
X49159Y-25393D01*
X49223Y-25715D01*
X49405Y-25988D01*
X49678Y-26170D01*
X50000Y-26234D01*
X50321Y-26170D01*
X50594Y-25988D01*
X51135Y-25446D01*
X51669Y-25446D01*
X51669Y-25521D01*
X51669Y-25587D01*
X51177Y-25587D01*
X51177Y-27562D01*
X54924Y-27562D01*
X54924Y-27070D01*
X54944Y-27062D01*
X55015Y-26992D01*
X55053Y-26900D01*
X55053Y-26800D01*
X55053Y-26603D01*
X55041Y-26574D01*
X55053Y-26545D01*
X55053Y-26446D01*
X55053Y-26249D01*
X55015Y-26157D01*
X54944Y-26087D01*
X54924Y-26078D01*
X54924Y-25587D01*
X54547Y-25587D01*
X54547Y-25422D01*
X54547Y-25403D01*
X54652Y-25382D01*
X54925Y-25200D01*
X55107Y-24927D01*
X55171Y-24606D01*
X55107Y-24284D01*
X54925Y-24011D01*
X54652Y-23829D01*
X54580Y-23815D01*
X54580Y-23622D01*
X54580Y-23319D01*
X54669Y-23282D01*
X54670Y-23281D01*
X55511Y-23281D01*
X57086Y-23281D01*
X57691Y-23281D01*
X57693Y-23282D01*
X57702Y-23286D01*
X57702Y-23921D01*
X57673Y-23966D01*
X57624Y-24212D01*
X57673Y-24458D01*
X57812Y-24667D01*
X58021Y-24807D01*
X58267Y-24856D01*
X58514Y-24807D01*
X58722Y-24667D01*
X58775Y-24615D01*
X58775Y-36408D01*
X58722Y-36355D01*
X58514Y-36216D01*
X58267Y-36167D01*
X58021Y-36216D01*
X57812Y-36355D01*
X57673Y-36564D01*
X57624Y-36811D01*
X57673Y-37057D01*
X57702Y-37101D01*
X57702Y-37736D01*
X57693Y-37740D01*
X57622Y-37811D01*
X57584Y-37903D01*
X57584Y-38002D01*
X57584Y-38868D01*
X57622Y-38960D01*
X57693Y-39030D01*
X57702Y-39034D01*
X57702Y-39669D01*
X57673Y-39714D01*
X57624Y-39960D01*
X57673Y-40206D01*
X57812Y-40415D01*
X58021Y-40555D01*
X58267Y-40604D01*
X58514Y-40555D01*
X58722Y-40415D01*
X58775Y-40363D01*
X58775Y-44282D01*
X58722Y-44229D01*
X58514Y-44090D01*
X58267Y-44041D01*
X58021Y-44090D01*
X57812Y-44229D01*
X57673Y-44438D01*
X57624Y-44685D01*
X57673Y-44931D01*
X57702Y-44975D01*
X57702Y-45610D01*
X57693Y-45614D01*
X57622Y-45685D01*
X57584Y-45777D01*
X57584Y-45876D01*
X57584Y-46742D01*
X57622Y-46834D01*
X57693Y-46904D01*
X57702Y-46908D01*
X57702Y-47543D01*
X57673Y-47588D01*
X57624Y-47834D01*
X57673Y-48080D01*
X57812Y-48289D01*
X58021Y-48429D01*
X58267Y-48478D01*
X58514Y-48429D01*
X58722Y-48289D01*
X58775Y-48237D01*
X58775Y-52673D01*
X58775Y-52673D01*
G37*
G54D23*
X58775Y-52673D02*
X57238Y-52673D01*
X57238Y-25404D01*
X57095Y-25059D01*
X56831Y-24794D01*
X56486Y-24651D01*
X56113Y-24651D01*
X55768Y-24794D01*
X55503Y-25057D01*
X55360Y-25402D01*
X55360Y-25776D01*
X55502Y-26121D01*
X55766Y-26386D01*
X56111Y-26529D01*
X56485Y-26529D01*
X56830Y-26387D01*
X57094Y-26123D01*
X57238Y-25778D01*
X57238Y-25404D01*
X57238Y-52673D01*
X55171Y-52673D01*
X55171Y-48228D01*
X55171Y-40354D01*
X55171Y-32480D01*
X55107Y-32158D01*
X54925Y-31885D01*
X54652Y-31703D01*
X54330Y-31639D01*
X54232Y-31639D01*
X54133Y-31639D01*
X53937Y-31639D01*
X53740Y-31639D01*
X53543Y-31639D01*
X52755Y-31639D01*
X52559Y-31639D01*
X52362Y-31639D01*
X52165Y-31639D01*
X51968Y-31639D01*
X50000Y-31639D01*
X49678Y-31703D01*
X49405Y-31885D01*
X49223Y-32158D01*
X49159Y-32480D01*
X49223Y-32801D01*
X49405Y-33074D01*
X49678Y-33256D01*
X50000Y-33320D01*
X51669Y-33320D01*
X51669Y-33395D01*
X51669Y-33461D01*
X51177Y-33461D01*
X51177Y-35436D01*
X54924Y-35436D01*
X54924Y-34944D01*
X54944Y-34936D01*
X55015Y-34866D01*
X55053Y-34774D01*
X55053Y-34674D01*
X55053Y-34477D01*
X55041Y-34448D01*
X55053Y-34419D01*
X55053Y-34320D01*
X55053Y-34123D01*
X55015Y-34031D01*
X54944Y-33961D01*
X54924Y-33952D01*
X54924Y-33461D01*
X54547Y-33461D01*
X54547Y-33296D01*
X54547Y-33277D01*
X54652Y-33256D01*
X54925Y-33074D01*
X55107Y-32801D01*
X55171Y-32480D01*
X55171Y-40354D01*
X55107Y-40032D01*
X54925Y-39759D01*
X54652Y-39577D01*
X54580Y-39563D01*
X54580Y-39370D01*
X54580Y-39067D01*
X54669Y-39030D01*
X54739Y-38960D01*
X54777Y-38868D01*
X54777Y-38769D01*
X54777Y-37903D01*
X54739Y-37811D01*
X54669Y-37740D01*
X54577Y-37702D01*
X54477Y-37702D01*
X53296Y-37702D01*
X53204Y-37740D01*
X53203Y-37742D01*
X53095Y-37742D01*
X53094Y-37740D01*
X53002Y-37702D01*
X52903Y-37702D01*
X51721Y-37702D01*
X51630Y-37740D01*
X51559Y-37811D01*
X51521Y-37903D01*
X51521Y-38002D01*
X51521Y-38868D01*
X51559Y-38960D01*
X51630Y-39030D01*
X51718Y-39067D01*
X51718Y-39370D01*
X51718Y-39513D01*
X50000Y-39513D01*
X49678Y-39577D01*
X49405Y-39759D01*
X49223Y-40032D01*
X49159Y-40354D01*
X49223Y-40675D01*
X49405Y-40948D01*
X49678Y-41130D01*
X50000Y-41194D01*
X51669Y-41194D01*
X51669Y-41269D01*
X51669Y-41335D01*
X51177Y-41335D01*
X51177Y-43310D01*
X54924Y-43310D01*
X54924Y-42818D01*
X54944Y-42810D01*
X55015Y-42740D01*
X55053Y-42648D01*
X55053Y-42548D01*
X55053Y-42351D01*
X55041Y-42322D01*
X55053Y-42293D01*
X55053Y-42194D01*
X55053Y-41997D01*
X55015Y-41905D01*
X54944Y-41835D01*
X54924Y-41826D01*
X54924Y-41335D01*
X54547Y-41335D01*
X54547Y-41170D01*
X54547Y-41151D01*
X54652Y-41130D01*
X54925Y-40948D01*
X55107Y-40675D01*
X55171Y-40354D01*
X55171Y-48228D01*
X55107Y-47906D01*
X54925Y-47633D01*
X54652Y-47451D01*
X54580Y-47437D01*
X54580Y-47244D01*
X54580Y-46941D01*
X54669Y-46904D01*
X54739Y-46834D01*
X54777Y-46742D01*
X54777Y-46643D01*
X54777Y-45777D01*
X54739Y-45685D01*
X54669Y-45614D01*
X54577Y-45576D01*
X54477Y-45576D01*
X53296Y-45576D01*
X53204Y-45614D01*
X53134Y-45685D01*
X53096Y-45777D01*
X53096Y-45876D01*
X53096Y-46742D01*
X53134Y-46834D01*
X53204Y-46904D01*
X53293Y-46941D01*
X53293Y-47244D01*
X53293Y-47387D01*
X52755Y-47387D01*
X52559Y-47387D01*
X52362Y-47387D01*
X52165Y-47387D01*
X51968Y-47387D01*
X50000Y-47387D01*
X49678Y-47451D01*
X49405Y-47633D01*
X49223Y-47906D01*
X49159Y-48228D01*
X49223Y-48550D01*
X49405Y-48822D01*
X49678Y-49004D01*
X50000Y-49068D01*
X51669Y-49068D01*
X51669Y-49143D01*
X51669Y-49209D01*
X51177Y-49209D01*
X51177Y-51184D01*
X54924Y-51184D01*
X54924Y-50692D01*
X54944Y-50684D01*
X55015Y-50614D01*
X55053Y-50522D01*
X55053Y-50422D01*
X55053Y-50225D01*
X55041Y-50196D01*
X55053Y-50167D01*
X55053Y-50068D01*
X55053Y-49871D01*
X55015Y-49779D01*
X54944Y-49709D01*
X54924Y-49700D01*
X54924Y-49209D01*
X54547Y-49209D01*
X54547Y-49044D01*
X54547Y-49025D01*
X54652Y-49004D01*
X54925Y-48822D01*
X55107Y-48550D01*
X55171Y-48228D01*
X55171Y-52673D01*
X50939Y-52673D01*
X50939Y-50995D01*
X50796Y-50649D01*
X50532Y-50385D01*
X50187Y-50242D01*
X49814Y-50241D01*
X49468Y-50384D01*
X49204Y-50648D01*
X49061Y-50993D01*
X49060Y-51367D01*
X49203Y-51712D01*
X49467Y-51976D01*
X49812Y-52119D01*
X50185Y-52120D01*
X50531Y-51977D01*
X50795Y-51713D01*
X50938Y-51368D01*
X50939Y-50995D01*
X50939Y-52673D01*
X47523Y-52673D01*
X47523Y-40363D01*
X47576Y-40415D01*
X47785Y-40555D01*
X48031Y-40604D01*
X48277Y-40555D01*
X48486Y-40415D01*
X48626Y-40206D01*
X48675Y-39960D01*
X48626Y-39714D01*
X48596Y-39669D01*
X48596Y-39034D01*
X48606Y-39030D01*
X48676Y-38960D01*
X48714Y-38868D01*
X48714Y-38769D01*
X48714Y-37903D01*
X48676Y-37811D01*
X48606Y-37740D01*
X48596Y-37736D01*
X48596Y-37101D01*
X48626Y-37057D01*
X48675Y-36811D01*
X48626Y-36564D01*
X48486Y-36355D01*
X48277Y-36216D01*
X48031Y-36167D01*
X47785Y-36216D01*
X47576Y-36355D01*
X47523Y-36408D01*
X47523Y-21933D01*
X58775Y-21933D01*
X58775Y-21954D01*
X57784Y-21954D01*
X57693Y-21992D01*
X57691Y-21994D01*
X57086Y-21994D01*
X55511Y-21994D01*
X54670Y-21994D01*
X54669Y-21992D01*
X54577Y-21954D01*
X54477Y-21954D01*
X53296Y-21954D01*
X53204Y-21992D01*
X53134Y-22063D01*
X53096Y-22154D01*
X53096Y-22254D01*
X53096Y-23120D01*
X53134Y-23212D01*
X53204Y-23282D01*
X53293Y-23319D01*
X53293Y-23622D01*
X53293Y-23765D01*
X53149Y-23765D01*
X52559Y-23765D01*
X52362Y-23765D01*
X52165Y-23765D01*
X51968Y-23765D01*
X50787Y-23765D01*
X50465Y-23829D01*
X50193Y-24011D01*
X49405Y-24799D01*
X49223Y-25072D01*
X49159Y-25393D01*
X49223Y-25715D01*
X49405Y-25988D01*
X49678Y-26170D01*
X50000Y-26234D01*
X50321Y-26170D01*
X50594Y-25988D01*
X51135Y-25446D01*
X51669Y-25446D01*
X51669Y-25521D01*
X51669Y-25587D01*
X51177Y-25587D01*
X51177Y-27562D01*
X54924Y-27562D01*
X54924Y-27070D01*
X54944Y-27062D01*
X55015Y-26992D01*
X55053Y-26900D01*
X55053Y-26800D01*
X55053Y-26603D01*
X55041Y-26574D01*
X55053Y-26545D01*
X55053Y-26446D01*
X55053Y-26249D01*
X55015Y-26157D01*
X54944Y-26087D01*
X54924Y-26078D01*
X54924Y-25587D01*
X54547Y-25587D01*
X54547Y-25422D01*
X54547Y-25403D01*
X54652Y-25382D01*
X54925Y-25200D01*
X55107Y-24927D01*
X55171Y-24606D01*
X55107Y-24284D01*
X54925Y-24011D01*
X54652Y-23829D01*
X54580Y-23815D01*
X54580Y-23622D01*
X54580Y-23319D01*
X54669Y-23282D01*
X54670Y-23281D01*
X55511Y-23281D01*
X57086Y-23281D01*
X57691Y-23281D01*
X57693Y-23282D01*
X57702Y-23286D01*
X57702Y-23921D01*
X57673Y-23966D01*
X57624Y-24212D01*
X57673Y-24458D01*
X57812Y-24667D01*
X58021Y-24807D01*
X58267Y-24856D01*
X58514Y-24807D01*
X58722Y-24667D01*
X58775Y-24615D01*
X58775Y-36408D01*
X58722Y-36355D01*
X58514Y-36216D01*
X58267Y-36167D01*
X58021Y-36216D01*
X57812Y-36355D01*
X57673Y-36564D01*
X57624Y-36811D01*
X57673Y-37057D01*
X57702Y-37101D01*
X57702Y-37736D01*
X57693Y-37740D01*
X57622Y-37811D01*
X57584Y-37903D01*
X57584Y-38002D01*
X57584Y-38868D01*
X57622Y-38960D01*
X57693Y-39030D01*
X57702Y-39034D01*
X57702Y-39669D01*
X57673Y-39714D01*
X57624Y-39960D01*
X57673Y-40206D01*
X57812Y-40415D01*
X58021Y-40555D01*
X58267Y-40604D01*
X58514Y-40555D01*
X58722Y-40415D01*
X58775Y-40363D01*
X58775Y-44282D01*
X58722Y-44229D01*
X58514Y-44090D01*
X58267Y-44041D01*
X58021Y-44090D01*
X57812Y-44229D01*
X57673Y-44438D01*
X57624Y-44685D01*
X57673Y-44931D01*
X57702Y-44975D01*
X57702Y-45610D01*
X57693Y-45614D01*
X57622Y-45685D01*
X57584Y-45777D01*
X57584Y-45876D01*
X57584Y-46742D01*
X57622Y-46834D01*
X57693Y-46904D01*
X57702Y-46908D01*
X57702Y-47543D01*
X57673Y-47588D01*
X57624Y-47834D01*
X57673Y-48080D01*
X57812Y-48289D01*
X58021Y-48429D01*
X58267Y-48478D01*
X58514Y-48429D01*
X58722Y-48289D01*
X58775Y-48237D01*
X58775Y-52673D01*
M02*
